<?xml version="1.0" encoding="utf-8"?>
<!-- Generator: Adobe Illustrator 25.3.1, SVG Export Plug-In . SVG Version: 6.00 Build 0)  -->
<svg version="1.1"
	 id="svg17651" xmlns:cc="http://creativecommons.org/ns#" xmlns:dc="http://purl.org/dc/elements/1.1/" xmlns:inkscape="http://www.inkscape.org/namespaces/inkscape" xmlns:rdf="http://www.w3.org/1999/02/22-rdf-syntax-ns#" xmlns:sodipodi="http://sodipodi.sourceforge.net/DTD/sodipodi-0.dtd" xmlns:svg="http://www.w3.org/2000/svg"
	 xmlns="http://www.w3.org/2000/svg" xmlns:xlink="http://www.w3.org/1999/xlink" x="0px" y="0px" viewBox="0 0 791.8 329.2"
	 style="enable-background:new 0 0 791.8 329.2;" xml:space="preserve">
<style type="text/css">
	.st0{fill:#FFFFFF;}
	.st1{font-family:'Helvetica';}
	.st2{font-size:28px;}
	.st3{font-size:24px;}
	.st4{font-size:30px;}
	.st5{fill:none;stroke:#000000;stroke-width:3.4795;}
	.st6{font-size:18px;}
	.st7{font-size:16px;}
	.st8{enable-background:new    ;}
</style>
<sodipodi:namedview  bordercolor="#666666" borderopacity="1.0" fit-margin-bottom="5" fit-margin-left="0" fit-margin-right="0" fit-margin-top="0" id="base" inkscape:current-layer="g65" inkscape:cx="447.78705" inkscape:cy="218.3373" inkscape:document-units="mm" inkscape:pageopacity="0.0" inkscape:pageshadow="2" inkscape:window-height="1057" inkscape:window-maximized="0" inkscape:window-width="1918" inkscape:window-x="1920" inkscape:window-y="0" inkscape:zoom="1.4" pagecolor="#ffffff" showgrid="false">
	</sodipodi:namedview>
<g id="layer1" transform="translate(331.57583,91.272936)" inkscape:groupmode="layer" inkscape:label="Layer 1">
	<g id="g18002" transform="matrix(-0.94041949,0,0,-0.9529421,-323.42673,99.558043)">
		<g id="g65" transform="matrix(0.0862873,0,0,0.08367568,-64.305798,158.07239)">
			<g id="g221" transform="translate(-2138.0045,312.85465)">
				<path id="path9452" inkscape:connector-curvature="0" d="M-6531.2-740.4c-0.1,0.1-1.9,0.4-4.1,0.8c-3.4,0.4-6.2,1.5-10,3.5
					c-0.5,0.3-1.1,0.3-1.4,0.2c-0.8-0.5-6.8,7.1-6.2,7.8c0.2,0.2-0.1,0.4-0.6,0.7c-0.5,0.2-0.9,0.6-0.9,0.9c0,0.3-0.4,1.2-1,2
					c-1,1.5-1.3,2.6-2.3,9.1c-0.3,2-1.1,5.4-1.8,7.6c-1.5,4.8-2.6,16.5-2.4,26.5c0.1,3.7,0.1,7.3,0.1,7.9c0,0.6-0.1,6.5-0.2,13
					c-0.1,6.5,0,12.1,0.2,12.5c0.2,0.3,0.1,1-0.2,1.5s-0.4,1.1-0.2,1.5c0.2,0.3,0.3,6.4,0.2,13.4c-0.1,7-0.1,13.2-0.1,13.8
					c0.1,7.5,0.1,22.4-0.1,24.2c-0.1,1.2-0.4,5.2-0.6,8.7c-0.2,3.5-0.6,7.2-0.9,8.1c-0.3,0.9-0.5,3.1-0.5,5.1c0,1.9-0.2,4.9-0.5,6.8
					c-0.3,1.9-0.6,5.3-0.8,7.6s-0.4,4.9-0.5,5.9c-0.7,4.1-1.3,10.1-1.6,16.6c-0.2,3.9-0.5,7.2-0.6,7.4c-0.1,0.3,0.1,0.4,0.3,0.4
					c0.6,0,0.8,1.8,0.3,2.4c-0.2,0.2-0.4,5.8-0.5,12.6c-0.2,6.7-0.4,13.8-0.5,15.7c-0.3,4.6-0.9,21.1-0.8,22.5
					c0.4,5.8-0.2,11.2-1.3,13.7c-0.5,1.1-0.6,2.2-0.3,4c0.2,1.4,0.3,2.9,0.1,3.4c-0.2,0.4-0.4,4.2-0.5,8.4c-0.2,6.2-0.1,7.8,0.6,8.9
					c0.7,1.1,0.8,1.7,0.3,3.1c-0.3,1-0.6,3.8-0.6,6.4c0,2.5-0.2,5.3-0.5,6c-0.3,0.8-0.3,2.2-0.1,3.5c0.3,1.2,0.3,2.4,0.1,2.7
					c-0.2,0.3-0.4,3.1-0.5,6.2c-0.1,3.1-0.3,7.8-0.4,10.5c-0.5,9.9-0.4,14,0.5,15.5c0.2,0.3,1.2,0.9,2.3,1.2
					c1.7,0.6,2.1,0.6,3.2-0.6c1-1,1.2-1.7,1-2.8c-0.6-2.5-0.1-34.6,0.8-50c0.8-13.3,0.9-14.4,1.8-20.8c0.4-3.3,1.1-9.2,1.5-13.2
					c0.3-4,1-8.5,1.4-10c1.1-3.6,1.8-7.3,2.2-10.8c0.2-1.6,0.3-3.4,0.4-4.2c0.1-0.8,0.4-2,0.7-2.8c0.3-0.8,1-3.1,1.6-5.2
					c0.5-2.1,1.2-3.8,1.5-3.8c0.2,0,0.3-0.2,0.1-0.5c-0.5-0.9,3.1-10.5,4.6-12.2c0.5-0.6,1-1.5,1-2c0-0.4,0.5-1.3,1.1-1.9
					s1.1-1.4,1.1-1.9c0-1.2,3.7-6.2,5.4-7.1c0.8-0.4,2.3-1.7,3.2-2.8c1-1.1,2.3-2,2.7-2c0.5,0,1.9-0.4,3.3-0.9c1.4-0.5,2.8-1,3.2-1
					c0.4-0.1,1.7-0.6,2.9-1.1c1.1-0.5,2.6-0.9,3.2-0.8c0.6,0.1,1.4-0.1,1.7-0.5c0.9-1.2,10.2-1,15.1,0.3c7.2,1.9,13.2,4.8,14.6,7.1
					c0.5,0.8,1.2,1.4,1.5,1.4c0.8,0,2.4,2.2,3.8,5.1c0.5,1.1,1.5,2.6,2.3,3.4c0.7,0.8,1.7,3,2.1,4.8c0.5,1.8,1.4,4.2,1.9,5.5
					c0.6,1.2,1,2.6,1,3.1c-0.1,1,0.3,2.5,1.1,4.1c0.3,0.5,0.4,1.4,0.3,2c-0.1,0.6,0.2,1.4,0.6,1.8c0.6,0.6,1,2.7,0.8,4.2
					c0,0.2,0.5,1.8,1.2,3.5c1.2,2.8,2.6,8.2,2.4,9.2c0,0.2,0.1,0.8,0.3,1.2c0.6,1.5,1.6,5.8,1.5,7c0,0.6,0.5,3.1,1.1,5.5
					c0.6,2.4,1,4.8,0.9,5.2c-0.2,0.4-0.1,1,0.2,1.1c0.2,0.2,0.6,2,0.8,4.1c0.2,2.1,0.7,4.8,1.1,6c0.4,1.2,0.8,5,0.8,8.4
					c0.1,3.4,0.3,7.7,0.5,9.6c0.3,1.9,0.3,3.6,0,3.9c-0.2,0.3-0.2,0.9,0,1.4c0.9,1.7,1.2,6.6,1.5,19.2c0.1,7,0.3,14.3,0.5,16.3
					c0.1,2,0.3,6.3,0.4,9.6c0.1,3.3,0.3,6.2,0.5,6.6c0.3,0.4,1.2,0.7,2.2,0.7c2.3,0,3.8-1.6,3.2-3.5c-0.2-0.7-0.4-3.9-0.3-7.1
					c0-3.2-0.2-6.4-0.5-7.2c-0.3-0.7-0.6-7.7-0.7-15.5c-0.2-7.8-0.4-15.3-0.5-16.7s-0.5-6.1-0.9-10.4c-0.3-4.3-0.6-9-0.8-10.4
					c-0.4-5.7-2.6-20-3.1-20.6c-0.3-0.4-0.4-0.9-0.3-1.1c0.1-0.2-0.1-1.6-0.5-3.2c-0.4-1.6-0.8-3.5-0.8-4.2c0-0.7-0.3-2.1-0.8-3.1
					c-0.4-1-0.9-2.6-1-3.5c-0.9-5.4-1.5-8.4-2.9-12.4c-0.8-2.5-1.5-4.9-1.5-5.3c-0.1-0.5-0.3-1.1-0.4-1.4c-0.2-0.3-0.6-2.1-1-3.9
					s-1-3.9-1.4-4.5c-0.4-0.6-1-2.6-1.3-4.5c-0.9-4.7-8.4-16.6-12.2-19.5c-8.2-6.2-17.8-9.5-27.6-9.5c-7.8,0-22.6,4.9-28.3,9.5
					c-2.4,2-7.1,7-7.1,7.6c0,0.3-0.3,1-0.8,1.4c-0.4,0.5-1.3,2-2,3.3c-1.1,2.1-1.1,2.5-0.5,2.9c0.7,0.4,0.6,0.6-0.2,0.6
					c-1.4,0-3.7,4.4-5.4,10.1c-4.4,15.9-4.9,15.3-4.5-4.9c0.2-8.6,0.4-17.1,0.6-18.9c0.1-1.9,0.3-4.8,0.4-6.5
					c0.6-9.8,1.4-18.1,1.8-18.7c0.2-0.4,0.4-1.7,0.5-2.9c0.1-2.2,1.1-15.4,1.5-18.6c0.1-1,0.4-4.7,0.5-8.4c0.2-3.7,0.5-8.4,0.6-10.4
					c0.2-2,0.3-5.7,0.2-8.2c-0.2-24.7-0.1-85.6,0.2-88.3c0.4-3.8,0.9-6.9,1.4-8.2c0.2-0.4,0.3-1.6,0.2-2.4c-0.1-0.8,0.2-2.1,0.6-2.8
					c0.4-0.7,1.1-3.3,1.5-5.7s1.4-6,2.2-7.7c0.8-1.7,1.4-3.3,1.2-3.5c-0.2-0.2-0.1-0.3,0.3-0.3c0.3,0,1.3-1.1,2.2-2.5
					c1.3-1.9,2.2-2.5,3.7-2.9c1.1-0.2,2.5-0.7,3.1-1c1.6-0.9,9.4-2.5,11.6-2.4c2.7,0.2,9.4,1.3,12.3,2.1c4.1,1,9.4,4.1,12.8,7.5
					c1.8,1.7,4.2,3.9,5.3,4.8c4.3,3.3,8.5,9.3,8.5,12.1c0,1,0.4,2,0.8,2.4c0.4,0.4,0.6,0.9,0.5,1.2c-0.2,0.3-0.1,0.5,0.2,0.5
					c0.3,0,1.4,2,2.4,4.4c1.6,3.6,2.1,5.6,2.5,10c0.3,3.1,0.5,7.1,0.4,8.9c-0.2,3.7,0.5,5.3,2.3,5.3c0.5,0,1.3-0.4,1.8-1
					c0.8-0.9,0.9-2.4,0.8-10.9l-0.1-9.8l-2.8-5.9c-1.6-3.3-2.9-6.4-2.9-6.9s-0.4-1-0.9-1.1c-0.5-0.2-1.6-1.7-2.4-3.4
					c-2.1-4.3-11.8-13.8-19.2-18.7c-2.5-1.7-4.2-2.4-12.9-5.1c-1.5-0.4-3.3-0.7-4.1-0.6c-0.8,0.2-1.6,0.1-1.9-0.2
					C-6525.4-740.1-6530.9-740.8-6531.2-740.4L-6531.2-740.4z"/>
				<g id="g190">
					<path id="path9456" inkscape:connector-curvature="0" d="M-6351-676.4c0,0.4,0.4,0.8,0.8,0.8s0.8-0.4,0.8-0.8s-0.4-0.8-0.8-0.8
						S-6351-676.9-6351-676.4z"/>
					<path id="path9458" inkscape:connector-curvature="0" d="M-5886.2-684.8c-6.6,1-11.1,5.4-23.7,22.9c-1.1,1.6-3.7,4.8-5.8,7.2
						c-3.9,4.6-4.6,6.4-2.5,6.9c1.2,0.3,5.2-1.6,5.2-2.5c0-0.2,0.5-1,1.1-1.6c1.8-2,6.5-8.7,6.5-9.2c0-0.3,3.6-4.2,7.9-8.7
						c6.3-6.5,8.3-8.2,10.1-8.7c2.4-0.6,11-0.6,12.3,0.1c2.4,1.2,4.5,2.2,5,2.2c0.3,0,1.9,1,3.7,2.1c2.9,1.9,4.6,3.8,4.3,4.8
						c-0.1,0.2,0.6,0.8,1.5,1.3c0.9,0.5,1.6,1.1,1.4,1.3c-0.1,0.2,0.6,2.1,1.7,4c1,2,2.1,4.6,2.4,5.6c0.3,1.1,0.6,2.4,0.8,2.8
						c0.1,0.4,0.7,2.4,1.3,4.2c0.8,2.2,1.1,4.7,1.1,7.5c0,3.4,0.2,4.3,1.1,5.2c1.6,1.7,3.4,1.5,4.5-0.6c0.9-1.6,0.9-2.1,0.3-6.1
						c-0.9-5.9-1.7-9.6-2.5-11.8c-0.4-1-0.6-2.1-0.4-2.4c0.3-0.5-3.1-8.3-5.8-13c-1-1.7-6.3-7-7.1-7c-0.2,0-0.6-0.3-0.8-0.7
						c-0.6-1-7.2-4.1-8.6-4.1c-0.7,0-1.2-0.2-1.2-0.5C-5872.4-684.3-5882.6-685.3-5886.2-684.8L-5886.2-684.8z"/>
					<path id="path9460" inkscape:connector-curvature="0" d="M-6014.3-678.4c-1.5,0.6-3.1,1.1-3.6,1.1c-0.5,0-1.4,0.4-2,1.1
						c-0.5,0.6-1.6,1.2-2.3,1.3c-0.7,0.2-2.2,1-3.2,1.7c-1,0.8-2.8,2-3.9,2.6c-2.4,1.4-10.2,9.4-13.4,13.7c-1.2,1.6-2.3,3.8-2.5,4.7
						c-0.3,1.7-0.3,1.8,1.3,1.8c1.1,0,1.9-0.4,2.3-1.1c0.3-0.6,0.9-1.1,1.4-1.1c0.4,0,1.3-0.8,2-1.9c2-2.9,7-8,9.5-9.6
						c1.3-0.8,2.4-1.9,2.6-2.3c0.2-0.4,0.6-0.8,1.1-0.8s1.4-0.5,2-1.1c0.6-0.6,3.2-2.1,5.7-3.1c4.1-1.9,5.2-2.1,10.6-2.3
						c3.8-0.2,6.6-0.1,7.3,0.3c0.6,0.3,2.8,1.1,4.6,1.7c3.4,1.1,9.2,5.1,9.2,6.3c0,0.3,0.7,1.5,1.6,2.6c2.7,3.6,9.6,18.7,9,19.7
						c-0.5,0.7,1.8,1.7,4,1.7c2.3,0,2.5-1.9,0.8-6c-0.8-1.8-2.1-5.2-3-7.5c-2-5.6-3.8-8.8-7.3-13c-4.9-5.9-5.5-6.4-11.2-8.9
						l-5.5-2.5l-7.3-0.1C-6010.3-679.5-6012-679.3-6014.3-678.4z"/>
					<path id="path9462" inkscape:connector-curvature="0" d="M-6112.7-670.8c-2.6,0.4-5.4,0.8-5.9,1.1c-2.9,1.1-10.5,5.2-12.4,6.6
						c-1.1,0.8-2.3,1.6-2.6,1.6c-0.8,0-9.6,8.5-9.6,9.3c0,1.1,2.4,1.3,4.4,0.4c1-0.4,3-1.7,4.5-2.9c6-4.7,7.1-5.5,10.7-7.3
						c2.7-1.4,5.3-2.2,9-2.8c5.2-0.8,11.6-0.6,12.2,0.4c0.2,0.3,1.7,1.2,3.4,2c2.3,1.2,3.9,2.6,6.3,5.6c1.8,2.2,3.4,4.1,3.7,4.1
						c0.2,0,0.7,1,1.1,2.1c0.6,2,3.3,6.4,5.2,8.7c0.9,1.2,3.4,1.3,4.3,0.3c1.1-1.1,0.8-2.5-1.6-6.1c-1.2-1.9-2.5-4.1-2.8-4.9
						c-1.8-4.2-5.4-9.1-7.9-10.8c-1.4-1-2.8-2.1-2.9-2.5c-0.2-0.4-0.6-0.8-1.1-0.8c-0.4,0-0.8-0.2-0.8-0.4c0-0.5-3.7-2.5-4.8-2.6
						c-0.4-0.1-0.9-0.3-1.1-0.7C-6102.1-671.3-6107.4-671.5-6112.7-670.8z"/>
					<path id="path9468" inkscape:connector-curvature="0" d="M-5809.5-620.3c-0.3,0.8-5.2,1.3-19.1,1.7
						c-20.3,0.7-24.8,0.9-29.2,1.5c-3.1,0.4-15,0.6-35.6,0.6c-18.6-0.1-32.1,0.1-33.8,0.4c-1.5,0.3-5.4,0.7-8.5,0.8
						c-3.2,0.2-6.1,0.4-6.4,0.7c-0.3,0.2-6.5,0.5-13.7,0.6c-7.2,0.1-14.1,0.3-15.2,0.6c-1.2,0.2-15,0.4-30.8,0.6
						c-15.7,0.1-30.5,0.4-32.7,0.7c-2.2,0.2-5.5,0.3-7.4,0.1s-9.6-0.4-17.3-0.5c-7.7-0.1-15.5-0.2-17.2-0.3
						c-1.8-0.1-5.1,0.2-7.3,0.7c-3.2,0.7-6,0.8-13.4,0.5c-5.2-0.2-9.6-0.4-9.7-0.4c-0.2-0.1-0.6,0-0.9,0.1
						c-0.5,0.2-3.9,0.3-15.7,0.7c-12.3,0.4-17.3,0.8-19.2,1.7c-1.5,0.7-2.7,0.7-5.5,0.3c-3-0.4-3.9-0.4-5.6,0.4
						c-2.5,1.2-2.5,2.4,0.1,4.9c1.7,1.6,1.9,1.7,6.3,1.6c5.1-0.1,12.2-0.9,16.7-1.9c1.6-0.3,4.7-0.7,6.8-0.8
						c2.1-0.1,5.5-0.3,7.6-0.5c5.6-0.5,35.1-0.9,58.4-0.8c39.4,0.2,63.8-0.1,68.4-0.6c2.5-0.3,6.6-0.5,9.2-0.4
						c8.6,0.2,35.4-0.7,41.4-1.5c3.3-0.4,6.4-0.8,7-0.8c0.6-0.1,17-0.2,36.5-0.4c40.1-0.3,46.5-0.4,51.7-1c2-0.2,8.5-0.5,14.5-0.7
						c5.9-0.2,13.3-0.4,16.3-0.7c5.8-0.4,7.7,0.1,7.7,2.1c0,0.5,0.4,1.6,0.9,2.6c1.5,2.7,2.5,9,2.8,16.9c0.3,7.9,0.3,8.4,0.2,35.5
						c0,10,0.1,18.4,0.3,18.7c0.2,0.3,0.4,4.5,0.6,9.4c0.2,4.9,0.4,9.8,0.5,10.9c0.3,2.8,0.3,21.8,0,24.1c-0.2,1.1-0.1,2.2,0.1,2.5
						c0.7,1.1,0.8,9.2,0.1,9.6c-0.4,0.3-0.5,1.5-0.2,3.9c0.5,4.9,0.6,9,0.1,13.8c-0.5,5.7-0.5,14.5,0.2,20c0.3,2.5,0.8,7.4,1.1,11
						s0.9,7.9,1.2,9.6c0.3,1.7,0.5,3.5,0.5,3.9c-0.3,2.1-0.2,5.7,0.3,9.6c0.3,2.3,0.6,5.7,0.6,7.4c0,1.7,0.2,3.8,0.5,4.6
						c0.7,1.9,1.2,10.8,1.1,19.5c-0.3,16.9-0.2,33.3,0.2,38.8c0.9,14.7,1.1,26.1,0.4,27.8c-0.4,1.1-0.6,4.3-0.5,9.6
						c0.2,8.3,0.2,14.8,0,18.6c-0.2,2.8,0.9,21.7,1.5,26.8c0.3,2.1,0.3,5.6,0.1,7.9c-0.2,2.3-0.2,5.7-0.1,7.5
						c0.3,3.5,0.4,8.5,0.3,16.3c0,2.5,0,6.4,0,8.7c0,2.3-0.1,5.3-0.3,6.7c-0.2,1.4-0.1,3.1,0.2,3.8c0.4,0.8,0.4,2.9,0.1,6
						c-0.3,2.6-0.3,7.3-0.2,10.6c0.2,3.3,0.5,9.4,0.8,13.8c0.2,4.3,0.6,8.4,0.8,9c0.2,0.6,0.4,5.1,0.4,9.8c0,12,0.6,21.1,1.6,24.7
						c0.4,1.7,0.9,5.7,1.1,9c0.1,3.3,0.5,7.3,1,9c0.4,1.7,0.9,5,1.1,7.3c0.2,2.3,0.6,5,0.9,5.9c0.8,2.8,1.4,15.6,1,24.2
						c-0.1,2.2-0.1,4.2,0.1,4.5c0.5,0.8,1.2,33.5,1.1,45.5c-0.1,5.8-0.4,11.9-0.6,13.5c-0.6,3.4-0.9,39.6-0.3,48.9
						c0.2,3.7,0.6,7.4,0.9,8.2c0.3,0.8,0.6,3.4,0.8,5.9c0.2,2.5,0.4,5.7,0.7,7.3c0.2,1.5,0.4,7.2,0.3,12.5c-0.1,9.5-0.2,9.8-1.6,12
						c-0.9,1.5-1.3,2.6-1.1,3.4c0.2,0.7,0.1,1.1-0.3,1.1c-0.4,0-0.5,0.2-0.3,0.3c0.2,0.2-0.4,1.3-1.4,2.5c-3.5,4.2-3.9,4.9-3.7,5.6
						c0.1,0.3-0.2,0.6-0.6,0.6c-0.4,0-1,0.3-1.2,0.8c-0.2,0.4-1.2,1.2-2.2,1.7c-1,0.5-1.8,1.1-1.8,1.4c0,0.3-1.5,0.6-3.2,0.8
						c-1.7,0.2-4.2,1-5.5,1.7c-2.4,1.4-7.8,2-19.9,2.4c-2.8,0.1-8.4,0.4-12.4,0.7c-4,0.3-9,0.7-11.1,0.8c-2.1,0.2-5.9,0.5-8.6,0.8
						c-18.3,2.2-98.6,3.1-137.6,1.5c-6.1-0.3-20.6,0.3-26.8,1.1c-0.9,0.1-5.6,0.4-10.5,0.8c-8.8,0.6-15.1,1.2-21.2,2.2
						c-1.7,0.3-7.2,0.6-12.3,0.6c-5.1,0.1-12.3,0.4-16.1,1c-3.8,0.4-11.4,1.1-16.9,1.3c-5.5,0.3-11.5,0.7-13.2,1.1
						c-1.8,0.3-7.8,0.6-13.5,0.6c-5.6,0-12.7,0.3-15.7,0.6c-5.5,0.5-24.5,1.3-31.1,1.2c-1.9,0-8.6-0.1-14.9-0.2
						c-9.7-0.1-28.7,0.4-50.8,1.4c-3,0.2-7.1,0.5-9.2,0.8c-2.3,0.3-6.6,0.4-11.1,0.1c-4-0.2-8.4-0.2-9.7,0.1
						c-2.9,0.6-23.5,0-27.3-0.8c-1.5-0.3-4.3-0.6-6.2-0.7c-11.5-0.8-13.6-1-22.4-2.4c-2.2-0.3-36.4-1.1-43-0.9
						c-12.4,0.2-31,1.3-32.3,1.9c-2.5,1.1-31,1.6-32.2,0.6c-0.4-0.4-1.4-0.4-2.8-0.1c-1.9,0.4-3.9,0.3-5.7-0.3
						c-0.4-0.2-4.5-0.4-9.2-0.6c-11.5-0.4-11.1-0.4-11.7-1.1c-0.3-0.4-1.2-0.8-2.1-1c-0.9-0.2-1.7-0.9-2-1.7
						c-0.3-0.8-0.9-1.5-1.5-1.7c-0.8-0.3-3-3.2-3.2-4.3c0-0.2-0.3-1-0.6-1.9c-1.7-3.9-1.8-4.9-1.9-8.8c-0.1-4.6-1.3-7.9-2.8-7.9
						c-0.9,0-0.9-3,0.2-20.5c0.4-7.8,0.4-17.4-0.1-18.2c-0.2-0.3-0.3-1.7-0.3-3c0.1-1.3-0.1-6.7-0.2-12c-0.7-22.7-0.9-52.5-0.4-55.1
						c0.3-1.5,0.3-3,0.1-3.4c-0.2-0.3-0.6-2.4-0.8-4.5c-0.6-8.1-1.2-13.5-1.6-14.2c-0.6-1.1-0.9-4.6-1.2-15.9
						c-0.5-21-0.7-25.7-1.3-40.2c-0.3-8-0.7-21.6-0.8-30.1c-0.2-8.5-0.4-17.8-0.5-20.5c-0.4-6-0.3-13.2,0.1-13.9
						c0.2-0.3,0.1-1.3-0.3-2.3c-0.8-2.5-1.2-40.3-0.5-44.6c0.3-1.8,0.6-6.5,0.8-10.3c0.1-3.9,0.6-9.4,1.1-12.3
						c0.9-5,0.9-5.3-0.1-6.4c-1.4-1.6-4.2-1.2-5.6,0.7c-0.6,1-0.9,1.7-0.5,1.9c0.7,0.4,0.7,5.5,0,6.2c-0.3,0.3-0.3,1.7-0.1,3.7
						c0.5,3,0.2,6.3-0.8,7.9c-0.3,0.4-0.5,8.1-0.6,17.1c-0.1,8.9-0.2,17-0.2,18c-0.1,3.1,0.4,19.7,0.6,19.7c0.1,0,0.2,2.8,0.3,6.2
						c0.1,3.4,0.3,8.7,0.4,11.8c0.2,3.1,0.4,15.2,0.6,27c0.2,11.8,0.4,24.8,0.6,29c0.4,10.7,0.6,17.5,1,32.9
						c0.2,7.4,0.5,13.9,0.6,14.3c0.2,0.4,0.3,1.3,0.2,1.8c-0.1,0.5,0.4,3.7,1,7c1.3,7.4,1.4,9.7,1.1,24.6
						c-0.1,2.8,0.1,10.3,0.3,16.9c0.2,6.5,0.5,17.6,0.6,24.7c0.2,13.3,0.6,22.8,1.1,28.5c0.2,1.8,0.1,4.3-0.3,5.6
						c-0.4,1.3-0.7,7-0.8,12.8c-0.1,7.3-0.4,11-0.9,12.1c-0.6,1.5-0.6,1.7,0.8,2.9c0.9,0.7,1.9,1.3,2.3,1.3c0.6,0,0.8,0.8,0.8,3.8
						c0,3.1,0.2,3.9,1,4.6c0.6,0.4,1,1,0.8,1.2c-0.2,0.3,0.1,1.1,0.5,1.9c0.5,0.7,0.9,2.1,0.9,3c0,1.1,0.4,2,1.4,2.8
						c0.8,0.6,1.4,1.5,1.4,2c0,1.1,2.5,3.2,3.8,3.2c0.5,0,1.4,0.6,1.8,1.3c1,1.6,3,2.6,4.9,2.6c0.7,0,2.7,0.4,4.4,0.9
						c1.7,0.4,5.1,1,7.5,1.1c2.4,0.1,5.2,0.3,6.4,0.6c1.5,0.3,2.2,0.2,2.5-0.3c0.3-0.6,1.2-0.6,3.6-0.2c5.4,0.9,30.8,0.2,45.6-1.2
						c4.9-0.4,13.2-1,18.5-1.1c5.4-0.1,9.8-0.4,9.9-0.5c0.1-0.2,3.6-0.1,7.6,0.1c4.1,0.2,9.6,0.4,12.3,0.4c2.7,0.1,6.7,0.4,8.9,0.7
						c2.3,0.3,5.8,0.5,8.1,0.3c2.3-0.2,6.3-0.1,8.9,0.3c2.7,0.4,7.9,0.9,11.6,1.2c3.7,0.3,8,0.7,9.5,0.8c1.5,0.2,4.4,0.4,6.5,0.6
						c2.1,0.1,6.5,0.4,9.7,0.6c3.3,0.2,6.4,0.4,7,0.3c0.6-0.1,6.8-0.1,13.8-0.1s14.8-0.2,17.3-0.6c12.8-1.5,33.2-2.2,64.8-2.2
						c16.8,0,32.1-0.2,34.9-0.6c11.4-1.3,17.1-1.8,17.6-1.5c0.3,0.2,4.4,0.1,9.1-0.3c4.7-0.3,10.6-0.7,13.1-0.9
						c2.5-0.2,9.5-0.7,15.4-1.1c5.9-0.4,14.1-1,18.1-1.1c14.2-0.4,20.3-0.9,23.8-1.7c1.9-0.4,7.2-0.9,11.6-1.1
						c4.5-0.2,10.9-0.7,14.3-1.2c9.3-1.3,21.8-1.3,73.6,0.1c8.5,0.2,13.2,0.2,14.2-0.3c1-0.4,1.9-0.4,3.1,0c1.1,0.4,2.2,0.4,3.7,0
						c1.3-0.4,12.4-0.6,30.2-0.6c21.3-0.1,29.5-0.2,34-0.9c3.3-0.4,6.5-1,7.1-1.1c0.6-0.2,3.7-0.4,7-0.6c3.2-0.1,7.4-0.4,9.2-0.8
						c2.9-0.6,6.8-0.7,27.9-1.3c2.9-0.1,5.3-0.3,5.3-0.6c0-0.3,0.2-0.3,0.4-0.2c0.7,0.4,2.8-1.3,2.8-2.2c0-0.7,0.7-0.8,3.1-0.8
						c4.2,0,6.6-0.5,7-1.6c0.2-0.6,1.2-1.7,2.2-2.6c3.8-3.4,6.1-6.2,7.1-8.5c0.6-1.3,1.4-2.6,1.8-2.8c0.4-0.2,0.8-0.6,0.8-0.9
						c0-0.2,0.4-1.2,0.9-2.2c0.5-1,1-2.6,1.1-3.5c0.1-1,0.3-2.1,0.5-2.5c0.5-1.3,0.6-12.1,0.2-18c-0.3-2.9-0.6-7.5-0.8-10.1
						c-0.2-2.6-0.8-7.3-1.2-10.4c-1.2-7.5-1.4-45-0.3-60.2c0.8-11,0.9-28.1,0.4-39.9c-0.2-3.7-0.3-12.3-0.3-19.1
						c0-9.2-0.2-13.4-0.9-16.6c-0.5-2.3-0.9-5.3-0.8-6.7c0-1.4-0.2-2.8-0.4-3.1c-0.5-0.7-1.1-5.8-1.4-11c-0.1-1.7-0.4-3.8-0.8-4.8
						c-0.3-0.9-0.8-3.8-0.9-6.5c-0.2-2.6-0.5-5.9-0.8-7.3c-0.9-4.3-1.1-8.9-1.4-20c-0.1-5.9-0.6-13.9-1.1-18
						c-0.6-5.3-0.9-11.9-0.9-24.2c0-9.3,0-19.7,0-23.1c-0.1-8-0.1-9.7,0.1-15.2c0.2-6.2-0.4-23.3-1.1-31.8
						c-0.3-3.9-0.5-9.4-0.5-12.4c-0.2-26.3-0.1-35.4,0.3-40.8c0.6-8.7,0.3-23.7-0.9-33.7c-0.3-2.5-0.4-5.3-0.3-6.2
						c0.5-3.8,0.8-13.7,0.3-13.9c-0.3-0.1-0.3-1.4-0.1-3c0.6-3.9,0.6-12.6,0-18c-0.3-2.5-0.6-6.9-0.8-9.8c-0.2-2.9-0.4-5.5-0.5-5.7
						c-0.1-0.2-0.4-2.8-0.5-5.7c-0.2-2.9-0.5-6.8-0.8-8.7c-0.3-1.9-0.6-4.9-0.9-6.7c-0.2-1.9-0.4-4.3-0.6-5.3
						c-0.9-7.6-1.5-23.9-0.9-25.3c0.2-0.4,0.3-7,0.3-14.6c0-18.2,0-20.6,0.3-23.6c0.3-3.9,0.2-6.4-0.4-14.9
						c-0.3-4.3-0.6-12.3-0.8-17.7c-0.1-5.4-0.3-10.5-0.5-11.2c-0.6-2.4-0.7-10.1-0.2-16.1c0.4-4.4,0.3-6.2-0.3-8.3
						c-0.6-2.2-0.6-2.9-0.1-3.9c0.8-1.5,1-22.9,0.2-22.9c-0.2,0-0.3-1.1-0.1-2.4c0.2-1.5,0.1-3.1-0.3-4.1c-0.4-0.9-0.8-3-1.1-4.7
						c-0.9-7-1.5-9.2-2.9-11.2c-0.4-0.4-1-1.7-1.4-2.8c-1-3-2.4-3.9-5.5-3.9C-5808.3-621.1-5809.2-620.8-5809.5-620.3L-5809.5-620.3
						z"/>
					<path id="path9470" inkscape:connector-curvature="0" d="M-5990.9-554.1c-0.7,0.3-1.2,0.8-1.2,1.1c0,0.3-0.6,0.6-1.4,0.6
						s-2.9,0.7-4.8,1.5c-2.4,1.1-3.9,1.4-5.6,1.2c-1.3-0.1-2.5-0.1-2.6,0.2c-0.2,0.3-6.2,0.4-13.4,0.4c-7.2-0.1-14.5,0-16.3,0.1
						s-7.7,0-13.2-0.2c-5.5-0.3-12.2-0.6-14.9-0.7c-5.6-0.2-5.2-0.2-21.1-0.2c-6.5,0-13.6-0.1-15.7-0.2c-4.7-0.2-6.2,0.6-6.2,3.3
						c0,3.3,1.6,3.6,15.4,3.3c21.5-0.4,30.2-0.3,37.3,0.3c9.1,0.9,17.9,1,23,0.3c2.2-0.3,5.9-0.4,8.3-0.2c8.6,0.7,24.3-0.1,26.4-1.5
						c0.4-0.3,1.6-0.7,2.8-0.8l2.1-0.4l-0.3,6.1c-0.2,3.3-0.5,6.5-0.6,7c-0.2,0.4-0.1,1.2,0.2,1.6c0.3,0.3,0.6,2.8,0.6,5.3
						c0.1,2.5,0.2,5.4,0.3,6.4c0.3,2,1,17.1,0.9,18.9c-0.1,0.7-0.1,1.7-0.1,2.2c0.1,0.6,0.1,9.2,0.2,19.3
						c0.1,10.6,0.3,18.6,0.6,19.1c0.3,0.4,0.5,3.3,0.5,6.3c0,3,0.2,5.6,0.4,5.8c0.2,0.2,0.2,1.5,0,2.8c-0.1,1.3-0.1,2.9,0.2,3.5
						c0.6,1.4,0.6,1.9,0.3,3.5c-0.2,0.8-0.2,3.8,0,6.7c0.2,2.9,0.2,6-0.1,6.7c-0.3,0.8-0.3,1.6,0.1,2c0.3,0.4,0.4,1.8,0.3,3.1
						c-0.1,1.3-0.1,2.8,0.2,3.1c0.2,0.3,0.3,2.8,0.2,5.5l-0.2,4.9l-2.3,0.3c-2.6,0.4-11.5,0.8-21.1,1.2c-4.8,0.2-7.4,0.1-8.3-0.4
						c-0.8-0.4-1.4-0.4-1.6-0.2c-0.3,0.4-10.5,0.6-15.8,0.2c-0.8-0.1-6.2,0.1-12.2,0.3c-5.9,0.2-14.7,0.5-19.5,0.7
						c-4.8,0.1-9.6,0.3-10.8,0.4c-8.5,0.8-14.3,1.1-18.1,0.8c-0.4-0.1-1.8,0-3.1,0c-2.1,0.1-2.3,0.3-2.6,1.9c-0.3,1.2-0.2,2,0.4,2.6
						c0.8,0.8,6.9,2.5,7.5,2.1c0.2-0.1,2.2-0.3,4.6-0.5c2.4-0.2,5.3-0.4,6.5-0.6c2.9-0.4,13-1,15.7-1c1.2,0,3.6,0.1,5.4,0.1
						c1.8,0.1,6.2-0.1,9.7-0.3c6.8-0.4,31.7-0.3,37.3,0.1c1.8,0.2,4.2,0.3,5.4,0.3c2.7,0.1,16.4-1.1,17.9-1.5
						c0.6-0.2,1.4-0.1,1.6,0.3c0.2,0.3,0.8,0.4,1.3,0.3c0.5-0.2,1.4,0.1,1.9,0.5c1.2,0.9,1.2,1.2,0.6,21.1
						c-0.3,7.6-0.5,16.1-0.5,18.8c-0.1,2.8-0.3,5.4-0.5,5.8c-0.2,0.4-0.2,1.1,0.2,1.5c0.6,0.7,1.4,21.7,1.4,33.8
						c-0.1,4.5-0.8,36.9-0.9,39.1c0,0.4,0.1,3.1,0.3,5.9c0.2,2.8,0.4,6.1,0.4,7.3l0.2,2.2l-6.4,0.9c-3.5,0.6-9.1,1.1-12.3,1.3
						c-3.2,0.2-6.4,0.6-7.1,1c-0.6,0.4-2.9,0.7-5,0.7c-9.6-0.1-27.9-0.8-30.8-1.2c-1.8-0.2-4.1-0.4-5.1-0.3
						c-1.9,0.2-21.8,0.3-38.9,0.3c-4.9-0.1-9.8-0.1-10.9-0.1c-2.3,0.1-3,1.2-1.7,3.2c1.6,2.6,3.5,2.9,15.4,2.9
						c6.1,0,14.5,0,18.9,0.1c4.3,0.1,10.4-0.1,13.5-0.3c3.5-0.2,6.9-0.2,8.9,0.2c1.8,0.3,5.1,0.6,7.3,0.6s5.3-0.1,6.8-0.1
						c1.5,0,6.5,0.2,11.1,0.4c5.3,0.2,10.1,0.2,13-0.2c20.5-2.8,21.8-2.9,22.3-2.4c2,2.1,8.8-1.2,7.6-3.7
						c-0.3-0.7-0.4-13.3-0.3-32.8c0.3-37.9,0.3-42.1-0.2-48.3c-0.4-5.7-0.5-26.7-0.1-32.3c0.1-2.2,0-4.2-0.3-4.6
						c-0.3-0.4-0.3-1.5,0.1-2.8c0.3-1.3,0.4-6.8,0.3-14.2c-0.2-6.6-0.4-15.2-0.4-19.1c-0.1-3.9-0.3-9.7-0.5-12.9
						c-0.4-5.7-0.5-9.6-1.1-26.7c-0.1-4.3-0.4-9.5-0.6-11.5c-0.2-2-0.4-12.1-0.6-22.5c-0.1-10.3-0.4-23.8-0.5-29.8
						c-0.3-10.3-0.3-12.3-0.2-15.3c0-0.7,0.1-2.6,0.1-4.3c0-1.6,0.2-3.4,0.4-3.9c0.7-1.3,0.3-11.8-0.5-12.7
						C-5986.4-554.8-5989-554.9-5990.9-554.1L-5990.9-554.1z"/>
					<path id="path9472" inkscape:connector-curvature="0" d="M-6380.9-547c-0.5,0.6-7,1.9-7.7,1.5c-0.4-0.1-1.9,0.2-3.5,0.7
						c-1.6,0.5-2.9,0.8-3.1,0.6c-0.2-0.2-0.6,0.1-1.1,0.5c-0.5,0.5-1.3,0.7-2,0.6c-1.5-0.4-6.2,1.7-6.2,2.7c0,0.4-0.5,1.2-1.2,1.9
						c-1.9,1.7-3.5,3.9-3.9,5.2c-0.2,0.6-0.9,1.6-1.7,2.2c-0.8,0.6-1.3,1.6-1.3,2.5c0,0.7-0.5,2.2-1.2,3.3c-1.6,2.4-3.9,7.6-4.5,9.7
						c-0.2,1-0.5,1.9-0.7,2.2c-0.2,0.3-0.4,1.2-0.3,2.1c0,0.9-0.1,1.6-0.3,1.6c-0.9,0-3,6.1-2.8,7.8c0.1,0.4-0.2,1.1-0.4,1.5
						c-0.3,0.4-0.6,1.3-0.6,2.1c0,1.6-0.3,5.3-1,11.2c-0.3,2.3-0.4,4.4-0.3,4.6c0.2,0.2-0.1,0.6-0.4,0.7c-0.3,0.2-0.4,0.8-0.2,1.3
						c0.4,0.8,1,7.8,1.5,18.6c0.2,2.6,0.4,6,0.6,7.6c0.2,1.5,0.4,4.4,0.5,6.5c0.1,2,0.5,4.7,0.8,5.9c0.3,1.2,0.7,3,0.9,3.9
						c0.7,5.1,1.9,10.7,2.4,11.2c0.3,0.3,0.5,1,0.5,1.6c0,0.6,0.6,2.3,1.4,3.8c0.8,1.6,1.2,2.8,1,2.8c-0.2,0,0.2,0.8,0.8,1.8
						c0.6,1,0.9,2.2,0.8,2.6c-0.2,0.4,0,1.1,0.3,1.5c0.4,0.4,1.6,2.8,2.8,5.2c1.2,2.5,2.9,5.1,3.7,5.8s2,2.6,2.6,4
						c0.6,1.4,1.8,3.4,2.8,4.4c0.9,1,1.7,2.2,1.9,2.8s2.5,3,5.1,5.6c2.7,2.6,4.9,5.2,4.9,5.7c0,0.6,1,1.7,2.2,2.5
						c1.2,0.8,2.2,1.7,2.2,1.9c0,0.4,2.9,4,6.9,8.5c1.2,1.4,2.3,2.9,2.3,3.3c0,0.8,1.8,4.2,4.6,8.7c1,1.5,1.9,3.7,2.1,4.7
						c0.2,1.1,0.9,2.8,1.7,3.8c0.8,1,1.4,2.2,1.4,2.6c0,0.4,0.6,2,1.4,3.5c0.8,1.5,1.6,4.3,1.9,6.1c0.3,1.9,1,4.3,1.6,5.3
						c1.5,2.9,1.7,3.9,1.9,7.4c0.3,4,0.2,10.7-0.1,11.2c-0.1,0.2,0,1.8,0.2,3.5c0.3,2.4,0.2,3.4-0.3,3.8c-0.4,0.3-0.7,1.5-0.7,2.5
						c0,1-0.2,2-0.4,2.2c-0.2,0.2-0.5,1.5-0.6,3c-0.1,1.5-0.8,4.3-1.5,6.3c-0.8,2-1.7,4.9-2.2,6.5c-1,3.4-4.2,10.2-5.1,10.7
						c-0.3,0.2-1,1.4-1.5,2.6c-1.7,3.9-9.9,11.7-13.9,13.2c-0.9,0.3-2.1,1-2.6,1.6c-0.5,0.5-1.2,1-1.5,1c-0.3,0-1.8,0.6-3.4,1.4
						c-1.5,0.7-3.8,1.5-5.2,1.5c-1.4,0.1-2.7,0.4-3.1,0.8c-1,1-3.9,0.2-4.6-1.2c-0.3-0.7-0.8-1.2-1-1.1c-0.2,0.2-0.7-0.1-1.1-0.4
						c-0.4-0.5-1.1-0.6-1.8-0.3c-1.8,0.7-4.1,0.6-4.4-0.3c-0.2-0.4-0.6-0.8-0.9-0.8c-0.3,0-2-1-3.8-2.2c-3.7-2.5-4-2.6-5.4-1.3
						c-0.6,0.6-1.2,0.7-1.5,0.4c-0.3-0.3-1.3-0.5-2.2-0.3c-1.4,0.2-1.6,0.5-1.6,1.7c0,1.7,1,2.9,5.5,5.8c1.7,1.1,3.6,2.8,4.3,3.6
						c0.7,0.9,1.8,1.9,2.5,2.3c1.4,0.8,3.3,0.4,3.3-0.7c0-0.4,0.3-1,0.6-1.2c0.6-0.4,1.8,0.6,1.8,1.6c0,0.8,6.7,0.7,10.8-0.2
						c6.4-1.5,15.6-5.2,20.3-8.4c0.4-0.3,1.3-0.8,1.9-1.1c2.2-1,11.9-11.6,13-14.1c0.6-1.4,1.4-2.8,1.7-3.1c1-0.9,3.5-6.6,3.6-8
						c0.1-0.2,0.4-0.7,1-1.1c0.5-0.4,1.2-2.1,1.6-4.2c0.3-2,0.9-4,1.2-4.7c0.3-0.6,0.5-1.5,0.4-1.9c-0.1-0.4,0.2-1.1,0.5-1.5
						c0.6-0.7,1.4-4.6,2.1-10.1c0.3-2.6,0.4-12,0.2-17.6c-0.1-1.3-0.6-4.7-1.2-7.6c-0.6-2.8-1.2-6.2-1.4-7.5c-0.2-1.3-0.6-2.6-1-3
						c-0.4-0.3-0.8-1-0.8-1.5s-0.3-1.3-0.6-2c-0.4-0.7-0.7-1.7-0.8-2.4c-0.1-0.6-1.1-2.9-2.3-5.2c-1.2-2.2-2.2-4.4-2.2-4.8
						c0-0.4-0.4-1.2-0.9-1.6c-0.5-0.4-2-3.2-3.4-6.1c-2.4-5.1-3-6.2-5.8-9.2c-0.7-0.7-1.2-1.5-1.2-1.9c0-0.4-5-6.2-9.1-10.6
						c-0.6-0.7-1.2-1.9-1.4-2.6c-0.3-1-1.3-2.1-3-3.3c-2.9-1.9-6.3-5.5-7.8-8.3c-0.6-1-1.2-1.8-1.5-1.8s-0.4-0.4-0.4-1.1
						c0-0.6-1-2.2-2.2-3.6c-2.1-2.5-10.6-20.4-10.1-21c0.2-0.2-0.2-0.8-0.8-1.5c-0.6-0.6-1-1.6-0.8-2.1c0.1-0.6,0.1-1-0.2-1
						s-0.4-0.3-0.5-0.7c-0.1-1.2-0.7-4-1-4.9c-0.2-0.4-0.3-1-0.3-1.2c0.1-0.2-0.2-2-0.5-3.9c-0.5-3.3-1.3-9.7-1.8-14.8
						c-0.1-1.2-0.5-4-0.8-6.2c-1.1-7.1-1.4-26.2-0.4-33c0.9-6.2,2.6-12.8,4.6-18.2c0.2-0.6,0.8-2.5,1.3-4.2c0.5-1.7,1.6-4.3,2.4-5.7
						c0.8-1.5,2.4-4.3,3.6-6.4c3.6-6.4,7.9-9.7,13.1-10.1c1-0.1,2.1-0.4,2.4-0.7c0.4-0.3,2.4-0.9,4.5-1.2c12.8-2,18-2.3,20.8-1
						c1,0.4,3,1.3,4.3,1.9s2.6,1.3,2.9,1.7c0.2,0.4,0.8,0.7,1.2,0.7s1.6,0.8,2.7,1.7c1.6,1.5,2.2,1.7,3.8,1.5
						c3.5-0.6,4.5-3.1,2.3-5.3c-0.7-0.6-1.8-1.3-2.5-1.6c-1.8-0.6-4.9-2.5-4.9-3.1c0-0.3-0.8-0.7-1.7-0.8c-1-0.2-2.8-0.9-3.9-1.6
						c-1.9-1-2.7-1.1-7.6-0.7c-5.8,0.4-9.7,0.4-11.1,0.1C-6380.2-547.3-6380.7-547.2-6380.9-547L-6380.9-547z"/>
					<path id="path9474" inkscape:connector-curvature="0" d="M-6297-545.1c-1.7,0.8-1.9,1.2-2.2,3.7c-0.2,1.5-0.1,3.3,0.2,4
						c0.2,0.7,0.5,3,0.6,5c0.1,2,0.5,3.9,0.8,4.3c0.3,0.3,0.6,1.2,0.6,1.9c0,0.7,0.2,1.4,0.4,1.6c0.3,0.2,0.4,1.7,0.4,3.4
						c-0.1,1.7,0.1,3.1,0.3,3.1c0.8,0,2.2,6.1,2.2,9.3c0,1.9,0.4,4.8,0.8,6.5c0.4,1.7,0.8,3.7,0.8,4.2c0.1,1.9,0.6,10.6,0.8,12
						c0.1,0.8,0.5,2,0.9,2.7s0.5,1.7,0.4,2.1s0.1,2.4,0.6,4.3c0.5,1.9,0.8,4.5,0.8,5.7c0,1.2,0.3,2.8,0.7,3.4
						c0.8,1.2,1.6,4.5,2.5,9.5c0.3,1.5,1.1,4,1.8,5.6s1.5,3.6,1.7,4.4c0.2,0.9,1,2.9,1.9,4.5c0.9,1.6,1.6,3.3,1.6,3.8
						c0,0.4,0.3,1.1,0.6,1.5c0.7,0.7,3.2,6.9,3.2,7.9c0,0.4,0.5,1.3,1.2,2.1c0.6,0.7,2.1,3.5,3,6.1c1,2.5,2.1,4.9,2.3,5.2
						c0.2,0.3,0.4,1.1,0.4,1.7c0.1,3.1,4.1,11.4,7.1,14.4c1.3,1.3,3.6,3.1,5,3.9c1.5,0.8,3.2,1.7,3.9,2.1c1.8,1,7.1,1.9,9,1.5
						c1.7-0.3,3.5-0.9,5.5-1.7c0.6-0.2,1.4-0.4,1.6-0.5c0.3,0,1.1-0.4,1.9-0.9c6.4-4.2,8.5-5.5,8.8-5.2c0.8,0.9,9-7.3,9-8.9
						c0-0.5,0.3-1.1,0.5-1.2c0.8-0.5,6.6-12.7,6.3-13.1c-0.2-0.2-0.1-0.6,0.2-1c0.3-0.3,0.6-1.1,0.7-1.7c0.1-0.6,0.4-1.7,0.8-2.5
						c1.4-3.3,2.4-8.4,3.1-14.4c0.2-1.6,0.5-3.1,0.8-3.3c0.4-0.2,1.1,6.1,1.1,10.1c0.1,0.9,0.3,2,0.5,2.6c0.3,0.5,0.6,1.6,0.8,2.3
						c0.1,0.7,1.1,3.9,2.2,7.1s1.9,6.2,1.9,6.8c0,0.6,0.5,1.5,1.1,2.1c0.6,0.6,1.1,1.7,1.1,2.8c0,2,1.1,4.8,1.9,4.8
						c0.3,0.1,1.1,1.3,1.8,2.9c1.3,2.7,5.6,7.4,9,9.8c0.9,0.7,3,1.5,4.6,2c1.6,0.4,3.2,0.9,3.5,1.1c0.6,0.4,7-0.2,10.8-1.1
						c1.5-0.3,3.3-0.7,4.1-0.7c0.8-0.1,1.5-0.3,1.7-0.6c0.2-0.3,2.3-1.3,4.8-2.4c6.1-2.6,19-13.2,19-15.6c0-0.5,0.3-1.1,0.7-1.3
						c0.3-0.2,0.6-0.7,0.6-1c0.1-0.3,0.5-1.7,1.2-3.1c0.6-1.4,1.6-4,2.1-5.9s1.2-4.4,1.6-5.6c0.4-1.2,0.9-3.5,1.1-5.1
						c0.2-1.6,0.5-3.2,0.6-3.7c0.5-1.3,0.6-1.7,1.5-7.9c0.5-3.3,1.5-8.3,2.3-11.2c0.8-3.2,1.5-7.4,1.6-10.4c0.1-2.8,0.5-6.6,1-8.4
						c0.4-1.9,0.6-3.7,0.5-4.1c-0.2-0.4,0-1.1,0.4-1.6c0.4-0.4,0.5-1.5,0.3-2.4c-0.2-0.8,0.1-3.4,0.5-5.5c0.4-2.2,0.9-6.5,1-9.6
						c0.1-3.1,0.3-6.6,0.5-7.9c0.3-2,0.4-22,0.2-28.4c-0.1-1.4,0.1-3.1,0.3-3.9c0.5-1.9-0.1-2.8-2.4-3.4c-3.5-0.8-3.7-0.4-3.1,9.7
						c0.3,4.9,0.4,10.7,0.3,12.9c-0.5,8-2.4,28.3-3,31.9c-0.3,2-0.5,4.8-0.5,6.2c0,1.4-0.4,5.1-0.8,8.2c-0.5,3.1-1,6.6-1,7.9
						c-0.2,2.5-1.1,7.4-2.3,12.1c-0.4,1.7-0.9,4.6-1,6.5c-0.1,1.8-0.4,4-0.8,4.8c-0.6,1.7-1.3,4.2-2.6,10.3c-0.5,2.5-1.2,5-1.6,5.6
						s-0.9,2.1-1.1,3.3s-0.9,3.1-1.5,4.2c-3.1,5.5-4.5,7.4-5.4,7.7c-0.5,0.2-2.2,1.5-3.6,3c-2.5,2.5-6.9,5.7-7.9,5.7
						c-0.3,0-1.5,0.5-2.8,1.1c-1.2,0.6-2.8,1.1-3.5,1.1c-0.8,0-2.4,0.5-3.8,1.1c-2.1,1-3.1,1.1-7,0.8c-2.5-0.2-4.7-0.7-5-1.1
						c-0.3-0.3-1.2-0.8-2.1-1.1c-1.5-0.4-7.4-6-7.4-7c0-0.2-0.7-1.4-1.6-2.6c-0.9-1.2-1.6-2.4-1.6-2.6c0-0.2-0.4-1.2-0.8-2.3
						c-0.4-1-0.9-2.7-1.1-3.8c-0.6-3.1-2-7.3-2.4-7.3c-0.2,0-0.4-0.6-0.4-1.2c-0.1-1.6-1.8-7.4-2.4-8.2c-0.6-0.9-1.7-7.2-1.8-10.9
						c-0.1-3.4-0.6-5.7-1.6-6.3c-1-0.7-3-0.5-3.4,0.4c-0.2,0.6-0.9,0.8-2.1,0.6c-1.9-0.3-3.5,0.6-3.7,1.9c-0.1,0.4-0.3,1.2-0.5,1.7
						s-0.3,1.1-0.3,1.4c0.1,0.3-0.1,1.5-0.4,2.8c-0.6,2.4-1.5,7.3-1.5,8.7c0,0.4-0.4,1.3-0.9,1.9c-0.5,0.6-0.8,1.4-0.6,1.8
						c0.2,0.4,0.1,1.1-0.2,1.5c-0.3,0.3-1,2.2-1.5,4c-0.5,1.9-1.6,4.7-2.5,6.4c-0.9,1.7-1.6,3.4-1.6,3.8c0,0.8-0.4,1.5-2.3,3.6
						c-0.5,0.6-1,1.3-1,1.6c0,0.3-0.5,0.8-1.2,1.3c-1.2,0.8-2.7,2-6.4,5.3c-1.1,1.1-2.3,1.7-2.6,1.5c-0.3-0.2-0.5-0.1-0.5,0.2
						c0,0.2-1.9,1.2-4.2,2.2c-6.9,2.9-7.7,3.1-9.3,2.2c-0.8-0.4-2.4-1.1-3.6-1.5c-3.2-1.1-6.1-3.1-7.6-5.5c-0.8-1.1-2.1-3.1-3-4.3
						c-0.9-1.3-1.6-2.9-1.6-3.8c0-0.9-0.5-2.6-1.1-3.8c-1.3-2.8-2.7-6.8-2.7-8c0-0.5-0.2-1-0.5-1.1c-0.5-0.2-5.4-10.6-5.7-12.1
						c-0.1-0.6-0.7-1.9-1.3-3c-0.6-1.1-1.1-2.2-1.1-2.7c0-0.4-0.5-1.4-1.2-2.2c-1.4-1.7-3.1-7.3-6.1-18.7
						c-1.6-6.6-2.9-13.6-3.6-20.4c-0.3-2.8-0.6-5.5-0.8-5.9c-0.2-0.4-0.3-2.6-0.4-4.8c-0.1-2.2-0.4-4.6-0.8-5.3
						c-0.4-0.7-0.6-2.2-0.4-3.4c0.1-1.1,0.1-2.5-0.2-3c-0.3-0.4-0.6-2.1-0.8-3.6c-0.3-4-0.5-4.9-1-5.3c-0.4-0.4-1.2-4.2-1.7-8.4
						c-0.2-1.1-0.5-2.9-0.8-4.1c-0.3-1.1-0.4-2.1-0.2-2.1s0.1-0.3-0.2-0.7c-0.3-0.3-0.5-3.1-0.4-6.1c0-4.9-0.1-5.4-1.1-5.9
						C-6294.8-545.9-6295.6-545.8-6297-545.1L-6297-545.1z"/>
					<path id="path9476" inkscape:connector-curvature="0" d="M-6631-544.1c-0.4,0.3-0.9,0.4-1.1,0.3c-0.2-0.2-1,0.4-1.9,1.2
						c-0.9,0.9-2.8,1.8-4.5,2.2c-5.3,1.2-8.1,2.2-8.8,2.9c-0.4,0.4-1.1,0.7-1.6,0.7c-0.5,0-1.2,0.4-1.6,0.9s-2,1.7-3.5,2.8
						c-1.9,1.2-3.4,2.8-4.3,4.6c-0.8,1.5-1.8,3.1-2.2,3.5c-1,1.3-3,7.2-2.6,7.9c0.2,0.3,0.1,0.6-0.2,0.6c-0.3,0-0.6,0.3-0.6,0.8
						s-0.3,1.2-0.6,1.6c-0.4,0.4-0.7,2.5-0.7,5.5c0,2.6-0.1,6-0.2,7.6c-0.3,5.3,0.3,9.4,2,13.3c0.9,2.1,1.5,3.8,1.3,3.8
						c-0.2,0,0.2,0.6,0.8,1.2c1.5,1.7,2.3,3.5,2.3,4.9c0,0.7,0.2,1.2,0.5,1.2c0.3,0,0.9,0.8,1.4,1.8c0.9,1.9,7.7,9.4,8.5,9.4
						c0.3,0,2.2,2,4.3,4.3c2.2,2.4,6.4,6.9,9.5,10c3,3.1,5.5,5.9,5.5,6.3c0,0.4,0.5,1,1.1,1.3c0.6,0.3,2.6,4,4.6,8.3l3.6,7.7
						l0.1,9.8c0,9.8-0.2,12.9-0.9,12.9c-0.2,0-0.6,1.3-1,2.9c-0.4,1.6-1.1,3.7-1.6,4.7c-0.5,0.9-0.9,2-0.9,2.2
						c0,0.3-0.5,1.4-1.2,2.4c-0.6,1-1.2,2-1.2,2.2c0,0.7-4.8,5.2-7,6.7c-1,0.7-2.2,1.1-2.5,1c-0.4-0.2-1.4,0.3-2.3,1
						c-1.2,0.9-2.2,1.2-3.4,0.9c-6-1.1-7.3-1.3-8.6-1.9c-0.9-0.3-1.5-0.5-1.5-0.3c0,0.2-0.6-0.1-1.4-0.6c-0.7-0.5-1.8-0.9-2.4-0.9
						c-1.5,0-4.3,1.6-4.3,2.4c0.1,1,4.2,3.9,5.1,3.6c0.4-0.2,1.3,0.3,2,1.1c0.7,0.8,1.8,1.6,2.5,1.9c0.6,0.3,1.2,0.8,1.2,1.3
						c0,1,1.4,1.2,1.9,0.3c0.2-0.3,0.8-0.6,1.3-0.6c0.5,0,1.6-0.5,2.4-1.1c0.8-0.7,2.1-1.1,3.2-1.1c2.6,0.1,7.2-1.5,9.8-3.3
						c6.4-4.5,12.3-13,13.1-18.9c0.2-1.3,0.7-2.8,1.1-3.3c1.2-1.5,1.8-6.5,1.8-15.3c-0.1-8.5-0.6-13-2.3-16.4
						c-0.5-1-1.1-2.6-1.5-3.8c-0.9-2.9-6.5-11.6-9-13.8c-1-1-3.1-3.2-4.5-5c-1.4-1.7-5.9-6.7-10.1-11.1c-9.2-9.7-10.8-11.6-13.2-17
						c-1.1-2.4-2.4-5.2-3-6.2c-1.2-2.4-1.3-2.6-1.4-11.1c-0.1-7.8,0.7-12.7,2.4-16.4c0.6-1.4,1.4-3.1,1.5-3.9
						c0.8-3.1,6.4-8.9,10.4-10.5c0.9-0.4,4.9-2.1,8.9-3.8c6.3-2.7,7.8-3.1,10.8-3.1c6.1,0,13.6,1.7,16.5,3.7c0.9,0.6,1.8,0.8,3,0.5
						c1.8-0.4,2-0.9,0.7-2.1c-3.5-3-10.1-5.2-18-6c-2.5-0.3-5.1-0.7-5.7-0.8C-6629.7-544.4-6630.6-544.3-6631-544.1z"/>
					<path id="path9478" inkscape:connector-curvature="0" d="M-5768.2-574.2c-0.9,0.3-1.5,0.9-1.5,1.3c0,1.5,2.5,3.7,4.9,4.2
						c2.6,0.6,9,3.8,10.9,5.4c3.7,3.3,5.5,5.5,5.2,6.6c-0.2,0.7,0.1,1.5,0.4,1.9c0.9,0.9,1.5,6,1.1,10c-0.2,1.9-0.3,3.9-0.4,4.7
						c-0.1,2.8-5.7,13.7-9.4,18.1c-4.1,5-5.6,6.2-9.5,7.6c-2.8,1-2.9,1.2-3.1,3.1c-0.2,1.6,0.1,2.2,1,2.7c1.6,0.9,6.2,0.2,7.7-1.2
						c0.6-0.6,0.8-1,0.4-0.7c-0.4,0.2-0.3-0.1,0.3-0.5c0.6-0.5,1.8-1.5,2.6-2.2c1.8-1.5,8.2-9.4,8.2-10.1c0-0.3,0.4-0.8,0.8-1.1
						c0.9-0.7,3.6-6.2,6.1-12.5c3.5-8.8,1.2-21.9-4.8-28.3c-3.2-3.3-11-8.2-13.9-8.7C-5765.9-574.8-5766.8-574.8-5768.2-574.2z"/>
					<path id="path9480" inkscape:connector-curvature="0" d="M-5765.6-453.5c-1.4,1.5-0.7,2.7,2.3,4c5.4,2.3,8.5,4.3,10.9,6.9
						c3.5,3.8,5.2,5.7,5.2,6c0,0.2,0.3,0.9,0.6,1.7c0.3,0.8,0.9,2.1,1.2,3.1c0.8,2,1.6,13.4,1,13.8c-0.2,0.2-0.5,1.2-0.6,2.4
						c-0.4,3.2-3.2,9.1-6.8,14.2c-0.4,0.6-2.2,2.6-3.9,4.4c-2.8,2.9-3.3,3.3-4.7,2.9c-1-0.2-2.2,0-3.2,0.6c-1.4,0.7-1.7,1.2-1.7,2.8
						c0,1.8,0.3,2.1,2.4,3.2l2.3,1.2l3.7-2.8c6-4.5,11.2-10.8,13.4-16c0.4-1.1,1.1-2.4,1.5-2.8c1.1-1.2,2.8-6.6,2.9-9.4
						c0.1-1.3,0.3-2.6,0.5-2.9c0.2-0.3,0.3-2.7,0.3-5.2c-0.1-3.8-0.5-5.5-1.9-9.1c-0.9-2.4-2.2-5.1-2.7-5.8c-0.5-0.8-1.4-2-1.8-2.6
						c-1.4-2-6.1-6.2-9.2-8.2C-5759.6-454.8-5763.8-455.6-5765.6-453.5L-5765.6-453.5z"/>
					<path id="path9482" inkscape:connector-curvature="0" d="M-5764.7-329.8c-0.4,0.4-0.7,1.2-0.7,1.7c0,0.8,0.4,1,1.8,1
						c1.1,0,2.5,0.6,3.6,1.4c1,0.8,2.2,1.4,2.7,1.4c1.7,0,8.6,5.4,8.6,6.7c0,0.3,0.4,0.8,1,1.1c0.5,0.3,1.1,1.2,1.3,1.9
						c0.1,0.7,0.6,2.8,1.1,4.7c1.4,5.1,1.7,7.8,1.6,15c-0.1,6.9-1.1,11.9-2.8,13.3c-0.5,0.4-0.7,0.9-0.5,1.1
						c1.1,1.1-6.1,10-8.3,10.2c-1.6,0.2-3.3,2.2-3.1,3.7c0.2,1.6,2.6,2.9,4.5,2.4c1-0.3,3.4-2.4,6.4-5.7c4.5-4.8,5.1-5.6,6.9-10.5
						c2.8-7.4,3.9-18.4,2.6-25c-1-4.8-3.4-11.9-4.8-14.3c-1.6-2.7-5.5-5.8-10.6-8.5C-5756.8-330.2-5763.5-331.1-5764.7-329.8z"/>
					<path id="path9486" inkscape:connector-curvature="0" d="M-5757.8-210.2c-3.1,1.3-3.4,2.6-0.7,3.8c1.1,0.5,2.5,0.8,3.1,0.6
						c3.6-1,13.5,3.9,16.5,8.1c0.7,1,1.8,2.4,2.5,3c1,1.1,1.2,2,1.3,5.7c0.1,5.1-0.6,10.7-1.5,12.3c-0.4,0.6-1.6,3.3-2.8,5.9
						c-1.2,2.6-2.9,5.6-3.7,6.5c-0.9,1-2.1,2.4-2.7,3.3c-1.1,1.5-4.6,4.3-5.4,4.3c-0.8,0-3.9,3.7-3.9,4.6c0,1.5,1.2,2.2,3.7,2.2
						c2.3,0,2.6-0.2,8.3-6c3.2-3.3,5.9-6.4,5.9-6.9c0-0.6,0.4-1.3,0.9-1.7c1.6-1.3,5.2-9.7,6.4-14.7c2.4-10.1,1.2-16-4.8-22.8
						c-3.2-3.6-8.1-6.7-12.9-8C-5752.7-211.4-5754.5-211.4-5757.8-210.2z"/>
					<path id="path9488" inkscape:connector-curvature="0" d="M-6513-208.3c-0.5,0.3-2,0.6-3.2,0.7c-1.4,0.1-4.1,1.1-6.4,2.2
						c-2.2,1.1-4.6,2.1-5.4,2.3c-1.7,0.3-11.1,10-10.5,10.6c0.1,0.1-0.5,2-1.4,4.2c-0.9,2.2-1.7,5-1.9,6.1c-0.2,1.2-0.5,2.4-0.8,2.7
						c-0.6,0.8-0.3,11.3,0.4,14.5c0.9,4,2.3,7.9,3.1,8.8c0.4,0.4,1.7,2.9,2.9,5.4c1.2,2.5,2.6,4.7,3.1,4.9c0.4,0.2,1.1,1,1.4,1.8
						c0.6,1.6,6.6,4.9,9.5,5.1c2.6,0.2,6.2,1.1,7,1.9c0.6,0.6,1.1,0.6,2.3-0.1c1.2-0.6,1.5-1.2,1.6-2.9c0.1-1.7-0.1-2.1-1-2.1
						c-0.6,0-1.6-0.3-2.2-0.6c-0.6-0.3-2.2-0.7-3.5-0.8c-1.2-0.1-3.4-0.7-4.8-1.5c-2.8-1.5-8.4-7.4-8.4-8.9c0-0.5-0.4-1.3-0.8-1.7
						c-0.4-0.4-1.1-1.7-1.4-3c-0.3-1.2-0.9-2.7-1.3-3.1c-0.4-0.4-1.1-3.5-1.7-6.7c-0.9-5.6-0.9-6.1,0.1-11c1.2-6.4,4.4-13.5,7.1-16
						c1.1-1,3-2.3,4.3-2.9c1.3-0.6,2.3-1.2,2.3-1.5c0-0.6,5.5-3.4,8.1-4c3.7-1,5.6-1.8,6.6-3.1c0.6-0.8,0.7-1.2,0.3-1.5
						C-6508.6-209.1-6512-209-6513-208.3z"/>
					<path id="path9510" inkscape:connector-curvature="0" d="M-5749.1-160.6c0,0.3,0.4,0.6,0.8,0.6s0.8-0.3,0.8-0.6
						c0-0.3-0.4-0.6-0.8-0.6S-5749.1-161-5749.1-160.6z"/>
					<path id="path9842" inkscape:connector-curvature="0" d="M-6520.5-103.2c0,0.3-0.6,0.4-1.3,0.4c-2.3,0-6.4,4.9-9,10.7
						c-0.6,1.4-1.7,3.8-2.4,5.2c-0.8,1.5-1.4,3.3-1.4,4c0,0.7-0.4,2.4-0.8,3.7c-1.3,3.7-1.3,9.4-0.2,17.5c0.8,5.5,4,10.5,10.6,16.3
						c1.6,1.5,2.4,1.8,3.5,1.6c0.2,0,0.4,0.2,0.4,0.4c0,0.3,0.8,0.7,1.8,0.9c0.9,0.2,2.4,0.8,3.2,1.2c0.9,0.5,3.6,0.8,6.8,1l5.3,0.1
						l0.2-2.4c0.2-2.3,0.1-2.4-1.8-3.3c-1.6-0.7-2.7-0.7-5.2-0.3c-2.4,0.4-3.2,0.3-3.4-0.2c-0.2-0.4-0.7-0.7-1.2-0.7
						c-0.5,0.1-2.2-0.5-3.7-1.2c-2.1-1-3.4-2.1-5.6-5.1c-4.3-5.8-5.4-9.1-5.4-16.1c0-5.6,0.6-8.5,2.5-13c0.4-1,0.8-2.1,0.8-2.6
						c0-1.7,2.9-7.6,3.9-7.8c0.6-0.2,0.9-0.6,0.6-1.2c-0.4-1.2,3.4-5.2,5.5-5.7c2.6-0.6,5.2-2,4.9-2.7c-0.1-0.3-0.5-0.7-1-0.7
						c-0.4,0-1-0.1-1.3-0.2C-6515.4-103.7-6520.5-103.6-6520.5-103.2L-6520.5-103.2z"/>
					<path id="path10076" inkscape:connector-curvature="0" d="M-5745.5-97.1c-2.6,0.4-4.8,2-4.8,3.4c0,1.9,1.6,2.2,7,1.7l5.1-0.5
						l3.6,2c2.4,1.3,4.4,3,5.9,4.9c2.3,2.8,2.4,3.1,2.6,7c0.1,2.9,0,4.1-0.5,4.1c-0.3,0-0.5,0.4-0.3,1c0.6,2.2-3.7,10-7.8,14.1
						c-3,2.9-8.2,6.9-9.8,7.4c-0.4,0.2-2.2,0.3-3.8,0.3s-3.3,0.2-3.6,0.4c-1.2,0.8-0.8,2.9,0.9,4.6c1.6,1.6,1.7,1.6,4.3,0.9
						c1.5-0.3,2.9-0.5,3.2-0.3c0.3,0.2,0.6-0.1,0.8-0.5c0.2-0.4,1.5-1.4,2.9-2.2c3.7-2,12.6-9.8,12.6-11.1c0-0.2,1-1.7,2.1-3.2
						c1.2-1.5,2.4-3.8,2.8-5.1c0.4-1.2,0.8-2.3,1-2.3s0.4-0.7,0.4-1.6c0-1,0.3-2.2,0.6-2.8c1.4-2.6-0.3-9.8-3.2-13.7
						c-2.9-3.9-8.4-7.1-14-8.2C-5740.8-97.7-5741.8-97.7-5745.5-97.1L-5745.5-97.1z"/>
					<path id="path10682" inkscape:connector-curvature="0" d="M-5888.8-61c-0.6,0.4-1.8,0.9-2.8,1c-1,0.2-3.4,1.1-5.4,2.1
						c-3.1,1.5-3.9,1.7-6.4,1.4c-2.8-0.4-2.9-0.3-4.5,1.6c-1,1.1-1.7,1.9-1.7,1.7c0-1-4.9,2.6-8.2,5.9c-2.1,2.1-4.1,4-4.6,4.2
						c-0.4,0.2-0.9,0.8-1.1,1.3c-0.6,1.7-2.6,3.9-3.3,3.7c-0.4-0.1-0.5,0.1-0.3,0.7c0.2,0.4-0.1,1.6-0.5,2.4
						c-1.1,2.1-4.6,12.6-5.5,16.5c-0.5,2.4-0.5,3.7-0.1,5.5c0.5,1.9,0.4,2.8-0.3,4.5c-0.6,1.8-0.7,3.3-0.4,8.1
						c0.6,8,0.8,9.1,2.1,11.6c1.4,2.9,2.7,6.5,3.4,9.4c0.3,1.5,0.9,2.5,1.5,2.6c0.5,0.2,1,0.8,1,1.5c0.1,1.5,1.1,2.9,2.1,2.9
						c0.4,0,1.7,0.8,2.9,1.9c1.2,1.1,3.6,2.8,5.4,3.8c1.7,1,4.3,2.6,5.8,3.5c1.5,1,4.2,2.4,5.9,3c1.8,0.7,3.9,1.6,4.8,2.1
						c0.9,0.4,2.1,0.8,2.7,0.8c0.6,0,1.8,0.3,2.5,0.7c1,0.5,3.1,0.6,7.8,0.3c10.5-0.6,13.5-1,15.6-2.2c1.1-0.6,2-1,2-0.7
						c0,0.2,0.5-0.3,1.1-1.1c0.6-0.8,1.5-1.5,1.9-1.5c0.4,0,0.8-0.2,0.8-0.4c0-0.2,0.6-0.4,1.4-0.5c0.8,0,1.7-0.3,2.1-0.7
						c0.4-0.4,0.4-0.6-0.3-0.3c-1.4,0.6-1.2,0,0.5-2.3c0.8-1.1,1.7-1.9,2.1-1.7s1-0.1,1.3-0.6c0.5-0.6,0.5-0.8,0-0.8
						c-0.3,0-0.1-0.7,0.5-1.6c2.4-3.1,6.6-10.4,6.8-11.8c0.2-0.8,0.5-1.7,0.8-2.1c0.3-0.3,0.5-1.1,0.5-1.7c0-0.6,0.5-2,1.2-3.1
						c0.6-1.1,1.2-2.5,1.3-3.1c0.1-0.7,0.5-2.1,1-3.1c0.5-1.1,0.8-2.1,0.8-2.4c-0.1-0.3,0.2-1.3,0.5-2.2c0.4-1,0.9-3,1.1-4.5
						c0.3-1.6,0.7-3.8,1-5.1s0.6-3.3,0.6-4.6c0-1.7,0.3-2.6,1.4-3.5c0.8-0.7,1.4-1.1,1.4-1c0,0.1,0.8-0.2,1.7-0.7
						c2.4-1.3,2-2.1-1.1-2c-1.6,0-2.7-0.2-2.7-0.6c-0.1-4.2-3.3-20.8-4.5-23.2c-1.2-2.4-8.8-9.3-12.2-11.1c-4.7-2.5-11-4.2-16.5-4.6
						C-5886.1-61.7-5887.8-61.7-5888.8-61z"/>
					<path id="path11266" inkscape:connector-curvature="0" d="M-5747.5-2.4c0,0.4-0.6,1.3-1.4,1.9c-2.6,2-0.3,4.2,4.6,4.4
						c3.6,0.1,10.6,1.4,13.2,2.4c2.6,1,2.8,1.2,5,5.7l2.3,4.7l-0.6,4c-0.3,2.2-0.8,4.2-1,4.6c-0.2,0.3-0.6,1.8-1,3.3
						c-0.9,3.9-1.9,5.8-5,9.2c-1.5,1.6-2.6,3.1-2.6,3.4c0,0.7-5.8,6.5-8.1,8.2c-1.5,1.1-2.4,1.3-4.5,1.1c-1.5-0.1-2.9,0.1-3.4,0.4
						c-0.9,0.8-1,4.4-0.1,4.7c0.3,0.1,1.5,0.4,2.4,0.8c3.4,1.1,7.4-0.7,13.4-6.1c5.1-4.7,6.2-5.7,5.9-6.2c-0.2-0.3-0.1-0.5,0.2-0.5
						c0.2,0,1.5-1.7,2.8-3.8c3-4.8,4.3-6.4,5-5.9c0.3,0.2,0.4,0.1,0.1-0.4c-0.2-0.3-0.2-1.6,0.2-2.8c2.5-9,2.7-16.4,0.6-20
						c-0.6-0.9-1-2.1-1-2.6c0-0.5-0.5-1.1-1-1.3c-0.6-0.2-1.7-1.2-2.4-2.2c-0.8-1.1-2.2-2.4-3.1-3c-2.4-1.6-6.9-3.1-7.8-2.7
						c-0.8,0.3-11.2-1.1-12.1-1.7C-5747.3-3.1-5747.5-2.9-5747.5-2.4L-5747.5-2.4z"/>
					<path id="path11618" inkscape:connector-curvature="0" d="M-6515.1,25.8c-1.6,0.4-3.1,0.6-3.4,0.4c-0.2-0.1-1.5,0.2-2.7,0.8
						c-2.8,1.3-4.3,2-5,2c-0.9,0.1-4.1,3.3-4.1,4.1c0,0.4-0.2,0.7-0.5,0.7c-0.8,0-6.1,11.2-5.7,12.1c0.2,0.4,0.1,0.8-0.2,0.8
						c-0.8,0-1.8,3.2-1.5,4.3c0.2,0.6,0.5,3.5,0.8,6.4c0.3,2.9,0.8,5.9,1.1,6.7c1.5,3.6,6,10.5,7.5,11.4c0.4,0.3,1.4,1.2,2.3,2.1
						c2.2,2.2,7.3,5.6,10.4,6.9c1.4,0.6,3.5,1.6,4.7,2.4c3,2,4.4,1.8,6.4-0.7c1.1-1.4,1.5-2.2,1.1-2.7c-0.3-0.4-0.4-0.8-0.2-1
						c0.2-0.2-0.2-0.4-0.8-0.7c-0.6-0.2-1.1-0.6-1.1-0.7c0-0.2-1-0.4-2.2-0.3c-1.5,0.1-3-0.3-4.5-1.2c-1.2-0.7-3.4-1.7-4.6-2.2
						s-2.3-1.3-2.3-1.8c0-0.4-0.2-0.8-0.5-0.8c-0.8,0-4.6-3.4-6.1-5.5c-4.7-6.6-4.6-6.5-5.3-12.3c-0.6-6-0.6-6,2.2-13.7
						c0.6-1.7,3-5.5,4.8-7.7c0.3-0.4,0.5-1.1,0.5-1.6c0-0.6,0.5-0.8,1.6-0.8c0.9,0,1.6-0.2,1.6-0.5s1.3-1.1,2.9-1.8
						c2.3-1.1,3.8-1.3,8.5-1.4c7.6-0.1,7.2,0,5.8-1.5C-6505.7,25.5-6510.4,24.6-6515.1,25.8z"/>
					<path id="path12722" inkscape:connector-curvature="0" d="M-5831.2,118.4c-1.1,0.7-1.7,1.6-1.7,2.3c-0.1,1.7-7.4,16-8.9,17.3
						c-0.4,0.4-0.8,0.9-0.8,1.2c0,0.8-3.1,3.9-5.5,5.6c-1.5,1-3.1,1.6-4.3,1.6c-4.6,0-17.6-5.2-19.7-7.8c-0.6-0.7-1.7-2.5-2.5-3.9
						c-2.7-4.7-4.1-5.9-6-5.4c-1.5,0.4-2.3,2.5-1.3,3.4c0.3,0.3,0.7,1.3,0.8,2.2c0.1,1,0.5,1.9,1,2.1c0.4,0.3,1.3,1.5,1.8,2.6
						c1.5,2.9,5.9,7.2,8.2,7.9c1,0.3,3.7,1.3,5.9,2.2c6.5,2.6,7.6,2.9,12.3,2.6c4.6-0.3,6.4-0.8,7.6-2.6c0.4-0.6,1-1,1.5-1
						c0.4,0,1-0.6,1.4-1.3c0.3-0.7,1.2-1.9,2.1-2.6c0.8-0.8,1.7-1.9,1.9-2.4c0.3-0.5,1.9-3.1,3.7-5.8c3-4.7,5.7-10.5,5.7-12.4
						c0-0.4,0.3-0.8,0.5-0.8c1,0,0.5-2.6-0.7-4.3l-1.2-1.8L-5831.2,118.4z"/>
					<path id="path12756" inkscape:connector-curvature="0" d="M-5940.6,120.3c-0.5,0.6-1,2.4-1.2,4.2c-0.3,2.1-0.8,3.5-1.5,4.2
						c-0.5,0.5-1,1.3-1,1.7c0,1.6-3.9,9.1-6.8,13c-1.6,2.2-3,4.3-3,4.6c0,0.3-0.4,0.7-0.9,1c-0.5,0.2-1.4,0.7-1.9,1.2
						c-1.5,1.3-10.1,1.9-13.9,0.9c-4.1-1-5.5-1.6-8.1-3.6c-2.5-1.9-6.5-5.6-6.5-6c0-0.2-0.9-1.9-2.1-3.8c-1.1-2-2.4-4.7-2.8-6.1
						c-0.4-1.7-1.2-3-2.3-3.8c-0.9-0.7-1.5-1.5-1.4-1.9c0.2-0.5-0.2-0.6-1.5-0.4c-2.6,0.4-3.1,1.1-2.7,3.7c0.4,2.8,0.8,3.6,3.2,6.9
						c1,1.4,1.8,2.8,1.8,3.3c0,2.1,9,13.2,10.7,13.2c0.4,0,1.5,0.6,2.4,1.4c2,1.7,9.2,4,12.1,3.9c10.3-0.7,10.8-0.7,13.7-2.4
						c1.7-0.9,3.3-2.2,3.6-2.9c0.3-0.7,1.4-2.2,2.4-3.4c1-1.2,2.3-3,2.9-4c0.5-1.1,1.4-2.2,1.9-2.6c0.5-0.4,0.8-0.8,0.6-0.8
						c-0.2-0.1,0.6-2.1,1.7-4.5c1.1-2.5,2-4.6,2-4.9c0-0.2,0.4-0.7,0.8-1.1c0.4-0.4,0.8-1.2,0.8-1.7c0-1.2,1.6-5,2.2-5
						c0.2,0,0.3-0.6,0.3-1.4C-5935,119.9-5938.8,118.2-5940.6,120.3L-5940.6,120.3z"/>
					<path id="path12806" inkscape:connector-curvature="0" d="M-6062.1,123.3c-0.4,0.3-0.6,0.7-0.4,0.9c0.6,0.7-3.2,7.8-5.5,10.1
						c-1.2,1.2-2.2,2.6-2.2,3.2c0,0.6-0.9,1.9-1.9,3c-1,1.1-1.9,2.3-1.9,2.8c0,0.4-0.3,0.8-0.7,0.8s-1.4,0.8-2.3,1.7
						c-0.9,1-2.6,2.5-3.8,3.4c-2.1,1.5-2.6,1.6-9.5,2c-7.1,0.4-7.2,0.4-10.7-1.3c-3.9-1.9-7.8-5.1-9.3-7.5c-0.5-0.9-0.9-1.6-0.8-1.6
						c0.1,0-0.6-0.9-1.6-2c-2.6-2.8-4.2-2.5-4.4,0.8c-0.2,2.1,0.2,2.9,1.8,5.5c4.8,7.3,12,12,18.2,12c1.5,0,4.5,0.3,6.5,0.6
						c2.8,0.4,3.8,0.4,4.2-0.1c0.2-0.3,0.6-0.5,0.9-0.3c0.5,0.3,5.5-1.1,8.6-2.5c1-0.4,2.6-2,3.7-3.4c1.1-1.5,2.2-2.6,2.4-2.6
						c0.3,0,1.1-1.1,1.9-2.5c0.8-1.4,2.3-3.5,3.3-4.7c2.2-2.4,5.1-7.3,4.8-7.6c-0.2-0.2,1-1.3,2.4-2.7c3.1-2.8,3.7-5.2,1.5-6.1
						c-0.7-0.3-1.6-0.9-1.9-1.4C-6059.6,122.6-6060.9,122.5-6062.1,123.3L-6062.1,123.3z"/>
					<path id="path12924" inkscape:connector-curvature="0" d="M-6188.2,132.6c-1.6,1.9-3.6,6.2-3.7,7.5c0,0.8-6.2,8.9-8.8,11.4
						c-0.8,0.8-1.5,1.7-1.5,2.1c0,0.8-6.1,4.9-8.8,5.8c-4.3,1.5-12.5,0.4-16.9-2.2c-2.3-1.3-6.9-6.7-8.3-9.5
						c-1.2-2.6-5.3-6.9-6.4-6.9c-1,0-2.8,2.2-2.8,3.5c0,1,1.7,4,3,5.2c0.3,0.3,1,1.3,1.6,2.2c1.5,2.4,9,10.5,10.6,11.3
						c7.3,3.9,18.5,4.4,23.6,1.1c0.9-0.6,3-2.1,4.8-3.3c3.5-2.4,10.1-10.1,14-16.2c1.3-2.1,2.3-3.8,2.1-3.8c-0.1,0,0.3-0.5,0.9-1.1
						c0.8-0.8,1.1-1.9,1.1-4.4C-6183.7,130.3-6185.5,129.2-6188.2,132.6z"/>
					<path id="path13070" inkscape:connector-curvature="0" d="M-6302.8,141.5c-0.9,1.1-1.5,2.2-1.5,2.6c0,2.2-8.6,12.3-12.8,15
						c-0.9,0.5-1.9,1.3-2.5,1.8c-1.5,1.3-5.6,2.3-11.2,2.6c-5.1,0.3-5.2,0.3-8.6-1.5c-2.6-1.4-4.4-3-6.8-6c-1.8-2.2-3.6-4-4-4
						c-0.4-0.1-1.1-0.8-1.6-1.7c-0.5-0.9-1.2-1.7-1.6-1.7c-0.4,0-0.7-0.3-0.7-0.6c0-0.3-1.4-1.5-3-2.5c-1.6-1.1-3-2.2-3-2.5
						c0-0.6-1.8-0.7-4.2-0.2c-1.5,0.3-1.6,0.4-1,2c0.6,1.9,4.9,6.1,6.1,6.1c0.4,0,0.8,0.3,0.8,0.7c0,0.4,1.1,1.7,2.5,2.9
						s3.7,3.6,5.2,5.4c4.2,4.9,6.9,7.1,10.9,8.5c4.4,1.5,12.2,1.6,15.8,0.3c1.3-0.4,2.5-0.7,2.8-0.5c0.3,0.2,1.6-0.4,3-1.4
						s2.7-1.7,2.9-1.7c1.1,0,12-11.2,13.7-14.1c2.1-3.6,3.6-5.6,4.1-5.6c0.7,0,0.2-3.8-0.7-4.9
						C-6299,138.9-6301.3,139.5-6302.8,141.5L-6302.8,141.5z"/>
					<path id="path13902" inkscape:connector-curvature="0" d="M-5832.5,191.2c0.4,0.2,0.9,0.1,1-0.1c0.2-0.2-0.1-0.3-0.7-0.3
						C-5832.8,190.8-5832.9,191-5832.5,191.2z"/>
					<path id="path14272" inkscape:connector-curvature="0" d="M-5954.9,149c-0.3,1.9-0.2,2.5,0.4,1.9c0.6-0.6,0.8-1.8,0.6-2.8
						C-5954.2,146.7-5954.4,146.9-5954.9,149z"/>
				</g>
			</g>
			<ellipse id="path134" class="st0" cx="-2036" cy="-848.3" rx="584.3" ry="450.1"/>
			<g id="g155" transform="matrix(0.41176466,0,0,0.3877551,-2058.5312,-246.15435)">
				<ellipse id="path140" cx="-12411.1" cy="-5797.8" rx="336.7" ry="329.2"/>
			</g>
			<rect id="rect157" x="-8911.9" y="-1137.2" width="9744.3" height="26.9"/>
			<text transform="matrix(-12.3235 0 0 -12.541 258.1127 -962.4979)" class="st1 st2"> </text>
			<text transform="matrix(-12.3235 0 0 -12.541 162.2447 -962.4979)" class="st1 st3">dotDevice</text>
			<g id="flowRoot223" transform="matrix(-3.2605734,0,0,-3.3181554,-76.599394,177.09823)">
			</g>
			<rect id="rect157-3" x="-8911.9" y="-552.7" width="9757.6" height="26.9"/>
			<text transform="matrix(-12.3235 0 0 -12.541 786.2651 58.7007)" class="st1 st4">[EmSys Inc.] </text>
			<rect id="rect269" x="-8396.7" y="-3474.9" class="st5" width="2468.6" height="2075.5"/>
			<text transform="matrix(-12.3235 0 0 -12.541 -6862.4736 -2308.832)" class="st1 st6">Hello!</text>
			<text transform="matrix(-12.3235 0 0 -12.541 716.6868 -1739.5864)" class="st1 st7">Your group on the EmSys course has a virtual device, called a</text>
			<text transform="matrix(-12.3235 0 0 -12.541 716.6868 -1990.4066)" class="st1 st7">dotDevice that you can interact with. Your dot device can: speak, </text>
			<text transform="matrix(-12.3235 0 0 -12.541 716.6868 -2241.2268)" class="st1 st7">making text appear above it; move +-10 in the x or y </text>
			<text transform="matrix(-12.3235 0 0 -12.541 716.6868 -2492.0471)" class="st1 st7">direction; and change colour or size. Commands are issued</text>
			<text transform="matrix(-12.3235 0 0 -12.541 716.6868 -2742.8674)" class="st1 st7">from your device via WebSockets to the centralised </text>
			<text transform="matrix(-12.3235 0 0 -12.541 716.6868 -2993.6877)" class="st8"><tspan x="0" y="0" class="st1 st7">EmSys lab server. To ensure that each group only interacts with</tspan><tspan x="0" y="19.2" class="st1 st7">their dotDevice commands should contain the groups unique id, gid.</tspan></text>
		</g>
	</g>
</g>
</svg>
