<?xml version="1.0" encoding="UTF-8" standalone="no"?>
<!-- Created with Inkscape (http://www.inkscape.org/) -->

<svg
   xmlns:dc="http://purl.org/dc/elements/1.1/"
   xmlns:cc="http://creativecommons.org/ns#"
   xmlns:rdf="http://www.w3.org/1999/02/22-rdf-syntax-ns#"
   xmlns:svg="http://www.w3.org/2000/svg"
   xmlns="http://www.w3.org/2000/svg"
   xmlns:sodipodi="http://sodipodi.sourceforge.net/DTD/sodipodi-0.dtd"
   xmlns:inkscape="http://www.inkscape.org/namespaces/inkscape"
   width="279.3244mm"
   height="116.12348mm"
   viewBox="0 0 279.32442 116.12348"
   version="1.1"
   id="svg17651"
   inkscape:version="0.92.5 (2060ec1f9f, 2020-04-08)"
   sodipodi:docname="Banner.svg">
  <defs
     id="defs17645" />
  <sodipodi:namedview
     id="base"
     pagecolor="#ffffff"
     bordercolor="#666666"
     borderopacity="1.0"
     inkscape:pageopacity="0.0"
     inkscape:pageshadow="2"
     inkscape:zoom="1.4"
     inkscape:cx="600.35513"
     inkscape:cy="218.3373"
     inkscape:document-units="mm"
     inkscape:current-layer="g65"
     showgrid="false"
     fit-margin-top="0"
     fit-margin-left="0"
     fit-margin-right="0"
     fit-margin-bottom="5"
     inkscape:window-width="1918"
     inkscape:window-height="1057"
     inkscape:window-x="0"
     inkscape:window-y="0"
     inkscape:window-maximized="0" />
  <metadata
     id="metadata17648">
    <rdf:RDF>
      <cc:Work
         rdf:about="">
        <dc:format>image/svg+xml</dc:format>
        <dc:type
           rdf:resource="http://purl.org/dc/dcmitype/StillImage" />
        <dc:title></dc:title>
      </cc:Work>
    </rdf:RDF>
  </metadata>
  <g
     inkscape:label="Layer 1"
     inkscape:groupmode="layer"
     id="layer1"
     transform="translate(331.57583,91.272936)">
    <g
       id="g18002"
       transform="matrix(-0.94041949,0,0,-0.9529421,-323.42673,99.558043)">
      <g
         id="g65"
         transform="matrix(0.0862873,0,0,0.08367568,-64.305798,158.07239)">
        <g
           id="g221"
           transform="translate(-2138.0045,312.85465)">
          <path
             id="path9452"
             d="m -372.94479,-137.42443 c -0.0382,0.0397 -0.66743,0.15867 -1.4302,0.27767 -1.18229,0.15867 -2.19296,0.51567 -3.52781,1.22968 -0.19069,0.0992 -0.40045,0.11899 -0.4958,0.0793 -0.26697,-0.1785 -2.40273,2.49902 -2.17389,2.73701 0.0572,0.0595 -0.0382,0.15867 -0.20977,0.238 -0.17162,0.0595 -0.3051,0.21817 -0.3051,0.31734 0,0.0992 -0.15256,0.43634 -0.36232,0.71401 -0.36232,0.5355 -0.45767,0.91234 -0.80091,3.19318 -0.11442,0.71401 -0.40046,1.90401 -0.64836,2.67752 -0.53394,1.68584 -0.91532,5.83103 -0.83904,9.34155 0.0191,1.30901 0.0381,2.55852 0.0381,2.77669 0,0.21817 -0.0381,2.28085 -0.0572,4.58152 -0.0382,2.30068 0,4.28403 0.0763,4.42286 0.0763,0.119 0.0381,0.357 -0.0763,0.51567 -0.11442,0.15867 -0.15255,0.37684 -0.0763,0.51567 0.0763,0.119 0.11441,2.24119 0.0763,4.720373 -0.0191,2.45934 -0.0382,4.66085 -0.0382,4.87902 0.0382,2.63785 0.0191,7.91355 -0.0191,8.52838 -0.0381,0.43635 -0.13349,1.82468 -0.20976,3.07419 -0.0763,1.24951 -0.22883,2.53869 -0.32418,2.85602 -0.0954,0.31734 -0.17162,1.11068 -0.17162,1.78501 0,0.67434 -0.0763,1.74535 -0.1907,2.39985 -0.0953,0.6545 -0.22883,1.86434 -0.28604,2.67751 -0.0572,0.81318 -0.13348,1.74535 -0.19069,2.08252 -0.2479,1.44784 -0.45766,3.55018 -0.57208,5.85086 -0.0763,1.36851 -0.17162,2.53869 -0.22883,2.61802 -0.0382,0.0992 0.0191,0.15867 0.11441,0.15867 0.20977,0 0.28605,0.63467 0.11442,0.833 -0.0572,0.0595 -0.15255,2.06268 -0.19069,4.4427 -0.0572,2.38001 -0.13348,4.87902 -0.17163,5.53353 -0.0953,1.60651 -0.3051,7.43755 -0.26697,7.93338 0.13349,2.04284 -0.0572,3.96669 -0.45765,4.81953 -0.1907,0.37684 -0.20977,0.79334 -0.11442,1.42801 0.0763,0.49584 0.0953,1.03134 0.0382,1.19001 -0.0572,0.15866 -0.15256,1.4875 -0.19069,2.95518 -0.0763,2.20151 -0.0382,2.73702 0.20976,3.13369 0.2479,0.39666 0.26697,0.61483 0.11441,1.09083 -0.11441,0.33718 -0.20976,1.34868 -0.20976,2.26102 0,0.8925 -0.0763,1.86434 -0.17162,2.12218 -0.11442,0.27766 -0.11442,0.79333 -0.0191,1.2495 0.0954,0.41651 0.11441,0.85284 0.0381,0.95201 -0.0572,0.119 -0.15256,1.11067 -0.17163,2.20151 -0.0381,1.09085 -0.11441,2.75685 -0.15255,3.70886 -0.19069,3.49069 -0.15255,4.93853 0.17162,5.47403 0.0572,0.119 0.41953,0.31733 0.80092,0.43634 0.61021,0.21817 0.72463,0.19833 1.14415,-0.21817 0.36232,-0.35701 0.43859,-0.59501 0.36232,-0.97184 -0.22883,-0.89251 -0.0381,-12.21741 0.28604,-17.65177 0.28604,-4.68069 0.32417,-5.0972 0.62928,-7.33838 0.15256,-1.15034 0.38139,-3.25268 0.51487,-4.66086 0.11442,-1.42801 0.34325,-3.01468 0.4958,-3.53036 0.38139,-1.26933 0.62929,-2.57834 0.76277,-3.80802 0.0572,-0.55533 0.11442,-1.20983 0.15256,-1.4875 0.0191,-0.27767 0.13349,-0.71401 0.2479,-0.99168 0.0953,-0.27767 0.34324,-1.09084 0.55301,-1.84451 0.19069,-0.73384 0.41952,-1.32884 0.51487,-1.32884 0.0763,0 0.11441,-0.0793 0.0381,-0.1785 -0.17163,-0.31734 1.10601,-3.70886 1.63996,-4.30386 0.19069,-0.21817 0.36231,-0.5355 0.36231,-0.714 0,-0.15867 0.17163,-0.45617 0.38139,-0.65451 0.20976,-0.19833 0.38138,-0.49583 0.38138,-0.6545 0,-0.43634 1.31578,-2.20152 1.88786,-2.49902 0.26697,-0.15867 0.80091,-0.595 1.14416,-0.99167 0.36231,-0.39667 0.80091,-0.71401 0.95346,-0.71401 0.17163,0 0.6865,-0.15866 1.16323,-0.31733 0.47673,-0.1785 0.9916,-0.33717 1.14415,-0.357 0.15256,-0.0397 0.61022,-0.19834 1.02975,-0.39667 0.40045,-0.1785 0.91532,-0.31734 1.14415,-0.27767 0.20976,0.0396 0.4958,-0.0397 0.59114,-0.1785 0.32419,-0.43634 3.58503,-0.357 5.3394,0.0992 2.53622,0.67435 4.65291,1.70568 5.16778,2.51885 0.17162,0.27767 0.41952,0.49584 0.53394,0.49584 0.26697,0 0.85811,0.79334 1.35391,1.78501 0.17163,0.37684 0.53394,0.93217 0.80091,1.20984 0.2479,0.29751 0.59115,1.05117 0.7437,1.68585 0.17163,0.63467 0.47673,1.4875 0.66743,1.92384 0.20976,0.4165 0.36232,0.91234 0.34324,1.09084 -0.0381,0.33717 0.11442,0.87268 0.40046,1.44784 0.0953,0.1785 0.13349,0.49584 0.11442,0.69417 -0.0382,0.19834 0.0572,0.49584 0.20976,0.63467 0.20976,0.21817 0.34325,0.95201 0.26697,1.46768 0,0.0793 0.19069,0.63467 0.43859,1.22967 0.41953,0.97184 0.91533,2.89569 0.83905,3.25269 0,0.0793 0.0381,0.27767 0.0953,0.43634 0.20976,0.51567 0.553,2.06268 0.53393,2.47918 0,0.21816 0.17163,1.09084 0.38139,1.92384 0.22883,0.85284 0.36232,1.68584 0.30511,1.84451 -0.0763,0.15867 -0.0382,0.33717 0.0572,0.39667 0.0763,0.0595 0.22883,0.71401 0.28603,1.44784 0.0763,0.73384 0.2479,1.68585 0.38139,2.12218 0.13348,0.43634 0.26697,1.76518 0.26697,2.97502 0.0191,1.19001 0.11441,2.71718 0.1907,3.37169 0.0953,0.6545 0.0953,1.26934 0,1.36851 -0.0763,0.0992 -0.0763,0.31733 0,0.49583 0.3051,0.61484 0.43858,2.34035 0.53393,6.76321 0.0382,2.45935 0.11442,5.0377 0.17162,5.7517 0.0382,0.714 0.0953,2.22135 0.13349,3.37169 0.0191,1.15034 0.11441,2.20151 0.1907,2.32051 0.0953,0.13883 0.43858,0.25783 0.78183,0.25783 0.80091,0 1.35392,-0.57516 1.14416,-1.22967 -0.0763,-0.25783 -0.13348,-1.38834 -0.11442,-2.51885 0,-1.1305 -0.0763,-2.26101 -0.17162,-2.53868 -0.0953,-0.25784 -0.20976,-2.71718 -0.2479,-5.47403 -0.0572,-2.75685 -0.13348,-5.3947 -0.19069,-5.89054 -0.0572,-0.49583 -0.19069,-2.14201 -0.30511,-3.66919 -0.0953,-1.52717 -0.22883,-3.17335 -0.26697,-3.66919 -0.15255,-2.02301 -0.91532,-7.04087 -1.10602,-7.27887 -0.11442,-0.15867 -0.15255,-0.31734 -0.0953,-0.37684 0.0382,-0.0595 -0.0191,-0.57516 -0.17162,-1.1305 -0.15255,-0.57517 -0.26697,-1.24951 -0.26697,-1.48751 0,-0.25784 -0.11441,-0.75367 -0.26697,-1.09084 -0.15255,-0.357 -0.32418,-0.91234 -0.36231,-1.22968 -0.30511,-1.90401 -0.53394,-2.95518 -1.01068,-4.36336 -0.28603,-0.87267 -0.53393,-1.7255 -0.53393,-1.88418 -0.0191,-0.1785 -0.0953,-0.39666 -0.15256,-0.49583 -0.0572,-0.119 -0.22883,-0.73384 -0.36231,-1.38834 -0.13349,-0.6545 -0.34325,-1.36851 -0.47674,-1.58668 -0.13348,-0.21816 -0.34324,-0.93217 -0.45766,-1.58667 -0.32418,-1.66601 -2.95574,-5.85087 -4.30965,-6.86238 -2.89853,-2.18167 -6.27379,-3.35185 -9.72533,-3.35185 -2.76505,0 -7.99003,1.74534 -9.97323,3.35185 -0.85812,0.69417 -2.49807,2.45935 -2.49807,2.67752 0,0.0992 -0.11442,0.33717 -0.26697,0.49584 -0.13349,0.1785 -0.45767,0.69417 -0.70557,1.17017 -0.38139,0.73384 -0.40045,0.8925 -0.17162,1.03134 0.2479,0.15867 0.22883,0.19834 -0.0572,0.19834 -0.4958,0 -1.31578,1.547 -1.88786,3.57002 -1.56368,5.61286 -1.7353,5.41453 -1.58275,-1.74535 0.0763,-3.03452 0.15256,-6.02937 0.20977,-6.68387 0.0381,-0.65451 0.11441,-1.68585 0.15255,-2.28085 0.22883,-3.47085 0.4958,-6.38637 0.62929,-6.60454 0.0763,-0.13883 0.15255,-0.595 0.17162,-1.03134 0.0191,-0.79334 0.40045,-5.43436 0.53394,-6.54504 0.0382,-0.33717 0.13348,-1.66601 0.19069,-2.97501 0.0763,-1.30902 0.17162,-2.95519 0.20977,-3.66919 0.0572,-0.71401 0.0953,-2.00319 0.0763,-2.87586 -0.0763,-8.70688 -0.0382,-30.206343 0.0572,-31.138513 0.13349,-1.32885 0.32417,-2.43952 0.47673,-2.87586 0.0572,-0.15866 0.0953,-0.55533 0.0763,-0.85283 -0.0382,-0.29751 0.0763,-0.75368 0.22883,-0.99168 0.13348,-0.238 0.38139,-1.15034 0.51487,-2.02301 0.13348,-0.87267 0.47673,-2.10234 0.76277,-2.71718 0.28604,-0.61484 0.47673,-1.17018 0.41952,-1.22967 -0.0572,-0.0793 -0.0191,-0.11901 0.0953,-0.11901 0.0953,0 0.45766,-0.39666 0.78184,-0.87267 0.45766,-0.67433 0.76277,-0.8925 1.31578,-1.01151 0.40045,-0.0793 0.89625,-0.23799 1.10602,-0.357 0.553,-0.31733 3.31805,-0.87267 4.09989,-0.833 0.95346,0.0595 3.31805,0.45617 4.34779,0.73383 1.44927,0.35701 3.29899,1.44785 4.51942,2.65769 0.62929,0.61484 1.46833,1.36851 1.86879,1.68584 1.50647,1.15034 2.99388,3.29236 2.99388,4.28403 0,0.33717 0.13348,0.714 0.28604,0.85284 0.15255,0.13883 0.22883,0.31733 0.17162,0.4165 -0.0572,0.0992 -0.0191,0.1785 0.0763,0.1785 0.0953,0 0.47673,0.714 0.85811,1.56684 0.57208,1.26935 0.7437,1.96352 0.89626,3.53036 0.11441,1.09084 0.17162,2.49901 0.15255,3.15352 -0.0572,1.28917 0.19069,1.86434 0.80091,1.86434 0.17162,0 0.45767,-0.15867 0.62929,-0.357 0.28603,-0.31733 0.32418,-0.83301 0.26697,-3.82786 l -0.0382,-3.45102 -0.9916,-2.08251 c -0.55301,-1.15034 -1.01068,-2.24118 -1.01068,-2.41968 0,-0.1785 -0.15255,-0.357 -0.32418,-0.39667 -0.19069,-0.0595 -0.57207,-0.59501 -0.85811,-1.19001 -0.7437,-1.50734 -4.17617,-4.87902 -6.76959,-6.60454 -0.89626,-0.595 -1.48741,-0.833 -4.53849,-1.80484 -0.51487,-0.15867 -1.16322,-0.25784 -1.43019,-0.21817 -0.26697,0.0595 -0.55301,0.0198 -0.66743,-0.0595 -0.19069,-0.15867 -2.13576,-0.39667 -2.25017,-0.27767 z"
             inkscape:connector-curvature="0"
             style="stroke-width:0.01944761" />
          <g
             id="g190">
            <path
               style="stroke-width:0.01944761"
               inkscape:connector-curvature="0"
               d="m -309.38691,-114.83413 c 0,0.15867 0.13349,0.29751 0.28603,0.29751 0.15257,0 0.28604,-0.13884 0.28604,-0.29751 0,-0.15866 -0.13347,-0.2975 -0.28604,-0.2975 -0.15254,0 -0.28603,0.13884 -0.28603,0.2975 z"
               id="path9456" />
            <path
               style="stroke-width:0.01944761"
               inkscape:connector-curvature="0"
               d="m -145.39277,-117.8008 c -2.32645,0.33717 -3.92827,1.90401 -8.35234,8.09205 -0.40045,0.55533 -1.31578,1.70568 -2.05948,2.53868 -1.39205,1.60651 -1.62088,2.26101 -0.87718,2.43951 0.43858,0.11901 1.84971,-0.55533 1.84971,-0.87267 0,-0.0793 0.17163,-0.33717 0.3814,-0.57517 0.64834,-0.714 2.28831,-3.05435 2.28831,-3.25268 0,-0.11901 1.25857,-1.48752 2.7841,-3.05436 2.21204,-2.28085 2.93668,-2.89568 3.54688,-3.07418 0.83906,-0.21817 3.87107,-0.19834 4.3478,0.0396 0.83905,0.43634 1.60182,0.77351 1.77344,0.77351 0.0954,0 0.6865,0.33717 1.31578,0.73384 1.02974,0.6545 1.6209,1.32884 1.52555,1.68584 -0.0191,0.0793 0.22883,0.2975 0.53393,0.45617 0.32419,0.1785 0.55302,0.37683 0.49581,0.45617 -0.0382,0.0793 0.20976,0.73384 0.59114,1.42801 0.36233,0.714 0.7437,1.6065 0.83905,1.98334 0.0954,0.37684 0.20977,0.83301 0.26698,0.99167 0.0381,0.15867 0.24789,0.83301 0.45766,1.46768 0.26696,0.77351 0.40046,1.66601 0.40046,2.63785 0,1.19001 0.0763,1.52718 0.38137,1.84451 0.57208,0.59501 1.1823,0.51567 1.60182,-0.21817 0.32418,-0.55533 0.32418,-0.75367 0.11442,-2.14201 -0.30511,-2.08251 -0.59114,-3.37168 -0.89625,-4.14519 -0.13349,-0.35701 -0.20976,-0.73384 -0.15256,-0.833 0.11442,-0.17851 -1.10601,-2.91553 -2.04041,-4.58153 -0.34325,-0.61484 -2.21203,-2.45935 -2.49807,-2.45935 -0.0763,0 -0.20977,-0.0992 -0.28604,-0.238 -0.20977,-0.33717 -2.53622,-1.44784 -3.03202,-1.44784 -0.24791,0 -0.43859,-0.0793 -0.43859,-0.1785 0,-0.29751 -3.60409,-0.67434 -4.86267,-0.49584 z"
               id="path9458" />
            <path
               style="stroke-width:0.01944761"
               inkscape:connector-curvature="0"
               d="m -190.58694,-115.53979 c -0.51487,0.21817 -1.10601,0.37684 -1.27763,0.39667 -0.19071,0 -0.49581,0.15867 -0.70558,0.37683 -0.19069,0.19834 -0.553,0.41651 -0.81998,0.47601 -0.24789,0.0793 -0.76276,0.357 -1.12508,0.61483 -0.36231,0.27767 -0.97254,0.69417 -1.37299,0.91235 -0.85812,0.49583 -3.60409,3.31218 -4.71011,4.83936 -0.41952,0.57517 -0.81997,1.32884 -0.87718,1.66601 -0.11441,0.595 -0.0953,0.63467 0.45766,0.63467 0.40046,0 0.66742,-0.13884 0.80091,-0.39667 0.11442,-0.21817 0.32417,-0.39667 0.47673,-0.39667 0.13348,0 0.45766,-0.2975 0.70556,-0.65451 0.70557,-1.03133 2.47901,-2.81634 3.35619,-3.39152 0.45767,-0.2975 0.85812,-0.6545 0.93439,-0.81317 0.0572,-0.15866 0.22884,-0.2975 0.40046,-0.2975 0.17162,0 0.47674,-0.1785 0.70557,-0.39667 0.22884,-0.21817 1.14416,-0.73384 2.02134,-1.11067 1.43019,-0.6545 1.83065,-0.73384 3.75665,-0.81317 1.33484,-0.0793 2.32644,-0.0397 2.57435,0.0992 0.22883,0.119 0.97254,0.39667 1.63995,0.61484 1.1823,0.39667 3.26085,1.80484 3.26085,2.22135 0,0.119 0.24791,0.5355 0.55301,0.93217 0.95347,1.26934 3.39432,6.60454 3.18457,6.96154 -0.17162,0.25784 0.64835,0.61484 1.41112,0.61484 0.81999,0 0.89626,-0.6545 0.28604,-2.10235 -0.28604,-0.63467 -0.74371,-1.84451 -1.04881,-2.65768 -0.70555,-1.98334 -1.33484,-3.09402 -2.57435,-4.60136 -1.71623,-2.08251 -1.94507,-2.26101 -3.9664,-3.15352 l -1.94507,-0.87267 -2.57435,-0.0397 c -2.13577,-0.0396 -2.72691,0.0198 -3.52782,0.33717 z"
               id="path9460" />
            <path
               style="stroke-width:0.01944761"
               inkscape:connector-curvature="0"
               d="m -225.29302,-112.86227 c -0.93439,0.13883 -1.88786,0.2975 -2.09761,0.39667 -1.02974,0.39666 -3.69944,1.82467 -4.36687,2.32051 -0.40046,0.2975 -0.81998,0.55533 -0.91533,0.55533 -0.28603,0 -3.39432,3.01469 -3.39432,3.27253 0,0.37683 0.85812,0.45617 1.54461,0.15866 0.34325,-0.15866 1.06788,-0.61483 1.60182,-1.0115 2.11668,-1.66601 2.49808,-1.92385 3.77571,-2.57835 0.95347,-0.49584 1.8688,-0.7735 3.1655,-0.97184 1.84973,-0.2975 4.09989,-0.19834 4.30966,0.15867 0.0763,0.0992 0.59114,0.4165 1.18229,0.714 0.80091,0.41651 1.37298,0.93218 2.21204,1.98335 0.62928,0.79333 1.20136,1.44784 1.29671,1.44784 0.0763,0 0.2479,0.33717 0.38138,0.73384 0.20976,0.69417 1.16323,2.26101 1.84973,3.07418 0.32417,0.4165 1.18229,0.47601 1.52553,0.119 0.38139,-0.39667 0.26697,-0.87267 -0.553,-2.14201 -0.41953,-0.67434 -0.8772,-1.44784 -0.99161,-1.74535 -0.62929,-1.46767 -1.90692,-3.21302 -2.80319,-3.80802 -0.49578,-0.33716 -0.97252,-0.73384 -1.02974,-0.8925 -0.0572,-0.15867 -0.22883,-0.29751 -0.40045,-0.29751 -0.15254,0 -0.28604,-0.0793 -0.28604,-0.15866 0,-0.1785 -1.2967,-0.89251 -1.67809,-0.91234 -0.13348,-0.0199 -0.3051,-0.119 -0.38139,-0.238 -0.20975,-0.33717 -2.07855,-0.4165 -3.94734,-0.1785 z"
               id="path9462" />
            <path
               style="stroke-width:0.01944761"
               inkscape:connector-curvature="0"
               d="m -118.33347,-95.031997 c -0.11442,0.2975 -1.84972,0.476 -6.75053,0.61484 -7.17003,0.238 -8.75279,0.31733 -10.2974,0.51567 -1.08695,0.15867 -5.28218,0.21816 -12.56665,0.19834 -6.55982,-0.0198 -11.32715,0.0396 -11.91829,0.15866 -0.53394,0.0992 -1.88786,0.238 -3.01295,0.27767 -1.12508,0.0595 -2.13576,0.15867 -2.25017,0.238 -0.11442,0.0793 -2.28831,0.1785 -4.82452,0.19834 -2.53623,0.0396 -4.95802,0.11899 -5.37754,0.19833 -0.41953,0.0595 -5.30126,0.15867 -10.86948,0.21817 -5.54916,0.0397 -10.75507,0.15866 -11.53692,0.25783 -0.78184,0.0793 -1.94506,0.0992 -2.59341,0.0199 -0.64837,-0.0793 -3.39434,-0.15867 -6.10218,-0.1785 -2.70783,-0.0198 -5.4538,-0.0793 -6.08309,-0.11901 -0.62928,-0.0396 -1.79252,0.0595 -2.57435,0.23801 -1.14415,0.238 -2.11669,0.27767 -4.72919,0.1785 -1.83064,-0.0793 -3.37525,-0.13884 -3.43246,-0.13884 -0.0763,-0.0198 -0.20977,0 -0.32419,0.0397 -0.19068,0.0595 -1.37298,0.119 -5.53007,0.25784 -4.3478,0.13883 -6.10217,0.2975 -6.78867,0.595 -0.53393,0.23801 -0.95347,0.25783 -1.94506,0.119 -1.04881,-0.15866 -1.37299,-0.13883 -1.98321,0.15867 -0.89625,0.4165 -0.87718,0.85284 0.0382,1.72551 0.59114,0.57517 0.68649,0.595 2.21204,0.55534 1.79251,-0.0198 4.30965,-0.31734 5.89241,-0.67434 0.57208,-0.119 1.65902,-0.25784 2.38365,-0.27767 0.7437,-0.0396 1.94506,-0.0992 2.6697,-0.1785 1.98321,-0.1785 12.37595,-0.31733 20.59481,-0.2975 13.88244,0.0595 22.52082,-0.0198 24.12264,-0.21817 0.89624,-0.119 2.34551,-0.1785 3.24176,-0.15867 3.05109,0.0793 12.49038,-0.25783 14.58799,-0.5355 1.16324,-0.13884 2.26925,-0.27767 2.47902,-0.2975 0.20975,-0.0199 6.00682,-0.0793 12.87176,-0.13883 14.13033,-0.11901 16.41864,-0.15868 18.24929,-0.33718 0.70556,-0.0595 3.01293,-0.1785 5.11056,-0.238 2.09762,-0.0595 4.69104,-0.15866 5.75893,-0.238 2.0404,-0.15866 2.72689,0.0396 2.72689,0.73384 0,0.1785 0.13348,0.57517 0.30511,0.91234 0.51487,0.95201 0.87719,3.17335 0.97253,5.95004 0.11441,2.77668 0.11441,2.95518 0.0572,12.53473 0,3.53036 0.0191,6.48554 0.0953,6.60454 0.0572,0.0992 0.15256,1.58668 0.20977,3.31219 0.0572,1.72551 0.13348,3.45102 0.19069,3.82786 0.11441,0.99167 0.11441,7.69538 0,8.50855 -0.0572,0.37683 -0.0382,0.7735 0.0382,0.8925 0.24789,0.37684 0.28604,3.23285 0.0381,3.39152 -0.15254,0.0992 -0.17162,0.51567 -0.0763,1.36851 0.19069,1.72551 0.20977,3.17335 0.0191,4.87903 -0.19068,2.02301 -0.17162,5.11703 0.0572,7.04088 0.0953,0.87267 0.28604,2.61801 0.40045,3.86752 0.11442,1.2495 0.30512,2.77668 0.41954,3.37169 0.11441,0.595 0.19069,1.22967 0.17162,1.38834 -0.11442,0.73384 -0.0763,2.00318 0.11442,3.37168 0.11442,0.81317 0.22883,2.00318 0.22883,2.61802 0,0.61484 0.0763,1.34868 0.17162,1.60651 0.2479,0.6545 0.41952,3.80802 0.38138,6.88221 -0.0953,5.96986 -0.0572,11.76124 0.0572,13.68508 0.32419,5.17653 0.3814,9.22255 0.1335,9.81756 -0.15256,0.39667 -0.20977,1.50734 -0.17163,3.37169 0.0763,2.91552 0.0572,5.21619 0,6.54504 -0.0572,0.99166 0.32417,7.6557 0.53394,9.44071 0.0953,0.73384 0.0953,1.98334 0.0191,2.77669 -0.0572,0.81316 -0.0763,2.00317 -0.0191,2.65767 0.0953,1.22968 0.13348,3.01469 0.0953,5.75171 0,0.87268 0,2.26101 0,3.07419 0,0.81316 -0.0382,1.88417 -0.0953,2.36017 -0.0572,0.49585 -0.0191,1.09085 0.0763,1.32885 0.13349,0.2975 0.15255,1.03133 0.0382,2.10234 -0.0953,0.91233 -0.11442,2.57834 -0.0572,3.72869 0.0763,1.150343 0.19069,3.332026 0.26697,4.859191 0.0763,1.527182 0.20976,2.95519 0.28604,3.173361 0.0763,0.218159 0.15255,1.785011 0.15255,3.470853 0,4.224522 0.20977,7.437541 0.55301,8.726724 0.15256,0.595001 0.32418,2.02301 0.3814,3.173344 0.0381,1.150334 0.19068,2.578342 0.34324,3.17335 0.13348,0.595001 0.3051,1.765181 0.38137,2.578359 0.0763,0.813161 0.20977,1.765165 0.30513,2.082509 0.28603,0.991662 0.47672,5.493863 0.3623,8.548211 -0.0382,0.773502 -0.0191,1.487507 0.0382,1.58668 0.17162,0.277675 0.43858,11.820735 0.38137,16.045265 -0.0191,2.06267 -0.13348,4.20468 -0.22883,4.76003 -0.22883,1.20983 -0.3051,13.98258 -0.0953,17.2551 0.0763,1.30901 0.22884,2.59817 0.32417,2.87585 0.11441,0.27767 0.22883,1.20984 0.26697,2.08251 0.0572,0.87268 0.15257,2.02301 0.2479,2.57834 0.0763,0.53551 0.1335,2.53869 0.0954,4.42287 -0.0382,3.35185 -0.0572,3.47086 -0.55301,4.22453 -0.30511,0.51566 -0.45767,0.93216 -0.38138,1.19001 0.0763,0.238 0.0381,0.37683 -0.11441,0.37683 -0.1335,0 -0.17162,0.0595 -0.11442,0.119 0.0763,0.0793 -0.15256,0.476 -0.4958,0.87267 -1.22043,1.48752 -1.39206,1.72552 -1.31579,1.96352 0.0382,0.119 -0.0572,0.21816 -0.22882,0.21816 -0.15256,0 -0.36232,0.119 -0.4386,0.27767 -0.0763,0.13883 -0.43859,0.4165 -0.76277,0.595 -0.34325,0.1785 -0.62929,0.39668 -0.62929,0.49584 0,0.0992 -0.51487,0.21817 -1.14415,0.29749 -0.61022,0.0793 -1.4874,0.33718 -1.94507,0.59501 -0.85812,0.49585 -2.76504,0.71401 -7.01748,0.833 -0.99161,0.0198 -2.97481,0.13885 -4.38594,0.25785 -1.41113,0.119 -3.16549,0.25783 -3.90919,0.2975 -0.72464,0.0595 -2.09763,0.1785 -3.0511,0.29751 -6.46448,0.7735 -34.78235,1.09083 -48.53128,0.5355 -2.15484,-0.0992 -7.28447,0.119 -9.43929,0.39665 -0.30511,0.0397 -1.98321,0.15868 -3.71851,0.27768 -3.08923,0.19833 -5.32033,0.43633 -7.47516,0.77351 -0.59115,0.0992 -2.55527,0.19832 -4.3478,0.19832 -1.7925,0.0198 -4.34779,0.15868 -5.68263,0.33718 -1.33485,0.15867 -4.00455,0.37683 -5.94962,0.476 -1.94506,0.0992 -4.04269,0.25783 -4.67197,0.37683 -0.62929,0.0992 -2.76504,0.19835 -4.76732,0.21818 -1.98321,0 -4.48127,0.0992 -5.53009,0.21817 -1.92599,0.1785 -8.65744,0.45616 -10.96482,0.43633 -0.6865,0 -3.03201,-0.0198 -5.24405,-0.0595 -3.41341,-0.0397 -10.12579,0.15867 -17.92512,0.49583 -1.04882,0.0595 -2.49807,0.1785 -3.24178,0.2975 -0.81997,0.119 -2.34552,0.13884 -3.90919,0.0397 -1.41114,-0.0793 -2.95575,-0.0793 -3.43247,0.0199 -1.02974,0.19834 -8.27607,0 -9.62999,-0.27766 -0.51487,-0.0992 -1.50647,-0.21817 -2.19296,-0.25785 -4.04269,-0.27765 -4.7864,-0.357 -7.91375,-0.833 -0.76278,-0.0992 -12.83361,-0.37683 -15.16007,-0.31733 -4.38593,0.0793 -10.92669,0.476 -11.40342,0.67433 -0.89626,0.37685 -10.92669,0.55535 -11.34622,0.19835 -0.15255,-0.13885 -0.4958,-0.15868 -0.97254,-0.0397 -0.68649,0.15868 -1.39205,0.11901 -2.00227,-0.0992 -0.13348,-0.0595 -1.60182,-0.15865 -3.24177,-0.21816 -4.04269,-0.15867 -3.90921,-0.15867 -4.11896,-0.39667 -0.0953,-0.13883 -0.4386,-0.2975 -0.72464,-0.357 -0.3051,-0.0793 -0.59114,-0.31733 -0.70556,-0.595 -0.0953,-0.27768 -0.32418,-0.53551 -0.51487,-0.59501 -0.28603,-0.0992 -1.04881,-1.13051 -1.12509,-1.50734 0,-0.0595 -0.11441,-0.33717 -0.22883,-0.6545 -0.59114,-1.38835 -0.64835,-1.72551 -0.68649,-3.11387 -0.0382,-1.6065 -0.45766,-2.77667 -0.9916,-2.77667 -0.32418,0 -0.32418,-1.05118 0.0572,-7.23921 0.15254,-2.73702 0.15254,-6.12854 -0.0191,-6.40622 -0.0572,-0.11899 -0.11442,-0.595 -0.11442,-1.071 0.0191,-0.476 -0.0381,-2.38001 -0.0763,-4.22452 -0.2479,-7.99288 -0.32418,-18.50462 -0.13348,-19.43678 0.0953,-0.5355 0.11441,-1.07101 0.0191,-1.19 -0.0763,-0.0992 -0.20977,-0.83301 -0.26698,-1.58668 -0.20975,-2.85602 -0.41952,-4.77986 -0.553,-4.99803 -0.22883,-0.37683 -0.32418,-1.62634 -0.43859,-5.61287 -0.19069,-7.397887 -0.2479,-9.063895 -0.45767,-14.180927 -0.11442,-2.836172 -0.24789,-7.616042 -0.28604,-10.610891 -0.0572,-2.994843 -0.15256,-6.267366 -0.19069,-7.239216 -0.13349,-2.102338 -0.11441,-4.660851 0.0191,-4.898857 0.0572,-0.09917 0.0191,-0.456175 -0.0953,-0.813177 -0.28604,-0.892506 -0.43859,-14.220579 -0.19069,-15.727919 0.0953,-0.63468 0.22883,-2.28084 0.26697,-3.64935 0.0381,-1.36851 0.20975,-3.31219 0.38138,-4.3237 0.30511,-1.76518 0.30511,-1.86434 -0.0191,-2.24118 -0.4958,-0.57516 -1.4874,-0.43633 -1.9832,0.238 -0.22884,0.33717 -0.30511,0.595 -0.19069,0.67435 0.2479,0.15865 0.2479,1.94366 0,2.20151 -0.11442,0.119 -0.11442,0.595 -0.0191,1.28916 0.17162,1.07101 0.0572,2.22136 -0.28604,2.77669 -0.0953,0.15867 -0.1907,2.85602 -0.22883,6.02936 -0.0191,3.15353 -0.0572,6.009542 -0.0572,6.346715 -0.0191,1.090836 0.15255,6.941713 0.20975,6.941713 0.0191,0 0.0763,0.971833 0.11442,2.181671 0.0191,1.190003 0.0954,3.074187 0.15256,4.165023 0.0572,1.090852 0.15256,5.374878 0.20976,9.520055 0.0572,4.145199 0.15255,8.746552 0.20976,10.214236 0.13349,3.788191 0.20977,6.168209 0.36232,11.602564 0.0572,2.61802 0.17163,4.89886 0.22883,5.05753 0.0763,0.15867 0.0953,0.45618 0.0763,0.63468 -0.0191,0.1785 0.13349,1.28917 0.34325,2.47917 0.45767,2.61802 0.49581,3.41136 0.38139,8.68705 -0.0191,0.97185 0.0381,3.64937 0.0953,5.95004 0.0763,2.28086 0.17162,6.20788 0.20976,8.72673 0.0763,4.68069 0.20977,8.05237 0.3814,10.05555 0.0572,0.63468 0.0191,1.50734 -0.0953,1.98334 -0.13349,0.45618 -0.2479,2.47919 -0.28605,4.5022 -0.0382,2.57834 -0.13347,3.86753 -0.3051,4.2642 -0.22883,0.51566 -0.20977,0.59501 0.26696,1.03134 0.30512,0.25782 0.66743,0.476 0.81999,0.476 0.20975,0 0.26696,0.2975 0.26696,1.34868 0,1.09083 0.0572,1.38833 0.36233,1.62633 0.20975,0.13884 0.34325,0.35701 0.28603,0.43633 -0.0572,0.0992 0.0191,0.39668 0.19069,0.65451 0.17163,0.25785 0.30511,0.75368 0.30511,1.07101 0,0.39667 0.15256,0.714 0.47674,0.97185 0.26696,0.21816 0.47673,0.5355 0.47673,0.69415 0,0.39668 0.89626,1.13051 1.35392,1.13051 0.19069,0 0.47672,0.21818 0.64835,0.45618 0.34325,0.55533 1.0488,0.93218 1.71623,0.93218 0.2479,0 0.95347,0.13883 1.56368,0.31733 0.61022,0.15867 1.79252,0.33717 2.63156,0.37682 0.83905,0.0397 1.84973,0.11901 2.26925,0.19835 0.51487,0.0992 0.78184,0.0793 0.87718,-0.0992 0.11442,-0.19833 0.41953,-0.19833 1.25857,-0.0595 1.88786,0.31733 10.85042,0.0793 16.09447,-0.4165 1.7353,-0.15868 4.67197,-0.33718 6.54076,-0.39668 1.88786,-0.0396 3.45153,-0.13882 3.50874,-0.1785 0.0382,-0.0595 1.25857,-0.0396 2.68877,0.0198 1.4302,0.0595 3.39433,0.13882 4.32873,0.15865 0.95345,0.0199 2.36458,0.13885 3.14643,0.25785 0.80091,0.119 2.05948,0.1785 2.86039,0.0992 0.80091,-0.0595 2.21202,-0.0198 3.14643,0.0992 0.95345,0.13882 2.7841,0.31733 4.09988,0.4165 1.31578,0.0992 2.82226,0.238 3.33713,0.2975 0.53394,0.0595 1.56368,0.15868 2.28832,0.19833 0.7437,0.0397 2.28831,0.13885 3.43247,0.19834 1.16322,0.0793 2.26923,0.13884 2.479,0.11901 0.20976,-0.0199 2.40273,-0.0199 4.86266,-0.0199 2.45994,0 5.20591,-0.0793 6.10217,-0.19833 4.51942,-0.5355 11.70853,-0.77351 22.86405,-0.77351 5.93055,0 11.32715,-0.0793 12.29968,-0.19833 4.00455,-0.47599 6.0259,-0.63467 6.19752,-0.51567 0.11442,0.0595 1.54461,0.0198 3.20364,-0.0992 1.65902,-0.119 3.73757,-0.25783 4.63383,-0.31733 0.89625,-0.0595 3.33712,-0.238 5.43474,-0.39668 2.09761,-0.15865 4.97708,-0.33715 6.3882,-0.37682 4.99616,-0.15868 7.17006,-0.31734 8.39048,-0.59501 0.6865,-0.15867 2.53621,-0.31733 4.0999,-0.37683 1.58274,-0.0595 3.83293,-0.238 5.03429,-0.4165 3.27991,-0.47601 7.68491,-0.47601 25.95327,0.0198 2.99388,0.0793 4.65291,0.0595 4.99616,-0.0992 0.36231,-0.13883 0.68649,-0.13883 1.08695,0 0.38137,0.13884 0.78183,0.13884 1.2967,0 0.45766,-0.13883 4.38593,-0.21816 10.64065,-0.21816 7.51331,-0.0198 10.39276,-0.0793 11.99458,-0.31734 1.16322,-0.15866 2.28831,-0.33716 2.49808,-0.39666 0.20975,-0.0794 1.31578,-0.15868 2.479,-0.19835 1.14415,-0.0396 2.61249,-0.15866 3.24178,-0.27765 1.01066,-0.19835 2.40273,-0.25785 9.85881,-0.45618 1.02974,-0.0198 1.86877,-0.119 1.86877,-0.19833 0,-0.0992 0.0763,-0.119 0.15256,-0.0595 0.2479,0.15866 0.9916,-0.45617 0.9916,-0.79335 0,-0.238 0.24791,-0.2975 1.10603,-0.27765 1.48741,0 2.32644,-0.1785 2.479,-0.57518 0.0763,-0.19833 0.41952,-0.595 0.78185,-0.93218 1.33484,-1.20983 2.15481,-2.20151 2.51714,-2.99484 0.20975,-0.45618 0.49579,-0.91234 0.64835,-0.99168 0.13348,-0.0793 0.26697,-0.21816 0.26697,-0.31733 0,-0.0793 0.15255,-0.43633 0.32417,-0.79333 0.1907,-0.33718 0.36233,-0.91236 0.40046,-1.22968 0.0191,-0.33718 0.11441,-0.73384 0.17162,-0.89251 0.1907,-0.476 0.22883,-4.28402 0.0572,-6.34671 -0.0953,-1.03134 -0.20976,-2.63785 -0.26696,-3.57002 -0.0763,-0.93216 -0.26698,-2.57834 -0.41954,-3.66918 -0.41951,-2.65768 -0.47673,-15.86676 -0.0953,-21.24162 0.26696,-3.86753 0.32416,-9.91674 0.13348,-14.06194 -0.0572,-1.309 -0.11442,-4.34352 -0.0953,-6.743362 0,-3.232848 -0.0763,-4.740201 -0.30511,-5.850866 -0.17162,-0.813172 -0.3051,-1.884178 -0.28604,-2.360183 0,-0.495834 -0.0763,-0.991679 -0.15256,-1.090835 -0.17162,-0.238 -0.40045,-2.042857 -0.49579,-3.887366 -0.0191,-0.595007 -0.15255,-1.348664 -0.28604,-1.685837 -0.11441,-0.317333 -0.26697,-1.348681 -0.30511,-2.280844 -0.0572,-0.932175 -0.17163,-2.082515 -0.26696,-2.57836 -0.30512,-1.507336 -0.40046,-3.133674 -0.47674,-7.040869 -0.0381,-2.082514 -0.20976,-4.918702 -0.38138,-6.346711 -0.22883,-1.864338 -0.30512,-4.184852 -0.30512,-8.528374 0,-3.27252 0,-6.94172 0,-8.13172 -0.0191,-2.81635 -0.0191,-3.43118 0.0191,-5.35503 0.0572,-2.18167 -0.15255,-8.21105 -0.38138,-11.2059 -0.0954,-1.36851 -0.19069,-3.33202 -0.19069,-4.36335 -0.0572,-9.28206 -0.0191,-12.49508 0.11442,-14.37926 0.22882,-3.05435 0.0953,-8.34988 -0.30513,-11.90007 -0.0953,-0.87267 -0.13347,-1.86434 -0.0953,-2.18167 0.19069,-1.34868 0.26696,-4.83938 0.11441,-4.89888 -0.0953,-0.0396 -0.0953,-0.49583 -0.0191,-1.05117 0.22884,-1.3685 0.22884,-4.44269 0,-6.3467 -0.0953,-0.87267 -0.22883,-2.41968 -0.28603,-3.45102 -0.0572,-1.01151 -0.13349,-1.92384 -0.19069,-2.00318 -0.0382,-0.0793 -0.13348,-0.97184 -0.19069,-2.00318 -0.0572,-1.03133 -0.1907,-2.39984 -0.28604,-3.05435 -0.0953,-0.6545 -0.22883,-1.72551 -0.30512,-2.38001 -0.0763,-0.65451 -0.15254,-1.50734 -0.20975,-1.88418 -0.30512,-2.67752 -0.51487,-8.42922 -0.32418,-8.92505 0.0572,-0.15867 0.11441,-2.47919 0.0953,-5.1567 0,-6.42604 0,-7.27888 0.0953,-8.33005 0.0953,-1.36851 0.0763,-2.24118 -0.15255,-5.25587 -0.0953,-1.52717 -0.22883,-4.34352 -0.26697,-6.24753 -0.0382,-1.90401 -0.11442,-3.68902 -0.19069,-3.96669 -0.20977,-0.85284 -0.24791,-3.57002 -0.0763,-5.67237 0.1335,-1.56684 0.11442,-2.20151 -0.0953,-2.93535 -0.22883,-0.7735 -0.22883,-1.03134 -0.0382,-1.36851 0.26698,-0.51567 0.34325,-8.07221 0.0572,-8.07221 -0.0763,0 -0.0953,-0.39668 -0.0382,-0.85284 0.0763,-0.51567 0.0382,-1.09084 -0.0953,-1.44784 -0.1335,-0.31734 -0.28604,-1.07101 -0.38139,-1.66602 -0.30511,-2.47918 -0.51487,-3.23285 -1.02974,-3.96668 -0.13348,-0.15867 -0.34325,-0.61484 -0.47673,-0.99168 -0.36232,-1.05117 -0.85812,-1.38834 -1.926,-1.38834 -0.62929,0 -0.97254,0.0992 -1.04881,0.27767 z"
               id="path9468" />
            <path
               style="stroke-width:0.01944761"
               inkscape:connector-curvature="0"
               d="m -182.32836,-71.696367 c -0.24789,0.0992 -0.4386,0.27767 -0.4386,0.39667 0,0.0992 -0.20975,0.19833 -0.47672,0.19833 -0.26698,0 -1.01068,0.23801 -1.6781,0.51568 -0.85811,0.37683 -1.39206,0.49583 -1.9832,0.4165 -0.45766,-0.0397 -0.87718,-0.0198 -0.93439,0.0793 -0.0572,0.0992 -2.1739,0.15867 -4.71012,0.13883 -2.53621,-0.0198 -5.12963,0 -5.75891,0.0397 -0.62929,0.0397 -2.72691,0 -4.67198,-0.0793 -1.94506,-0.0992 -4.29058,-0.19833 -5.24405,-0.25783 -1.96413,-0.0793 -1.83066,-0.0793 -7.43702,-0.0595 -2.30737,0 -4.78638,-0.0198 -5.53008,-0.0595 -1.65903,-0.0595 -2.19297,0.21817 -2.19297,1.15033 0,1.15034 0.55301,1.26935 5.43474,1.17018 7.57051,-0.15867 10.64065,-0.119 13.15779,0.119 3.22272,0.31733 6.31194,0.357 8.10445,0.0992 0.78184,-0.0992 2.09763,-0.13884 2.9176,-0.0793 3.05108,0.25783 8.56211,-0.0397 9.30581,-0.51568 0.13348,-0.0992 0.57207,-0.238 0.97253,-0.2975 l 0.7437,-0.15867 -0.0953,2.16185 c -0.0763,1.17017 -0.17162,2.28085 -0.22883,2.45935 -0.0763,0.15867 -0.0382,0.4165 0.0572,0.55533 0.0953,0.11901 0.20977,0.97185 0.22883,1.86435 0.0191,0.89251 0.0763,1.90401 0.11441,2.24118 0.0954,0.714 0.34325,6.02937 0.32419,6.68387 -0.0191,0.25784 -0.0191,0.61484 -0.0191,0.79334 0.0191,0.19833 0.0382,3.25269 0.0572,6.80287 0.0191,3.74853 0.0953,6.56488 0.20977,6.74338 0.0953,0.15867 0.19068,1.17017 0.19068,2.22135 0,1.05117 0.0572,1.98334 0.1335,2.04284 0.0572,0.0595 0.0572,0.51567 0,0.99167 -0.0382,0.476 -0.0191,1.03134 0.0572,1.22968 0.20975,0.49583 0.22883,0.67433 0.0953,1.2495 -0.0763,0.27767 -0.0763,1.34868 0,2.38002 0.0763,1.03134 0.0572,2.10235 -0.0381,2.36018 -0.0954,0.27767 -0.0954,0.55534 0.0191,0.69417 0.11441,0.13884 0.15256,0.63467 0.11441,1.11068 -0.0382,0.47599 -0.0191,0.97183 0.0763,1.09083 0.0763,0.0992 0.0953,0.97185 0.0572,1.92385 l -0.0763,1.72551 -0.80091,0.0992 c -0.93439,0.13884 -4.04269,0.29751 -7.45608,0.41651 -1.6781,0.0595 -2.61249,0.0198 -2.9176,-0.13884 -0.28603,-0.15866 -0.4958,-0.15866 -0.57207,-0.0595 -0.11442,0.15867 -3.69945,0.19834 -5.56824,0.0793 -0.26696,-0.0198 -2.19296,0.0198 -4.29059,0.119 -2.09761,0.0793 -5.18683,0.1785 -6.86494,0.238 -1.67808,0.0397 -3.39432,0.0992 -3.81384,0.13883 -2.99389,0.2975 -5.03429,0.37684 -6.38821,0.27767 -0.15256,-0.0198 -0.64835,0 -1.08695,0 -0.72464,0.0397 -0.80091,0.0992 -0.91533,0.65451 -0.0953,0.4165 -0.0572,0.714 0.13349,0.91234 0.26697,0.27766 2.4218,0.8925 2.63155,0.75366 0.0572,-0.0396 0.78185,-0.11899 1.6209,-0.1785 0.83904,-0.0595 1.86878,-0.15866 2.28831,-0.21816 1.02974,-0.13884 4.5957,-0.357 5.53008,-0.33717 0.41954,0 1.27766,0.0199 1.90694,0.0396 0.62929,0.0198 2.1739,-0.0396 3.43247,-0.11901 2.38365,-0.15866 11.17459,-0.11899 13.1578,0.0397 0.62928,0.0595 1.4874,0.0992 1.90692,0.0992 0.95347,0.0198 5.77799,-0.39667 6.31193,-0.5355 0.22882,-0.0595 0.47674,-0.0198 0.55301,0.119 0.0763,0.119 0.26697,0.15867 0.45766,0.0992 0.17162,-0.0595 0.47672,0.0198 0.68649,0.17851 0.41952,0.31733 0.41952,0.4165 0.20977,7.45738 -0.0953,2.67751 -0.17162,5.67236 -0.1907,6.6442 -0.0191,0.99167 -0.11442,1.90401 -0.19069,2.04285 -0.0763,0.13883 -0.0572,0.37683 0.0572,0.51567 0.20977,0.25783 0.4958,7.65571 0.47673,11.9199 -0.0191,1.58668 -0.26696,13.03058 -0.30511,13.78425 0,0.15868 0.0382,1.09084 0.11442,2.08252 0.0572,0.97183 0.13348,2.14201 0.15256,2.57834 l 0.0572,0.79335 -2.26924,0.31733 c -1.23951,0.19833 -3.20364,0.39667 -4.3478,0.45617 -1.14415,0.0595 -2.26925,0.21816 -2.49808,0.33716 -0.22883,0.13885 -1.01066,0.238 -1.75436,0.238 -3.37526,-0.0198 -9.83974,-0.27765 -10.86948,-0.43633 -0.62929,-0.0793 -1.44928,-0.13883 -1.81159,-0.0992 -0.66743,0.0595 -7.68491,0.119 -13.72988,0.0992 -1.7353,-0.0198 -3.45153,-0.0198 -3.85198,-0.0198 -0.81999,0.0198 -1.06789,0.43633 -0.61023,1.1305 0.55302,0.91234 1.22043,1.03134 5.43475,1.01151 2.13575,0 5.12964,0 6.65517,0.0396 1.52554,0.0198 3.6613,-0.0199 4.76732,-0.0992 1.2395,-0.0793 2.44086,-0.0595 3.14644,0.0793 0.62928,0.11899 1.7925,0.19833 2.57435,0.19833 0.78183,0 1.86877,-0.0199 2.38365,-0.0199 0.53395,0 2.28831,0.0595 3.9092,0.13883 1.86879,0.0793 3.54689,0.0595 4.57663,-0.0793 7.22725,-0.97183 7.68492,-1.03134 7.8756,-0.83301 0.70557,0.73384 3.08922,-0.4165 2.6697,-1.28917 -0.11441,-0.238 -0.15256,-4.68069 -0.0953,-11.58273 0.0953,-13.36775 0.0953,-14.85526 -0.0572,-17.05678 -0.13347,-2.00317 -0.17162,-9.42089 -0.0381,-11.40423 0.0381,-0.7735 0,-1.48751 -0.0953,-1.62635 -0.11442,-0.13883 -0.0953,-0.5355 0.0191,-0.99166 0.11442,-0.45617 0.15256,-2.39986 0.0953,-5.01787 -0.0572,-2.34035 -0.13348,-5.37487 -0.15256,-6.74338 -0.0381,-1.3685 -0.11441,-3.41134 -0.19068,-4.56168 -0.13348,-2.00319 -0.19069,-3.39152 -0.38139,-9.4209 -0.0381,-1.52717 -0.13349,-3.35185 -0.20976,-4.06585 -0.0572,-0.71401 -0.15255,-4.28403 -0.20976,-7.93338 -0.0382,-3.64936 -0.13348,-8.38955 -0.19069,-10.51173 -0.0953,-3.64936 -0.11442,-4.3237 -0.0763,-5.41454 0,-0.238 0.0191,-0.91234 0.0191,-1.50734 0,-0.57517 0.0572,-1.20984 0.15255,-1.38834 0.24791,-0.476 0.0953,-4.14519 -0.17162,-4.48236 -0.26696,-0.33717 -1.18229,-0.37684 -1.84972,-0.0992 z"
               id="path9470" />
            <path
               style="stroke-width:0.01944761"
               inkscape:connector-curvature="0"
               d="m -319.93221,-69.197347 c -0.17163,0.19833 -2.45994,0.6545 -2.70784,0.5355 -0.13349,-0.0397 -0.68649,0.0595 -1.22044,0.25783 -0.553,0.17851 -1.02974,0.27767 -1.10601,0.21818 -0.0572,-0.0595 -0.22883,0.0198 -0.40046,0.1785 -0.17162,0.1785 -0.45766,0.25783 -0.70556,0.19833 -0.51487,-0.13884 -2.19297,0.595 -2.19297,0.95201 0,0.13883 -0.19069,0.4165 -0.41952,0.6545 -0.68649,0.61484 -1.23951,1.36851 -1.39205,1.82468 -0.0572,0.21817 -0.32418,0.57517 -0.59116,0.79333 -0.26696,0.21817 -0.45766,0.57518 -0.45766,0.87267 0,0.25784 -0.19069,0.79334 -0.43859,1.17018 -0.57207,0.85284 -1.39207,2.67751 -1.58275,3.43119 -0.0763,0.33717 -0.19069,0.67433 -0.2479,0.79334 -0.0763,0.0992 -0.13349,0.43633 -0.11441,0.73383 0,0.31734 -0.0382,0.55534 -0.0953,0.55534 -0.30511,0 -1.06789,2.14201 -0.97254,2.73702 0.0191,0.15866 -0.0572,0.37683 -0.15256,0.51567 -0.11441,0.13883 -0.20975,0.476 -0.20975,0.73383 0,0.55534 -0.11441,1.88418 -0.36232,3.94686 -0.0953,0.81317 -0.13348,1.54701 -0.0953,1.62634 0.0572,0.0793 -0.0191,0.19834 -0.1335,0.25784 -0.11441,0.0793 -0.13347,0.27766 -0.0572,0.476 0.13349,0.2975 0.34324,2.75685 0.53395,6.56487 0.0572,0.93218 0.15254,2.12218 0.20975,2.67752 0.0572,0.5355 0.1335,1.56684 0.1907,2.28085 0.0381,0.714 0.17162,1.64617 0.28604,2.08251 0.11441,0.43634 0.2479,1.05117 0.3051,1.38834 0.2479,1.80485 0.6865,3.78819 0.83905,3.94686 0.11442,0.119 0.19069,0.357 0.19069,0.55533 0,0.19834 0.20977,0.81317 0.47673,1.34868 0.26698,0.55533 0.4386,0.99167 0.36233,0.99167 -0.0572,0 0.0572,0.2975 0.26696,0.63467 0.20977,0.357 0.32418,0.7735 0.28604,0.91234 -0.0572,0.13883 0,0.37684 0.11441,0.51567 0.1335,0.15866 0.57208,0.97184 0.99161,1.82468 0.43859,0.87267 1.02974,1.78501 1.31579,2.06267 0.28603,0.27767 0.70555,0.91234 0.93438,1.40818 0.20977,0.49584 0.64835,1.20984 0.97254,1.56684 0.3051,0.357 0.61022,0.79334 0.66743,0.97184 0.0572,0.1785 0.87718,1.07101 1.81157,1.98335 0.95347,0.91234 1.71623,1.82468 1.71623,2.00318 0,0.19833 0.34325,0.595 0.76278,0.8925 0.41952,0.2975 0.76277,0.61484 0.76277,0.67434 0,0.13883 1.02974,1.42801 2.44087,3.01468 0.43858,0.49584 0.80091,1.03134 0.80091,1.17018 0,0.27767 0.62929,1.4875 1.62088,3.07418 0.34325,0.53551 0.66743,1.28918 0.74371,1.66601 0.0572,0.37684 0.32418,0.97184 0.59114,1.32884 0.26697,0.357 0.47674,0.77351 0.47674,0.93218 0,0.13883 0.20975,0.714 0.47673,1.2495 0.26697,0.53551 0.57207,1.50735 0.68649,2.14202 0.11441,0.6545 0.36231,1.50734 0.55301,1.88417 0.51487,1.01151 0.61021,1.36851 0.6865,2.59818 0.0953,1.42802 0.0763,3.7882 -0.0191,3.9667 -0.0381,0.0595 0,0.63466 0.0763,1.24951 0.11442,0.85284 0.0763,1.19001 -0.11441,1.34866 -0.1335,0.11901 -0.24791,0.51568 -0.24791,0.87268 0,0.33717 -0.0572,0.69418 -0.13348,0.77351 -0.0763,0.0595 -0.17163,0.5355 -0.20977,1.05118 -0.0381,0.51565 -0.28604,1.50733 -0.53393,2.22134 -0.26698,0.714 -0.61023,1.74534 -0.78185,2.30068 -0.34325,1.19001 -1.4874,3.58985 -1.79251,3.76835 -0.11441,0.0793 -0.36231,0.49584 -0.53393,0.91234 -0.61022,1.38835 -3.48968,4.12536 -4.90081,4.64102 -0.32418,0.0992 -0.7437,0.35701 -0.91532,0.55535 -0.19069,0.1785 -0.41952,0.33716 -0.53394,0.33716 -0.11442,0 -0.64836,0.21817 -1.1823,0.49584 -0.53393,0.25783 -1.35392,0.51567 -1.83065,0.53551 -0.47672,0.0396 -0.95347,0.15866 -1.08695,0.27766 -0.36231,0.357 -1.39205,0.0793 -1.62088,-0.43633 -0.11441,-0.25783 -0.26697,-0.4165 -0.36233,-0.37684 -0.0763,0.0595 -0.24789,-0.0198 -0.40045,-0.15867 -0.15255,-0.1785 -0.40046,-0.21817 -0.62929,-0.119 -0.64834,0.25783 -1.43019,0.19833 -1.54461,-0.119 -0.0763,-0.15867 -0.20975,-0.2975 -0.3051,-0.2975 -0.11442,0 -0.70556,-0.357 -1.33484,-0.79333 -1.29672,-0.89251 -1.41113,-0.93218 -1.90694,-0.45618 -0.22883,0.21817 -0.41952,0.25783 -0.53393,0.13883 -0.11442,-0.119 -0.45767,-0.1785 -0.76277,-0.119 -0.47674,0.0794 -0.57208,0.1785 -0.57208,0.61485 0,0.61483 0.36231,1.0115 1.94506,2.06267 0.59115,0.39667 1.27764,0.97185 1.52554,1.26935 0.24791,0.31733 0.64836,0.67433 0.89626,0.81316 0.4958,0.2975 1.16322,0.13884 1.16322,-0.25783 0,-0.15867 0.0953,-0.33718 0.20976,-0.4165 0.22884,-0.13883 0.64836,0.21817 0.64836,0.57517 0,0.2975 2.3646,0.238 3.81385,-0.0793 2.25017,-0.51566 5.49195,-1.84451 7.15098,-2.95518 0.15256,-0.119 0.45767,-0.27767 0.66743,-0.37684 0.76277,-0.357 4.19523,-4.08569 4.57663,-4.97819 0.20975,-0.49585 0.47672,-0.99167 0.59114,-1.09085 0.34325,-0.31733 1.2395,-2.32051 1.25857,-2.81635 0.0191,-0.0793 0.15256,-0.25782 0.34325,-0.39667 0.19069,-0.13883 0.41951,-0.75366 0.57208,-1.4875 0.11441,-0.69417 0.32418,-1.42801 0.43859,-1.64617 0.11442,-0.21818 0.19069,-0.51568 0.15255,-0.65451 -0.0191,-0.15867 0.0572,-0.37684 0.17162,-0.5355 0.20977,-0.25785 0.47674,-1.60651 0.72464,-3.57002 0.11442,-0.91235 0.13348,-4.22453 0.0572,-6.20788 -0.0191,-0.45617 -0.20977,-1.66601 -0.4386,-2.67752 -0.20975,-0.99166 -0.43858,-2.20151 -0.47673,-2.65768 -0.0572,-0.45617 -0.20976,-0.93217 -0.36231,-1.071 -0.15256,-0.119 -0.26697,-0.35701 -0.26697,-0.51567 0,-0.15867 -0.0953,-0.47601 -0.22884,-0.71401 -0.13347,-0.238 -0.24789,-0.61483 -0.28603,-0.833 -0.0382,-0.19833 -0.40046,-1.03134 -0.81998,-1.82468 -0.41953,-0.7735 -0.76278,-1.54701 -0.76278,-1.70568 0,-0.15866 -0.15254,-0.4165 -0.32416,-0.55533 -0.17163,-0.15867 -0.70558,-1.13051 -1.1823,-2.16185 -0.83906,-1.80484 -1.06789,-2.18168 -2.05949,-3.25268 -0.2479,-0.25784 -0.43859,-0.53551 -0.43859,-0.65451 0,-0.13883 -1.75437,-2.18168 -3.22271,-3.72869 -0.20976,-0.238 -0.4386,-0.6545 -0.4958,-0.93217 -0.0953,-0.35701 -0.45767,-0.75367 -1.04881,-1.15034 -1.01068,-0.67434 -2.21204,-1.94368 -2.76504,-2.93535 -0.20976,-0.33717 -0.43859,-0.63467 -0.51487,-0.63467 -0.0763,0 -0.15256,-0.15867 -0.15256,-0.37684 0,-0.19833 -0.34325,-0.7735 -0.76276,-1.26934 -0.7437,-0.87267 -3.75665,-7.19954 -3.54689,-7.41771 0.0572,-0.0595 -0.0763,-0.2975 -0.28604,-0.5355 -0.20977,-0.21817 -0.34324,-0.57517 -0.28604,-0.75368 0.0381,-0.19833 0.0191,-0.357 -0.0572,-0.357 -0.0763,0 -0.15256,-0.119 -0.17163,-0.25783 -0.0382,-0.4165 -0.24791,-1.40818 -0.36232,-1.72551 -0.0763,-0.15867 -0.11442,-0.357 -0.0953,-0.43633 0.0191,-0.0793 -0.0572,-0.71401 -0.17162,-1.38835 -0.19071,-1.17017 -0.45767,-3.43118 -0.62929,-5.21619 -0.0382,-0.43634 -0.17162,-1.42801 -0.28604,-2.18169 -0.40046,-2.51885 -0.47674,-9.24238 -0.1335,-11.64223 0.32419,-2.20152 0.91533,-4.5022 1.63997,-6.40621 0.0763,-0.21816 0.28604,-0.8925 0.45766,-1.48751 0.17163,-0.595 0.55301,-1.50734 0.83905,-2.02301 0.28605,-0.51566 0.85812,-1.52717 1.25857,-2.24118 1.25858,-2.24118 2.80319,-3.43119 4.63384,-3.57002 0.34324,-0.0198 0.72462,-0.13884 0.85811,-0.238 0.13349,-0.119 0.85812,-0.31734 1.58275,-0.43634 4.51941,-0.714 6.35006,-0.81316 7.34167,-0.357 0.36232,0.15867 1.04881,0.45617 1.52554,0.65451 0.47674,0.19833 0.9344,0.476 1.01067,0.61483 0.0763,0.13884 0.26698,0.25784 0.41952,0.25784 0.15256,0 0.57208,0.27766 0.95347,0.61483 0.57208,0.51568 0.78185,0.61484 1.33484,0.51568 1.22045,-0.19834 1.60183,-1.11068 0.82,-1.86435 -0.24792,-0.21817 -0.64837,-0.476 -0.89627,-0.55534 -0.62928,-0.19833 -1.7353,-0.8925 -1.7353,-1.09084 0,-0.0992 -0.28603,-0.238 -0.61021,-0.2975 -0.34325,-0.0793 -0.97254,-0.31733 -1.39206,-0.55533 -0.66743,-0.33718 -0.95347,-0.37684 -2.6697,-0.25784 -2.04042,0.15867 -3.43247,0.15867 -3.92828,0.0198 -0.15254,-0.0595 -0.34324,-0.0397 -0.41951,0.0198 z"
               id="path9472" />
            <path
               style="stroke-width:0.01944761"
               inkscape:connector-curvature="0"
               d="m -290.31763,-68.503177 c -0.59116,0.2975 -0.6865,0.43633 -0.78185,1.28917 -0.0572,0.53551 -0.0382,1.17018 0.0572,1.42801 0.0763,0.25784 0.19069,1.05117 0.22883,1.76518 0.0382,0.714 0.17162,1.38834 0.28604,1.50734 0.11442,0.119 0.20977,0.4165 0.20977,0.65451 0,0.25783 0.0763,0.49583 0.15254,0.55533 0.0954,0.0595 0.15256,0.59501 0.1335,1.20984 -0.0191,0.595 0.0191,1.09084 0.0953,1.09084 0.26698,0 0.76278,2.16184 0.76278,3.29236 0,0.6545 0.13349,1.68584 0.26696,2.28084 0.15256,0.61484 0.28604,1.28918 0.28604,1.48751 0.0191,0.6545 0.20977,3.72869 0.26698,4.24436 0.0382,0.27767 0.17162,0.69417 0.3051,0.952 0.13349,0.25784 0.19071,0.59501 0.13349,0.75368 -0.0572,0.15866 0.0381,0.85283 0.20976,1.52717 0.17162,0.67434 0.28604,1.58668 0.26697,2.00318 0,0.43633 0.0954,0.97184 0.2479,1.20984 0.26697,0.4165 0.57207,1.58668 0.8772,3.35185 0.0953,0.53551 0.38137,1.42801 0.64834,1.98335 0.26698,0.55534 0.53394,1.26934 0.61023,1.56684 0.0572,0.31734 0.36231,1.03134 0.66741,1.58668 0.30512,0.57517 0.55302,1.17017 0.55302,1.34867 0,0.15867 0.0953,0.39667 0.20976,0.51567 0.2479,0.25784 1.12508,2.41969 1.12508,2.77669 0,0.13883 0.1907,0.45616 0.4386,0.73383 0.22883,0.25784 0.72464,1.22968 1.06788,2.14201 0.36231,0.89251 0.72462,1.72552 0.81997,1.82468 0.0763,0.11901 0.15256,0.37684 0.15256,0.59501 0.0191,1.09084 1.4302,4.00635 2.49807,5.09719 0.45766,0.47601 1.25857,1.09084 1.77344,1.36851 0.51487,0.27767 1.1251,0.61484 1.37299,0.75367 0.62928,0.357 2.49808,0.67434 3.18457,0.5355 0.61022,-0.11899 1.22043,-0.31733 1.94507,-0.61483 0.20976,-0.0793 0.47672,-0.15867 0.57207,-0.1785 0.11442,0 0.40046,-0.15867 0.66743,-0.31734 2.26924,-1.48751 3.01294,-1.92384 3.10829,-1.84451 0.28604,0.31734 3.18457,-2.55851 3.18457,-3.15352 0,-0.1785 0.0953,-0.37683 0.19069,-0.43633 0.28604,-0.1785 2.32646,-4.48236 2.21204,-4.6212 -0.0572,-0.0595 -0.0191,-0.19833 0.0763,-0.33717 0.0954,-0.11899 0.20977,-0.39666 0.2479,-0.61483 0.0382,-0.19834 0.15256,-0.59501 0.26697,-0.87267 0.47673,-1.17018 0.85812,-2.95519 1.10602,-5.0972 0.0763,-0.57517 0.1907,-1.09084 0.28604,-1.15034 0.13349,-0.0793 0.38139,2.16185 0.38139,3.55019 0.0191,0.31733 0.0953,0.714 0.19068,0.91234 0.0954,0.1785 0.20977,0.55533 0.26698,0.81317 0.0382,0.25783 0.38139,1.38834 0.76277,2.49901 0.38139,1.11067 0.68649,2.20151 0.68649,2.39985 0,0.19834 0.17162,0.5355 0.38139,0.73384 0.22883,0.21816 0.38139,0.61483 0.38139,0.99167 0,0.69417 0.38138,1.68584 0.66742,1.68584 0.11441,0.0198 0.40045,0.45617 0.64836,1.01151 0.45766,0.95201 1.96413,2.59818 3.18456,3.47085 0.32418,0.23801 1.04882,0.5355 1.6209,0.69418 0.57207,0.13883 1.12507,0.31733 1.22043,0.37683 0.22882,0.15867 2.47899,-0.0793 3.81385,-0.39667 0.53394,-0.119 1.16323,-0.238 1.4302,-0.25783 0.26696,-0.0198 0.53394,-0.11901 0.59114,-0.19834 0.0572,-0.0992 0.81997,-0.476 1.67809,-0.83301 2.13577,-0.91234 6.69331,-4.66085 6.69331,-5.51369 0,-0.17851 0.11442,-0.39667 0.2479,-0.47601 0.11442,-0.0793 0.22883,-0.25783 0.22883,-0.357 0.0191,-0.119 0.19071,-0.595 0.41954,-1.09084 0.22883,-0.49584 0.553,-1.42801 0.72462,-2.08251 0.17163,-0.65451 0.4386,-1.54701 0.57208,-1.98335 0.15256,-0.43633 0.32418,-1.24951 0.38139,-1.78501 0.0763,-0.55534 0.17162,-1.1305 0.22883,-1.28917 0.19069,-0.476 0.20977,-0.59501 0.53394,-2.77668 0.17162,-1.15034 0.53394,-2.93535 0.8009,-3.9667 0.28604,-1.1305 0.51487,-2.59818 0.55302,-3.66919 0.0382,-0.99166 0.19069,-2.32051 0.34325,-2.95518 0.15255,-0.6545 0.22883,-1.28917 0.17162,-1.44784 -0.0572,-0.13884 0,-0.39667 0.13348,-0.55534 0.1335,-0.15866 0.17162,-0.51566 0.11441,-0.833 -0.0763,-0.2975 0.0191,-1.19001 0.19071,-1.94368 0.15254,-0.7735 0.32416,-2.28084 0.36231,-3.37169 0.0382,-1.09084 0.11441,-2.34034 0.17162,-2.77668 0.0953,-0.714 0.13348,-7.77471 0.0572,-10.01589 -0.0191,-0.49584 0.0191,-1.11067 0.0953,-1.38834 0.19069,-0.67434 -0.0382,-0.99168 -0.85811,-1.19001 -1.23952,-0.27767 -1.29672,-0.13883 -1.08696,3.43119 0.11442,1.7255 0.15255,3.76835 0.0953,4.56169 -0.19068,2.83618 -0.85812,9.99606 -1.06787,11.24557 -0.11441,0.714 -0.1907,1.68584 -0.17162,2.18168 0,0.49584 -0.1335,1.78501 -0.28604,2.87585 -0.17162,1.09084 -0.34325,2.34035 -0.36233,2.77668 -0.0763,0.89251 -0.38137,2.59818 -0.8009,4.28403 -0.15255,0.595 -0.30511,1.62634 -0.34325,2.28084 -0.0381,0.63467 -0.15255,1.40818 -0.26696,1.68584 -0.22884,0.59501 -0.45767,1.46768 -0.91533,3.64936 -0.1907,0.87268 -0.4386,1.76518 -0.57208,1.98335 -0.13349,0.21817 -0.30511,0.75367 -0.38139,1.17017 -0.0763,0.4165 -0.3051,1.09084 -0.53393,1.48751 -1.10602,1.94368 -1.58276,2.59818 -1.90692,2.71718 -0.19071,0.0595 -0.76278,0.53551 -1.25858,1.05117 -0.89626,0.89251 -2.44087,2.00319 -2.80318,2.00319 -0.0953,0 -0.53395,0.1785 -0.97253,0.39666 -0.41953,0.21817 -0.99161,0.39667 -1.23951,0.39667 -0.26697,0 -0.85812,0.1785 -1.33484,0.39667 -0.7437,0.357 -1.10603,0.39667 -2.45994,0.27767 -0.8772,-0.0595 -1.65903,-0.238 -1.77344,-0.37684 -0.0953,-0.119 -0.4386,-0.2975 -0.7437,-0.37683 -0.51487,-0.13884 -2.59343,-2.12218 -2.59343,-2.47919 0,-0.0793 -0.2479,-0.49583 -0.553,-0.93217 -0.30512,-0.4165 -0.55301,-0.833 -0.57208,-0.93217 0,-0.0793 -0.1335,-0.43634 -0.28604,-0.81317 -0.13349,-0.357 -0.32418,-0.95201 -0.40045,-1.32884 -0.20977,-1.09084 -0.70558,-2.55852 -0.83905,-2.55852 -0.0763,0 -0.13349,-0.19833 -0.15257,-0.4165 -0.0381,-0.57517 -0.64835,-2.59818 -0.85812,-2.89568 -0.22883,-0.31734 -0.59114,-2.53868 -0.62928,-3.82786 -0.0191,-1.19001 -0.22883,-2.00318 -0.553,-2.22135 -0.36233,-0.25783 -1.06788,-0.1785 -1.1823,0.13884 -0.0763,0.19833 -0.3051,0.27767 -0.7437,0.21817 -0.66743,-0.0992 -1.22043,0.19833 -1.31578,0.67433 -0.0382,0.15867 -0.11442,0.43634 -0.19069,0.61484 -0.0763,0.1785 -0.11441,0.39667 -0.0953,0.49584 0.0382,0.0992 -0.0382,0.5355 -0.15256,0.97184 -0.22883,0.833 -0.51487,2.55851 -0.53393,3.07418 0,0.15867 -0.15256,0.45617 -0.32419,0.67434 -0.17162,0.19833 -0.26695,0.49583 -0.20975,0.63467 0.0572,0.15867 0.0191,0.39667 -0.0763,0.5355 -0.0953,0.11901 -0.34324,0.77351 -0.53393,1.42801 -0.17162,0.65451 -0.57208,1.66601 -0.87718,2.26102 -0.30512,0.595 -0.55302,1.20983 -0.55302,1.34867 0,0.27767 -0.15255,0.51567 -0.8009,1.26934 -0.19069,0.19833 -0.34325,0.45617 -0.34325,0.55534 0,0.0992 -0.19069,0.2975 -0.4386,0.476 -0.43858,0.2975 -0.95345,0.71401 -2.25017,1.88418 -0.40045,0.37683 -0.81997,0.61484 -0.93439,0.5355 -0.0953,-0.0595 -0.1907,-0.0397 -0.1907,0.0595 0,0.0793 -0.66741,0.43634 -1.46832,0.7735 -2.44087,1.01151 -2.70785,1.09085 -3.27993,0.77351 -0.26696,-0.13883 -0.83904,-0.37683 -1.25857,-0.51567 -1.14416,-0.37684 -2.13575,-1.11067 -2.66969,-1.94368 -0.26697,-0.39666 -0.7437,-1.09084 -1.04882,-1.50734 -0.32417,-0.45617 -0.57208,-1.01151 -0.57208,-1.34868 0,-0.31733 -0.17162,-0.91234 -0.38137,-1.32884 -0.45766,-0.97183 -0.95347,-2.39984 -0.95347,-2.83618 0,-0.1785 -0.0763,-0.357 -0.17162,-0.39667 -0.19069,-0.0793 -1.90692,-3.74852 -2.02134,-4.28403 -0.0382,-0.19833 -0.24791,-0.67433 -0.45767,-1.05117 -0.22883,-0.37683 -0.40045,-0.79334 -0.40045,-0.952 0,-0.13884 -0.1907,-0.49584 -0.4386,-0.79334 -0.47672,-0.59501 -1.10601,-2.55852 -2.13575,-6.60454 -0.57208,-2.34035 -1.01068,-4.7997 -1.27765,-7.19955 -0.0953,-0.99167 -0.22883,-1.92384 -0.28604,-2.0825 -0.0572,-0.15868 -0.11441,-0.93218 -0.13348,-1.68585 -0.0191,-0.77351 -0.15256,-1.60651 -0.28604,-1.86435 -0.15256,-0.25783 -0.20976,-0.79333 -0.15256,-1.20983 0.0382,-0.39668 0.0191,-0.87267 -0.0763,-1.05118 -0.0953,-0.15866 -0.20977,-0.73383 -0.26698,-1.26934 -0.11441,-1.40817 -0.17162,-1.72551 -0.36231,-1.86434 -0.15256,-0.13883 -0.4386,-1.48751 -0.59114,-2.95519 -0.0572,-0.37683 -0.17162,-1.03133 -0.26697,-1.44784 -0.0954,-0.39667 -0.13348,-0.73383 -0.0763,-0.73383 0.0572,0 0.0191,-0.11901 -0.0572,-0.25784 -0.0953,-0.119 -0.17163,-1.09084 -0.15256,-2.14202 0,-1.7255 -0.0191,-1.904 -0.38139,-2.0825 -0.28604,-0.13884 -0.59115,-0.0992 -1.06787,0.13883 z"
               id="path9474" />
            <path
               style="stroke-width:0.01944761"
               inkscape:connector-curvature="0"
               d="m -408.16573,-68.146177 c -0.15256,0.0992 -0.32418,0.15867 -0.40046,0.119 -0.0572,-0.0595 -0.36231,0.13883 -0.66742,0.43634 -0.32418,0.31733 -0.97253,0.63467 -1.60182,0.79333 -1.86879,0.43634 -2.86039,0.77351 -3.08922,1.01151 -0.13349,0.13883 -0.38139,0.238 -0.55301,0.238 -0.17162,0 -0.43859,0.13884 -0.57208,0.31734 -0.13348,0.1785 -0.70556,0.61484 -1.2395,0.97184 -0.66742,0.43633 -1.18229,0.99167 -1.52554,1.62634 -0.28604,0.51567 -0.62929,1.09084 -0.76277,1.2495 -0.36232,0.45617 -1.06788,2.53869 -0.9344,2.77669 0.0572,0.0992 0.0191,0.19833 -0.0763,0.19833 -0.11441,0 -0.20976,0.11901 -0.20976,0.27767 0,0.15867 -0.11441,0.4165 -0.22883,0.55534 -0.15255,0.15867 -0.2479,0.87267 -0.2479,1.94368 0,0.93217 -0.0382,2.12218 -0.0572,2.67751 -0.11441,1.86435 0.11442,3.33203 0.70557,4.70053 0.3051,0.75367 0.51487,1.34868 0.45766,1.34868 -0.0763,0 0.0572,0.19833 0.26697,0.43633 0.51487,0.59501 0.81998,1.22967 0.81998,1.72551 0,0.238 0.0763,0.4165 0.19069,0.4165 0.0953,0 0.32418,0.29751 0.4958,0.63468 0.32418,0.67434 2.70784,3.33202 2.99388,3.33202 0.0953,0 0.78184,0.69417 1.52554,1.52717 0.76277,0.85284 2.25017,2.43951 3.33712,3.53036 1.06788,1.09084 1.94507,2.08251 1.94507,2.22134 0,0.13884 0.17162,0.33717 0.38138,0.45617 0.20977,0.119 0.93439,1.40818 1.63996,2.93535 l 1.27764,2.71719 0.0191,3.47085 c 0,3.47085 -0.0572,4.5617 -0.30511,4.5617 -0.0572,0 -0.22883,0.47599 -0.34325,1.03133 -0.13348,0.57517 -0.38138,1.30901 -0.553,1.64618 -0.17163,0.31733 -0.30511,0.69417 -0.30511,0.79334 0,0.119 -0.19069,0.49583 -0.43859,0.833 -0.22884,0.33717 -0.41953,0.69417 -0.41953,0.77351 0,0.238 -1.6781,1.82467 -2.47901,2.36018 -0.36231,0.238 -0.78184,0.39667 -0.89625,0.357 -0.13349,-0.0595 -0.4958,0.0992 -0.81998,0.33717 -0.43859,0.31733 -0.76277,0.4165 -1.20137,0.31733 -2.11668,-0.37683 -2.57435,-0.476 -3.03201,-0.67434 -0.30511,-0.11899 -0.53394,-0.1785 -0.53394,-0.11899 0,0.0793 -0.20976,-0.0199 -0.47673,-0.19834 -0.2479,-0.1785 -0.64835,-0.31733 -0.85812,-0.31733 -0.53393,0 -1.52554,0.55533 -1.52554,0.85283 0.0191,0.33717 1.48741,1.38834 1.79251,1.26935 0.15256,-0.0595 0.45767,0.11899 0.70557,0.39666 0.2479,0.27767 0.64835,0.57517 0.89625,0.67434 0.22883,0.0992 0.41953,0.2975 0.41953,0.476 0,0.33717 0.47673,0.41651 0.66742,0.0992 0.0572,-0.119 0.26697,-0.19833 0.45767,-0.19833 0.19068,0 0.57207,-0.1785 0.83904,-0.39667 0.28604,-0.238 0.7437,-0.39667 1.12509,-0.37684 0.93439,0.0198 2.55528,-0.51567 3.45154,-1.15034 2.25017,-1.58667 4.32872,-4.58153 4.63383,-6.66404 0.0763,-0.45617 0.2479,-0.97184 0.38138,-1.15034 0.4386,-0.51567 0.64836,-2.28085 0.64836,-5.41453 -0.0191,-2.99485 -0.22883,-4.60136 -0.80091,-5.77154 -0.17162,-0.33716 -0.40045,-0.93216 -0.53394,-1.34867 -0.30511,-1.03134 -2.30738,-4.10553 -3.1655,-4.87903 -0.36232,-0.33717 -1.08694,-1.1305 -1.58275,-1.76517 -0.4958,-0.61484 -2.09762,-2.38002 -3.56595,-3.92703 -3.26085,-3.41135 -3.79479,-4.10552 -4.6529,-6.00954 -0.38139,-0.833 -0.83905,-1.82467 -1.04882,-2.20151 -0.43858,-0.85284 -0.45765,-0.93217 -0.47673,-3.92702 -0.0191,-2.75685 0.2479,-4.48236 0.85812,-5.79137 0.22883,-0.49584 0.47673,-1.11067 0.53394,-1.38834 0.26697,-1.11067 2.26924,-3.13369 3.6613,-3.68902 0.32418,-0.13884 1.73531,-0.73384 3.14643,-1.34868 2.21204,-0.95201 2.74597,-1.11067 3.79479,-1.11067 2.13575,0 4.78638,0.59501 5.83519,1.30901 0.30511,0.21816 0.64836,0.27766 1.04881,0.1785 0.64836,-0.15867 0.70557,-0.31734 0.2479,-0.73384 -1.2395,-1.071 -3.54688,-1.84451 -6.35006,-2.12218 -0.89626,-0.0992 -1.79251,-0.238 -2.00228,-0.2975 -0.20976,-0.0595 -0.51487,-0.0397 -0.66742,0.0595 z"
               id="path9476" />
            <path
               style="stroke-width:0.01944761"
               inkscape:connector-curvature="0"
               d="m -103.76456,-78.788397 c -0.3051,0.119 -0.53393,0.31733 -0.53393,0.45617 0,0.5355 0.87718,1.28917 1.71623,1.48751 0.91533,0.21816 3.18458,1.34867 3.83293,1.90401 1.31577,1.17017 1.926,1.92384 1.84971,2.32051 -0.0572,0.23801 0.0191,0.5355 0.15256,0.67434 0.32418,0.31733 0.51487,2.12218 0.38139,3.53035 -0.0572,0.65451 -0.11442,1.38835 -0.13349,1.66601 -0.0381,0.97185 -2.02134,4.83936 -3.29898,6.38638 -1.44927,1.76517 -1.98321,2.18167 -3.3562,2.67751 -0.97253,0.357 -1.02974,0.4165 -1.10601,1.09084 -0.0572,0.57517 0.0191,0.77351 0.34325,0.95201 0.57208,0.31733 2.19296,0.0595 2.72689,-0.43634 0.22884,-0.21817 0.28604,-0.33717 0.1335,-0.25783 -0.15256,0.0793 -0.11442,-0.0198 0.0953,-0.1785 0.20976,-0.1785 0.62928,-0.51568 0.91532,-0.77351 0.62929,-0.51567 2.89853,-3.31218 2.89853,-3.57002 0,-0.0992 0.13349,-0.27767 0.28604,-0.39667 0.3051,-0.25783 1.25857,-2.20151 2.13576,-4.40303 1.2395,-3.09401 0.4386,-7.73504 -1.69716,-9.97622 -1.12509,-1.17018 -3.89013,-2.89568 -4.91987,-3.07418 -1.63996,-0.29751 -1.926,-0.29751 -2.42181,-0.0793 z"
               id="path9478" />
            <path
               style="stroke-width:0.01944761"
               inkscape:connector-curvature="0"
               d="m -102.86829,-36.205977 c -0.47673,0.5355 -0.2479,0.952 0.8009,1.40817 1.90692,0.81317 2.99388,1.50734 3.85199,2.41968 1.22044,1.32884 1.83065,2.00319 1.84973,2.12218 0,0.0595 0.0953,0.31734 0.20975,0.59501 0.11442,0.27767 0.30512,0.75367 0.4386,1.09083 0.26697,0.71401 0.55301,4.72037 0.34324,4.8592 -0.0763,0.0595 -0.17162,0.43634 -0.22883,0.85284 -0.13348,1.13051 -1.14415,3.21302 -2.40272,4.99803 -0.15256,0.21817 -0.78185,0.91234 -1.39205,1.54701 -0.97254,1.03134 -1.16324,1.15034 -1.65903,1.03134 -0.34325,-0.0793 -0.76278,0 -1.12509,0.19833 -0.49581,0.25784 -0.59115,0.43634 -0.59115,0.99168 0,0.63467 0.0953,0.73384 0.83904,1.1305 l 0.81999,0.41651 1.31578,-0.97184 c 2.11669,-1.58668 3.9664,-3.80803 4.7101,-5.6327 0.15256,-0.39667 0.38139,-0.83301 0.53394,-0.99168 0.38139,-0.4165 0.97253,-2.32051 1.02974,-3.31218 0.0382,-0.45617 0.11442,-0.91234 0.17162,-1.03134 0.0763,-0.119 0.11442,-0.95201 0.0954,-1.84451 -0.0382,-1.32884 -0.17163,-1.94368 -0.6865,-3.21302 -0.32418,-0.85284 -0.76277,-1.78501 -0.95347,-2.04285 -0.19069,-0.27767 -0.47673,-0.69417 -0.62928,-0.93217 -0.47673,-0.714 -2.13576,-2.20151 -3.24177,-2.87585 -1.96414,-1.24951 -3.47061,-1.54701 -4.09989,-0.81317 z"
               id="path9480" />
            <path
               style="stroke-width:0.01944761"
               inkscape:connector-curvature="0"
               d="m -102.52505,7.447443 c -0.13348,0.13884 -0.2479,0.41651 -0.2479,0.61485 0,0.27766 0.15255,0.357 0.62929,0.357 0.38138,0 0.89625,0.19833 1.27764,0.49583 0.36231,0.27767 0.78184,0.49583 0.95346,0.49583 0.61021,0 3.05108,1.90402 3.05108,2.38002 0,0.0992 0.15256,0.27767 0.36232,0.37684 0.1907,0.11901 0.40045,0.4165 0.45766,0.65451 0.0382,0.25783 0.22883,0.99166 0.40045,1.64617 0.49581,1.78501 0.59116,2.73701 0.57208,5.2757 -0.0381,2.41968 -0.40045,4.20469 -0.9916,4.6807 -0.17162,0.13882 -0.24789,0.31733 -0.17162,0.37683 0.38139,0.39667 -2.15483,3.51052 -2.93667,3.60969 -0.57207,0.0595 -1.16323,0.7735 -1.08694,1.30901 0.0763,0.57516 0.91532,1.0115 1.60181,0.833 0.34325,-0.0992 1.20137,-0.85284 2.26924,-2.00318 1.58276,-1.68584 1.79252,-1.98334 2.44087,-3.68902 0.97253,-2.59819 1.39206,-6.48554 0.91533,-8.80605 -0.36232,-1.68585 -1.20137,-4.2047 -1.69717,-5.03771 -0.553,-0.952 -1.92599,-2.06267 -3.73758,-3.01467 -1.29671,-0.714 -3.64223,-1.01151 -4.06175,-0.55535 z"
               id="path9482" />
            <path
               style="stroke-width:0.01944761"
               inkscape:connector-curvature="0"
               d="m -100.10325,49.633203 c -1.10602,0.45617 -1.20137,0.91233 -0.2479,1.32883 0.40045,0.1785 0.89626,0.27768 1.10601,0.21817 1.27765,-0.33717 4.74825,1.36851 5.8352,2.85602 0.2479,0.33717 0.64836,0.83301 0.87719,1.07101 0.36231,0.37683 0.43858,0.69417 0.45767,2.02301 0.0191,1.785012 -0.20977,3.768347 -0.53396,4.343525 -0.13347,0.218171 -0.57207,1.150334 -0.99159,2.082515 -0.4386,0.932174 -1.02974,1.963511 -1.31578,2.300684 -0.30511,0.337157 -0.72464,0.852831 -0.95347,1.150334 -0.40045,0.535504 -1.63995,1.507336 -1.90692,1.507336 -0.26697,0 -1.37299,1.309006 -1.37299,1.60651 0,0.515674 0.4386,0.773503 1.29671,0.773503 0.80092,0 0.91533,-0.07933 2.9176,-2.122167 1.14416,-1.150351 2.07855,-2.261015 2.07855,-2.439517 0,-0.198341 0.13348,-0.45617 0.30511,-0.614847 0.55301,-0.475999 1.83064,-3.411344 2.26924,-5.176531 0.85812,-3.550175 0.41952,-5.632685 -1.69717,-8.032545 -1.12508,-1.26933 -2.86039,-2.36017 -4.53848,-2.81635 -1.77344,-0.49583 -2.44087,-0.49583 -3.58502,-0.0595 z"
               id="path9486" />
            <path
               style="stroke-width:0.01944761"
               inkscape:connector-curvature="0"
               d="m -366.5391,50.287703 c -0.1907,0.0992 -0.70557,0.21817 -1.14416,0.238 -0.47674,0.0397 -1.43019,0.37683 -2.25018,0.79333 -0.78183,0.39667 -1.63994,0.75368 -1.90692,0.81318 -0.59114,0.119 -3.92827,3.51052 -3.69944,3.74852 0.0382,0.0397 -0.19069,0.69418 -0.49579,1.48751 -0.30512,0.773503 -0.61023,1.765182 -0.6865,2.161843 -0.0763,0.4165 -0.1907,0.833001 -0.26697,0.952003 -0.22883,0.277675 -0.0954,3.986522 0.15256,5.117033 0.32416,1.428008 0.80091,2.776689 1.08694,3.113862 0.13349,0.158656 0.59115,1.031332 1.01067,1.904008 0.4386,0.892505 0.91532,1.666014 1.08694,1.725512 0.15256,0.07933 0.3814,0.357002 0.47674,0.63466 0.20976,0.575178 2.34553,1.725512 3.33713,1.804857 0.93438,0.07933 2.17389,0.396654 2.45993,0.6545 0.22883,0.19833 0.40045,0.19833 0.81997,-0.01985 0.4386,-0.218159 0.53395,-0.416506 0.57208,-1.011508 0.0382,-0.614831 -0.0191,-0.733833 -0.34324,-0.733833 -0.20976,0 -0.57209,-0.09917 -0.78183,-0.218171 -0.22884,-0.119002 -0.76278,-0.238005 -1.22045,-0.277657 -0.43858,-0.01985 -1.20136,-0.257846 -1.67809,-0.515675 -0.9916,-0.515679 -2.97481,-2.598188 -2.97481,-3.15352 0,-0.178501 -0.13347,-0.456176 -0.28603,-0.595002 -0.15257,-0.138832 -0.3814,-0.614836 -0.49581,-1.071006 -0.11441,-0.436336 -0.32417,-0.95201 -0.45766,-1.110682 -0.13348,-0.158655 -0.40046,-1.229661 -0.59114,-2.380012 -0.30511,-1.963512 -0.30511,-2.161842 0.0191,-3.867525 0.41953,-2.24117 1.54461,-4.760027 2.51714,-5.652527 0.3814,-0.35701 1.06789,-0.81317 1.52555,-1.03134 0.45766,-0.19833 0.81998,-0.43633 0.81998,-0.51567 0,-0.21816 1.92599,-1.19001 2.86038,-1.42801 1.31578,-0.33716 1.96415,-0.63466 2.32646,-1.09083 0.22883,-0.27768 0.24789,-0.43633 0.0953,-0.53551 -0.32418,-0.21817 -1.50648,-0.1785 -1.88786,0.0595 z"
               id="path9488" />
            <path
               style="stroke-width:0.01944761"
               inkscape:connector-curvature="0"
               d="m -97.05216,67.126304 c 0,0.09917 0.13347,0.198324 0.28603,0.198324 0.15255,0 0.28604,-0.09916 0.28604,-0.198324 0,-0.119003 -0.13349,-0.19833 -0.28604,-0.19833 -0.15256,0 -0.28603,0.07933 -0.28603,0.19833 z"
               id="path9510" />
            <path
               style="stroke-width:0.01944761"
               inkscape:connector-curvature="0"
               d="m -369.17065,87.396092 c 0,0.09916 -0.20977,0.158661 -0.45767,0.158661 -0.81999,0 -2.26924,1.745353 -3.16551,3.768363 -0.20975,0.495834 -0.6102,1.328841 -0.85812,1.844515 -0.26696,0.535503 -0.47672,1.170163 -0.47672,1.428008 0,0.238 -0.13348,0.833001 -0.28604,1.309006 -0.45766,1.309006 -0.45766,3.332022 -0.0572,6.168195 0.26697,1.92385 1.41113,3.68902 3.73757,5.75171 0.57208,0.51567 0.83906,0.63467 1.23951,0.57517 0.0763,0 0.13348,0.0595 0.13348,0.15865 0,0.0992 0.28604,0.25785 0.62929,0.31735 0.32418,0.0793 0.83905,0.27766 1.12509,0.4165 0.3051,0.17851 1.25857,0.29751 2.38366,0.33716 l 1.86878,0.0397 0.0572,-0.85283 c 0.0572,-0.81318 0.0382,-0.85285 -0.62929,-1.15035 -0.553,-0.238 -0.95345,-0.25783 -1.83065,-0.119 -0.83903,0.13884 -1.12507,0.119 -1.20136,-0.0793 -0.0572,-0.13883 -0.2479,-0.23801 -0.43858,-0.23801 -0.19071,0.0198 -0.78185,-0.1785 -1.31579,-0.4165 -0.72463,-0.33717 -1.20136,-0.75368 -1.9832,-1.78501 -1.50647,-2.04284 -1.90692,-3.21302 -1.90692,-5.672362 0,-1.963512 0.20974,-3.014689 0.87718,-4.60137 0.15256,-0.337156 0.26697,-0.753662 0.26697,-0.932163 0,-0.595002 1.02974,-2.677516 1.37299,-2.756861 0.22883,-0.0595 0.3051,-0.218153 0.22883,-0.4165 -0.15256,-0.43633 1.20137,-1.844509 1.94507,-2.00317 0.93438,-0.218171 1.83065,-0.694175 1.73529,-0.952004 -0.0382,-0.119003 -0.19068,-0.238 -0.34324,-0.257846 -0.15256,0 -0.34325,-0.03964 -0.45767,-0.07933 -0.38138,-0.138832 -2.19295,-0.09917 -2.19295,0.03969 z"
               id="path9842" />
            <path
               style="stroke-width:0.01944761"
               inkscape:connector-curvature="0"
               d="m -95.75546,89.538105 c -0.91533,0.158661 -1.6781,0.714005 -1.6781,1.190009 0,0.654506 0.55302,0.773503 2.47901,0.595002 l 1.79251,-0.178501 1.27764,0.694164 c 0.83906,0.456175 1.56368,1.071006 2.09763,1.725506 0.80091,0.97185 0.83904,1.090853 0.91532,2.459363 0.0381,1.011502 0,1.447837 -0.17162,1.447837 -0.11442,0 -0.17163,0.158672 -0.0953,0.357002 0.22883,0.773503 -1.29672,3.530343 -2.74598,4.958353 -1.0488,1.03135 -2.87945,2.41969 -3.45153,2.61802 -0.15256,0.0595 -0.76278,0.0992 -1.33486,0.0992 -0.57208,0 -1.16322,0.0793 -1.27764,0.15867 -0.41952,0.27766 -0.26697,1.03133 0.30511,1.60651 0.55301,0.55533 0.59116,0.55533 1.52554,0.31733 0.51487,-0.119 1.02974,-0.1785 1.1251,-0.119 0.11441,0.0595 0.22883,-0.0199 0.28603,-0.1785 0.0763,-0.15868 0.53394,-0.49583 1.02974,-0.77351 1.29671,-0.69417 4.44314,-3.47085 4.44314,-3.90719 0,-0.0793 0.34324,-0.595 0.7437,-1.13051 0.41953,-0.5355 0.85811,-1.34866 0.99161,-1.804836 0.13348,-0.43633 0.28604,-0.813178 0.36231,-0.813178 0.0763,0 0.13348,-0.257829 0.15256,-0.575161 0,-0.337174 0.0953,-0.773503 0.20975,-0.991674 0.49581,-0.93218 -0.11441,-3.451024 -1.14415,-4.839358 -1.01067,-1.36851 -2.97481,-2.51886 -4.93894,-2.895692 -1.23951,-0.237999 -1.60182,-0.237999 -2.89853,-0.01985 z"
               id="path10076" />
            <path
               style="stroke-width:0.01944761"
               inkscape:connector-curvature="0"
               d="m -146.33578,102.26742 c -0.20977,0.15867 -0.64835,0.31734 -0.9916,0.357 -0.34324,0.0595 -1.1823,0.37684 -1.88785,0.73384 -1.10603,0.53551 -1.39207,0.59501 -2.25019,0.49584 -0.97254,-0.13883 -1.01066,-0.11901 -1.60182,0.57517 -0.34324,0.39666 -0.6102,0.67433 -0.6102,0.61484 0,-0.33718 -1.73532,0.91233 -2.87948,2.08251 -0.72462,0.73383 -1.44926,1.40817 -1.62088,1.46768 -0.15256,0.0595 -0.32418,0.27766 -0.40045,0.45616 -0.20977,0.595 -0.91533,1.38835 -1.16323,1.28917 -0.13349,-0.0397 -0.1907,0.0397 -0.11441,0.23801 0.0572,0.15867 -0.0191,0.55533 -0.1907,0.85283 -0.40046,0.75368 -1.63995,4.46253 -1.94507,5.81121 -0.17162,0.833 -0.19069,1.28917 -0.0191,1.92383 0.17163,0.65451 0.15256,0.97185 -0.0953,1.58669 -0.22883,0.63467 -0.2479,1.17017 -0.13348,2.85602 0.20977,2.83619 0.28604,3.21302 0.72464,4.10552 0.49579,1.0115 0.95345,2.28084 1.18228,3.33202 0.11442,0.51567 0.32418,0.87267 0.51487,0.91233 0.1907,0.0595 0.34325,0.29751 0.36233,0.53551 0.0381,0.5355 0.38138,1.0115 0.72462,1.0115 0.1335,0 0.61022,0.2975 1.02974,0.67435 0.4386,0.37683 1.27765,0.97183 1.88786,1.32883 0.59116,0.33718 1.52555,0.91234 2.04042,1.24951 0.53393,0.357 1.46834,0.83301 2.09762,1.07101 0.62929,0.25783 1.39205,0.57518 1.67809,0.73383 0.3051,0.15867 0.72464,0.29751 0.95347,0.29751 0.22883,0 0.62928,0.11899 0.87718,0.25784 0.34325,0.1785 1.10602,0.19833 2.76504,0.0992 3.69944,-0.19833 4.74825,-0.357 5.51103,-0.77351 0.38138,-0.21815 0.70556,-0.33715 0.70556,-0.25783 0,0.0793 0.17162,-0.0992 0.40045,-0.39667 0.20977,-0.27765 0.51487,-0.51566 0.66743,-0.51566 0.15255,0 0.26696,-0.0595 0.26696,-0.15867 0,-0.0793 0.22884,-0.15867 0.49581,-0.1785 0.26697,0 0.59114,-0.119 0.72464,-0.25783 0.15254,-0.15867 0.13347,-0.19835 -0.11442,-0.0992 -0.47674,0.19833 -0.41954,0 0.17162,-0.81318 0.26696,-0.37683 0.61021,-0.6545 0.74371,-0.595 0.13347,0.0595 0.34324,-0.0396 0.45766,-0.19833 0.19068,-0.21817 0.19068,-0.27768 0,-0.27768 -0.11442,0 -0.0382,-0.238 0.19068,-0.55532 0.85812,-1.11068 2.32646,-3.6692 2.40273,-4.16503 0.0572,-0.2975 0.17163,-0.61483 0.28604,-0.73383 0.0954,-0.0992 0.17163,-0.37685 0.17163,-0.61485 0,-0.21816 0.19069,-0.71401 0.4386,-1.09083 0.22883,-0.37683 0.43858,-0.87268 0.45766,-1.11068 0.0191,-0.238 0.17162,-0.75367 0.34324,-1.11067 0.17163,-0.37684 0.28604,-0.75367 0.26696,-0.85285 -0.0191,-0.0992 0.0572,-0.45615 0.19071,-0.7735 0.13347,-0.33716 0.32416,-1.05116 0.40045,-1.58667 0.0953,-0.55534 0.24789,-1.34867 0.36231,-1.78501 0.11442,-0.43634 0.20977,-1.15035 0.20977,-1.60651 0,-0.595 0.11441,-0.91234 0.47673,-1.22968 0.26697,-0.238 0.47672,-0.39667 0.47672,-0.33717 0,0.0397 0.26698,-0.0595 0.59116,-0.25783 0.83904,-0.476 0.70556,-0.73383 -0.40046,-0.714 -0.57207,0 -0.95347,-0.0793 -0.95347,-0.19833 -0.0382,-1.48751 -1.16321,-7.33839 -1.58275,-8.17139 -0.43858,-0.85284 -3.08922,-3.27253 -4.30965,-3.92703 -1.65903,-0.87266 -3.89013,-1.48751 -5.81613,-1.60651 -4.2143,-0.25782 -4.78638,-0.25782 -5.16777,0 z"
               id="path10682" />
            <path
               style="stroke-width:0.01944761"
               inkscape:connector-curvature="0"
               d="m -96.48009,122.93763 c 0,0.15868 -0.22883,0.45618 -0.4958,0.65451 -0.91533,0.69417 -0.0954,1.46768 1.63996,1.54701 1.25857,0.0397 3.73757,0.49583 4.67196,0.85283 0.91533,0.33717 0.99161,0.43635 1.75438,2.00319 l 0.81997,1.66601 -0.20975,1.40818 c -0.11442,0.7735 -0.26697,1.4875 -0.36233,1.6065 -0.0763,0.0992 -0.22883,0.63466 -0.36231,1.17017 -0.32418,1.36851 -0.68649,2.04285 -1.75437,3.23286 -0.51487,0.55534 -0.93439,1.11066 -0.93439,1.20984 0,0.238 -2.04042,2.30068 -2.86039,2.89569 -0.53394,0.37683 -0.85812,0.45616 -1.60182,0.37683 -0.53394,-0.0397 -1.02974,0.0198 -1.1823,0.15867 -0.32417,0.27766 -0.36231,1.54701 -0.0191,1.64616 0.11441,0.0397 0.51487,0.15868 0.83905,0.27768 1.20136,0.39667 2.61248,-0.25783 4.72917,-2.16184 1.81159,-1.64618 2.1739,-2.02301 2.07856,-2.18169 -0.0572,-0.0992 -0.0191,-0.1785 0.0763,-0.1785 0.0763,0 0.53394,-0.595 0.9916,-1.34868 1.04882,-1.68584 1.52554,-2.24117 1.77344,-2.08251 0.11441,0.0794 0.1335,0.0198 0.0382,-0.13883 -0.0763,-0.119 -0.0572,-0.57518 0.0572,-0.97183 0.87718,-3.17337 0.95347,-5.77154 0.20977,-7.06072 -0.20977,-0.31733 -0.36233,-0.75368 -0.36233,-0.93218 0,-0.1785 -0.17162,-0.37682 -0.36231,-0.45616 -0.20976,-0.0595 -0.59114,-0.4165 -0.85812,-0.7735 -0.26697,-0.37685 -0.76276,-0.85285 -1.10601,-1.07101 -0.85812,-0.55534 -2.4218,-1.09085 -2.76505,-0.952 -0.26696,0.119 -3.9664,-0.39668 -4.27151,-0.59501 -0.0953,-0.0595 -0.17162,0.0199 -0.17162,0.19833 z"
               id="path11266" />
            <path
               style="stroke-width:0.01944761"
               inkscape:connector-curvature="0"
               d="m -367.26373,132.87419 c -0.57208,0.13883 -1.10602,0.21818 -1.20137,0.15868 -0.0763,-0.0397 -0.51487,0.0793 -0.95347,0.2975 -0.9916,0.476 -1.50647,0.69416 -1.75436,0.714 -0.30512,0.0396 -1.43019,1.17017 -1.43019,1.44784 0,0.13883 -0.0763,0.25783 -0.19071,0.25783 -0.26696,0 -2.13575,3.96669 -2.02133,4.28403 0.0572,0.15867 0.0382,0.27767 -0.0572,0.27767 -0.26698,0 -0.62929,1.13051 -0.51488,1.52718 0.0572,0.21816 0.19069,1.22966 0.28605,2.26101 0.0953,1.03134 0.26697,2.08252 0.38138,2.36018 0.53394,1.26934 2.1167,3.68901 2.65063,4.02619 0.13348,0.0992 0.49581,0.4165 0.80091,0.73383 0.78184,0.79335 2.57435,1.98336 3.68036,2.41969 0.49581,0.19833 1.23951,0.57518 1.65903,0.85283 1.06789,0.69418 1.56369,0.63468 2.26925,-0.238 0.40045,-0.49583 0.51487,-0.79333 0.40045,-0.95201 -0.11441,-0.13882 -0.13348,-0.27765 -0.0763,-0.357 0.0572,-0.0595 -0.0763,-0.15865 -0.28604,-0.238 -0.22883,-0.0595 -0.40045,-0.19833 -0.40045,-0.25783 0,-0.0793 -0.34325,-0.13883 -0.76278,-0.0992 -0.51487,0.0198 -1.06787,-0.119 -1.58274,-0.41651 -0.4386,-0.238 -1.1823,-0.595 -1.6209,-0.7735 -0.43858,-0.1785 -0.80091,-0.476 -0.80091,-0.63466 0,-0.15867 -0.0763,-0.2975 -0.17163,-0.2975 -0.28603,0 -1.63994,-1.20985 -2.15481,-1.94368 -1.65903,-2.34035 -1.6209,-2.28084 -1.8688,-4.3237 -0.22883,-2.10234 -0.22883,-2.12217 0.78185,-4.83936 0.22883,-0.595 1.04881,-1.92384 1.69715,-2.71719 0.0954,-0.13883 0.19071,-0.37683 0.19071,-0.55533 0,-0.19833 0.19069,-0.2975 0.57207,-0.2975 0.32417,0 0.57209,-0.0793 0.57209,-0.1785 0,-0.0992 0.45765,-0.37683 1.01065,-0.63468 0.80092,-0.37683 1.35393,-0.45616 2.99389,-0.49583 2.66969,-0.0397 2.55527,0 2.05948,-0.5355 -0.83905,-0.91233 -2.51714,-1.22968 -4.1571,-0.83301 z"
               id="path11618" />
            <path
               style="stroke-width:0.01944761"
               inkscape:connector-curvature="0"
               d="m -125.99932,165.53989 c -0.38139,0.238 -0.61022,0.55533 -0.61022,0.81318 -0.0191,0.595 -2.61248,5.63269 -3.14643,6.08886 -0.15254,0.13883 -0.28604,0.31733 -0.28604,0.41651 0,0.27767 -1.08695,1.38833 -1.92598,1.98334 -0.53395,0.357 -1.08695,0.57517 -1.50649,0.57517 -1.62088,0 -6.21657,-1.82468 -6.96027,-2.75684 -0.20977,-0.25785 -0.61023,-0.89251 -0.89626,-1.38836 -0.95347,-1.64616 -1.4302,-2.08251 -2.11669,-1.90401 -0.53393,0.13884 -0.81997,0.89251 -0.45766,1.19001 0.11441,0.0992 0.24789,0.45618 0.26697,0.7735 0.0191,0.33718 0.17163,0.67435 0.34325,0.75368 0.15254,0.0992 0.45766,0.51568 0.64835,0.91233 0.51487,1.03136 2.07854,2.53869 2.87946,2.77669 0.36232,0.119 1.31577,0.47601 2.09762,0.79333 2.28831,0.93218 2.6697,1.01151 4.34779,0.93218 1.63996,-0.0992 2.25017,-0.2975 2.6697,-0.93218 0.13349,-0.19832 0.36232,-0.357 0.51487,-0.357 0.15255,0 0.36232,-0.19832 0.4958,-0.45616 0.11441,-0.238 0.43859,-0.6545 0.72463,-0.93217 0.26698,-0.27768 0.59114,-0.65451 0.6865,-0.83301 0.11441,-0.1785 0.68649,-1.09084 1.31578,-2.04284 1.06788,-1.66601 2.02133,-3.70886 2.02133,-4.36337 0,-0.15865 0.0954,-0.2975 0.19071,-0.2975 0.34324,0 0.19069,-0.91233 -0.24791,-1.52717 l -0.43859,-0.63467 z"
               id="path12722" />
            <path
               style="stroke-width:0.01944761"
               inkscape:connector-curvature="0"
               d="m -164.59553,166.23407 c -0.17162,0.19833 -0.36231,0.85283 -0.41952,1.46766 -0.0953,0.73385 -0.26697,1.24951 -0.51487,1.48751 -0.19068,0.1785 -0.36231,0.45618 -0.36231,0.61485 0,0.55533 -1.37299,3.19317 -2.38366,4.58153 -0.57208,0.7735 -1.04881,1.50733 -1.04881,1.62634 0,0.11899 -0.15256,0.25782 -0.32418,0.33717 -0.19069,0.0595 -0.4958,0.25783 -0.68649,0.43633 -0.51487,0.45617 -3.54689,0.6545 -4.90081,0.31733 -1.43019,-0.33716 -1.94507,-0.57516 -2.86039,-1.26934 -0.89625,-0.67433 -2.28831,-1.96351 -2.28831,-2.10234 0,-0.0595 -0.32417,-0.67434 -0.72463,-1.34868 -0.40045,-0.69417 -0.83905,-1.66601 -0.97253,-2.16184 -0.15256,-0.595 -0.4386,-1.05118 -0.81999,-1.34868 -0.3051,-0.238 -0.51487,-0.5355 -0.47672,-0.67433 0.0763,-0.1785 -0.0763,-0.21817 -0.51487,-0.15867 -0.91533,0.13882 -1.10602,0.39667 -0.95347,1.309 0.15255,0.97184 0.28604,1.26934 1.14415,2.43952 0.36233,0.49583 0.64837,0.99168 0.64837,1.15033 0,0.73385 3.16549,4.66088 3.77571,4.66088 0.15255,0 0.51487,0.21815 0.83904,0.49582 0.70557,0.61484 3.24178,1.42801 4.25246,1.36851 3.62315,-0.23799 3.79478,-0.25782 4.84358,-0.833 0.59116,-0.31733 1.16324,-0.7735 1.27765,-1.0115 0.11442,-0.23801 0.4958,-0.77351 0.85812,-1.19001 0.36231,-0.4165 0.80091,-1.05118 1.01067,-1.42801 0.19069,-0.37683 0.4958,-0.79333 0.66742,-0.93218 0.17163,-0.13883 0.26698,-0.27766 0.22883,-0.2975 -0.0572,-0.0198 0.22883,-0.73383 0.61023,-1.58667 0.38137,-0.87268 0.70555,-1.62635 0.70555,-1.72551 0,-0.0793 0.13348,-0.25784 0.28604,-0.39667 0.15256,-0.13883 0.28604,-0.4165 0.28604,-0.61483 0,-0.4165 0.57208,-1.76519 0.76277,-1.76519 0.0572,0 0.0953,-0.21817 0.0953,-0.49583 -0.0572,-1.09085 -1.39205,-1.70568 -2.04042,-0.952 z"
               id="path12756" />
            <path
               style="stroke-width:0.01944761"
               inkscape:connector-curvature="0"
               d="m -207.46325,167.28523 c -0.15256,0.0992 -0.20976,0.238 -0.15256,0.31735 0.22884,0.238 -1.12507,2.73701 -1.92598,3.55017 -0.4386,0.4165 -0.78184,0.93218 -0.78184,1.13051 0,0.19834 -0.30511,0.67435 -0.66743,1.071 -0.36232,0.37685 -0.66742,0.81318 -0.66742,0.97185 0,0.15866 -0.11441,0.29751 -0.24791,0.29751 -0.13348,0 -0.49579,0.27765 -0.81997,0.61483 -0.30511,0.33717 -0.91533,0.87267 -1.35393,1.19001 -0.7437,0.5355 -0.93439,0.57517 -3.33712,0.69417 -2.51714,0.13883 -2.5362,0.13883 -3.77571,-0.45617 -1.37299,-0.6545 -2.76504,-1.78501 -3.27991,-2.65769 -0.1907,-0.31733 -0.30512,-0.57516 -0.26697,-0.57516 0.0382,0 -0.22884,-0.31735 -0.57209,-0.71401 -0.91532,-0.99167 -1.48739,-0.8925 -1.56367,0.27766 -0.0572,0.73385 0.0572,1.03136 0.64835,1.94369 1.69717,2.55851 4.23338,4.24435 6.42634,4.24435 0.53395,0 1.58276,0.0992 2.30739,0.19835 0.97254,0.15865 1.35391,0.13882 1.46833,-0.0198 0.0763,-0.11901 0.20977,-0.1785 0.30512,-0.11901 0.19068,0.11901 1.92598,-0.39665 3.05107,-0.8925 0.34325,-0.15866 0.91533,-0.69416 1.29672,-1.20983 0.38138,-0.51568 0.76276,-0.93218 0.85812,-0.93218 0.0953,0 0.40045,-0.39666 0.66741,-0.87266 0.26698,-0.49585 0.80091,-1.22968 1.16324,-1.64618 0.76276,-0.85284 1.81157,-2.55852 1.67809,-2.69735 -0.0572,-0.0595 0.34324,-0.476 0.85811,-0.95201 1.10602,-0.99167 1.31579,-1.84451 0.53394,-2.14201 -0.2479,-0.0992 -0.553,-0.31734 -0.68649,-0.49584 -0.28605,-0.35701 -0.7437,-0.39666 -1.16323,-0.11901 z"
               id="path12806" />
            <path
               style="stroke-width:0.01944761"
               inkscape:connector-curvature="0"
               d="m -251.93278,170.55775 c -0.55302,0.67435 -1.27765,2.18168 -1.29672,2.65769 0,0.27767 -2.17389,3.13369 -3.08922,4.02619 -0.28604,0.2975 -0.53393,0.61484 -0.53393,0.73384 0,0.27767 -2.15484,1.7255 -3.08922,2.04284 -1.50649,0.5355 -4.40501,0.13884 -5.96869,-0.79333 -0.80092,-0.47601 -2.44086,-2.36019 -2.93667,-3.35186 -0.4386,-0.91235 -1.86879,-2.41968 -2.26925,-2.43951 -0.34325,0 -0.97253,0.79334 -0.99159,1.24951 0,0.357 0.61022,1.40816 1.0488,1.82466 0.11441,0.0992 0.36232,0.45618 0.55301,0.77351 0.51487,0.833 3.1655,3.68902 3.75665,3.98652 2.57436,1.38835 6.54076,1.56686 8.3142,0.37685 0.30511,-0.19834 1.06789,-0.73385 1.69717,-1.15035 1.23949,-0.85283 3.56595,-3.55018 4.93894,-5.73186 0.45766,-0.73383 0.80091,-1.32884 0.7437,-1.32884 -0.0382,0 0.0953,-0.1785 0.3051,-0.39667 0.28605,-0.29751 0.38139,-0.65451 0.38139,-1.54701 0,-1.74534 -0.62928,-2.12219 -1.56367,-0.93218 z"
               id="path12924" />
            <path
               style="stroke-width:0.01944761"
               inkscape:connector-curvature="0"
               d="m -292.35964,173.71127 c -0.30511,0.37684 -0.53394,0.79334 -0.53394,0.91235 0,0.7735 -3.05109,4.32368 -4.51941,5.29553 -0.30512,0.1785 -0.68649,0.476 -0.8772,0.63466 -0.53393,0.476 -1.96413,0.81318 -3.94734,0.93217 -1.7925,0.11901 -1.83065,0.11901 -3.03201,-0.5355 -0.91533,-0.49583 -1.54462,-1.05118 -2.38365,-2.10234 -0.64835,-0.7735 -1.27764,-1.428 -1.41114,-1.428 -0.13347,-0.0198 -0.40045,-0.27768 -0.57207,-0.61485 -0.17163,-0.31733 -0.43858,-0.59501 -0.553,-0.59501 -0.1335,0 -0.24791,-0.0992 -0.24791,-0.19832 0,-0.11901 -0.47673,-0.51568 -1.0488,-0.89251 -0.57208,-0.39668 -1.04881,-0.79334 -1.04881,-0.8925 0,-0.21818 -0.62929,-0.25784 -1.4874,-0.0793 -0.53396,0.119 -0.55302,0.13883 -0.34325,0.714 0.22883,0.65451 1.71623,2.14201 2.13575,2.14201 0.15256,0 0.26698,0.119 0.26698,0.23801 0,0.13882 0.40045,0.595 0.89624,1.0115 0.49581,0.41651 1.31578,1.26934 1.84973,1.90401 1.46833,1.74534 2.44086,2.51885 3.85199,2.99485 1.56368,0.51568 4.30965,0.57517 5.58729,0.0992 0.45766,-0.15867 0.89626,-0.238 0.99161,-0.1785 0.0953,0.0595 0.57208,-0.15867 1.06787,-0.49584 0.4958,-0.33716 0.95347,-0.61484 1.02974,-0.61484 0.38139,0 4.23338,-3.96669 4.8436,-4.9782 0.7437,-1.26933 1.27764,-1.96351 1.44926,-1.96351 0.24791,0 0.0572,-1.34866 -0.2479,-1.74534 -0.38139,-0.476 -1.18229,-0.27767 -1.71623,0.43633 z"
               id="path13070" />
            <path
               style="stroke-width:0.01944761"
               inkscape:connector-curvature="0"
               d="m -126.45698,191.22422 c 0.13348,0.0595 0.3051,0.0396 0.36231,-0.0198 0.0763,-0.0595 -0.0381,-0.119 -0.2479,-0.0992 -0.20976,0 -0.26697,0.0595 -0.11441,0.119 z"
               id="path13902" />
            <path
               style="stroke-width:0.03527778"
               inkscape:connector-curvature="0"
               d="m -169.64888,176.34913 c -0.10583,0.67027 -0.0706,0.88194 0.1411,0.67027 0.21167,-0.21166 0.28223,-0.635 0.21167,-0.98777 -0.10584,-0.49389 -0.1764,-0.42333 -0.35277,0.3175 z"
               id="path14272" />
          </g>
        </g>
        <ellipse
           style="fill:#ffffff;stroke-width:3.28923845"
           id="path134"
           cx="170.9231"
           cy="-27.017031"
           transform="scale(-1)"
           rx="206.11482"
           ry="158.79744" />
        <g
           id="g155"
           transform="translate(-2165.9525,218.05021)">
          <ellipse
             ry="116.13544"
             rx="118.77802"
             transform="scale(-1)"
             cy="793.04138"
             cx="-186.57547"
             id="path140"
             style="fill:#000000;stroke-width:3.28923845" />
        </g>
        <rect
           style="fill:#000000;stroke-width:4.62667656"
           id="rect157"
           width="3437.5759"
           height="9.480444"
           x="-841.0191"
           y="65.417297"
           transform="scale(-1)" />
        <text
           xml:space="preserve"
           style="font-style:normal;font-weight:normal;font-size:122.79823303px;line-height:1.25;font-family:sans-serif;letter-spacing:0px;word-spacing:0px;fill:#000000;fill-opacity:1;stroke:none;stroke-width:3.28923845"
           x="-644.01025"
           y="13.159126"
           id="text161"
           transform="scale(-0.99128522,-1.0087914)"><tspan
             sodipodi:role="line"
             id="tspan159"
             x="-644.01025"
             y="13.159126"
             style="font-size:122.79823303px;stroke-width:3.28923845"> <tspan
   style="font-size:105.25563049px"
   id="tspan295">dotDevice</tspan></tspan></text>
        <flowRoot
           xml:space="preserve"
           id="flowRoot223"
           style="font-style:normal;font-weight:normal;font-size:40px;line-height:1.25;font-family:sans-serif;letter-spacing:0px;word-spacing:0px;fill:#000000;fill-opacity:1;stroke:none"
           transform="matrix(-3.2605734,0,0,-3.3181554,-76.599394,177.09823)"><flowRegion
             id="flowRegion225"><rect
               id="rect227"
               width="664.28571"
               height="334.28571"
               x="-49.285713"
               y="-49.769691" /></flowRegion><flowPara
             id="flowPara229"></flowPara></flowRoot>        <rect
           style="fill:#000000;stroke-width:4.62980986"
           id="rect157-3"
           width="3442.2339"
           height="9.480444"
           x="-845.677"
           y="-140.78239"
           transform="scale(-1)" />
        <text
           xml:space="preserve"
           style="font-style:normal;font-weight:normal;font-size:131.5695343px;line-height:1.25;font-family:sans-serif;letter-spacing:0px;word-spacing:0px;fill:#000000;fill-opacity:1;stroke:none;stroke-width:3.28923845"
           x="-831.96655"
           y="-343.95807"
           id="text267"
           transform="scale(-0.99128522,-1.0087914)"
           inkscape:transform-center-x="-3.2127978"
           inkscape:transform-center-y="3.2127972"><tspan
             sodipodi:role="line"
             id="tspan265"
             x="-831.96655"
             y="-343.95807"
             style="stroke-width:3.28923845">[EmSys Inc.] </tspan></text>
        <rect
           style="fill:none;stroke:#000000;stroke-width:3.47950244"
           id="rect269"
           width="870.85028"
           height="732.17578"
           x="1543.9518"
           y="167.42642"
           transform="scale(-1)" />
        <text
           xml:space="preserve"
           style="font-style:normal;font-weight:normal;font-size:122.7982254px;line-height:1.25;font-family:sans-serif;letter-spacing:0px;word-spacing:0px;fill:#000000;fill-opacity:1;stroke:none;stroke-width:3.28923845"
           x="1880.651"
           y="420.54431"
           id="text161-6"
           transform="scale(-0.99128522,-1.0087914)"><tspan
             sodipodi:role="line"
             id="tspan159-7"
             x="1880.651"
             y="420.54431"
             style="font-size:78.94171906px;stroke-width:3.28923845">Hello!</tspan></text>
        <text
           xml:space="preserve"
           style="font-style:normal;font-weight:normal;font-size:70.17041779px;line-height:1.25;font-family:sans-serif;letter-spacing:0px;word-spacing:0px;fill:#000000;fill-opacity:1;stroke:none;stroke-width:3.28923845"
           x="-813.17102"
           y="342.43781"
           id="text330"
           transform="scale(-0.99128522,-1.0087914)"><tspan
             sodipodi:role="line"
             id="tspan328"
             x="-813.17102"
             y="342.43781"
             style="font-size:70.17041779px;stroke-width:3.28923845">These devices are visual representations of your ESP32</tspan><tspan
             sodipodi:role="line"
             x="-813.17102"
             y="430.15082"
             style="font-size:70.17041779px;stroke-width:3.28923845"
             id="tspan332">board in the lab. Each ESP32 in the lab has a unique </tspan><tspan
             sodipodi:role="line"
             x="-813.17102"
             y="517.86383"
             style="font-size:70.17041779px;stroke-width:3.28923845"
             id="tspan334">dotDevice associated with it. Your dot device can: speak, </tspan><tspan
             sodipodi:role="line"
             x="-813.17102"
             y="605.57684"
             style="font-size:70.17041779px;stroke-width:3.28923845"
             id="tspan336">making text appear above it; move +-10 in the x or y </tspan><tspan
             sodipodi:role="line"
             x="-813.17102"
             y="693.28992"
             style="font-size:70.17041779px;stroke-width:3.28923845"
             id="tspan338">direction; and change colour or size. Commands are issued</tspan><tspan
             sodipodi:role="line"
             x="-813.17102"
             y="781.00293"
             style="font-size:70.17041779px;stroke-width:3.28923845"
             id="tspan340">from your device via WebSockets to the centralised </tspan><tspan
             sodipodi:role="line"
             x="-813.17102"
             y="868.71594"
             style="font-size:70.17041779px;stroke-width:3.28923845"
             id="tspan342">EmSys lab server.</tspan></text>
      </g>
    </g>
  </g>
</svg>
